<svg width="512" height="512" viewBox="0 0 512 512" fill="none" xmlns="http://www.w3.org/2000/svg">
<mask id="mask0_127_49" style="mask-type:luminance" maskUnits="userSpaceOnUse" x="0" y="0" width="512" height="512">
<path d="M256 0C397.385 0 512 114.615 512 256C512 397.385 397.385 512 256 512C114.615 512 0 397.385 0 256C0 114.615 114.615 0 256 0Z" fill="white"/>
</mask>
<g mask="url(#mask0_127_49)">
<path d="M255.98 481.319C287.057 481.319 315.193 493.916 335.559 514.282L336.508 515.242C356.315 535.527 368.521 563.269 368.521 593.86C368.521 624.451 356.315 652.193 336.508 672.478L335.559 673.438C315.193 693.803 287.057 706.401 255.98 706.401C225.389 706.401 197.647 694.194 177.362 674.387L176.402 673.438C156.037 653.072 143.439 624.936 143.439 593.86C143.439 562.783 156.037 534.647 176.402 514.282L177.362 513.332C197.647 493.525 225.389 481.319 255.98 481.319ZM255.98 489.874C227.714 489.874 202.083 501.152 183.339 519.453L182.451 520.33C163.633 539.148 151.995 565.145 151.995 593.86C151.995 622.575 163.633 648.571 182.451 667.389L183.339 668.265C202.083 686.567 227.714 697.845 255.98 697.845C284.696 697.845 310.692 686.207 329.51 667.389L330.386 666.501C348.688 647.758 359.966 622.126 359.966 593.86C359.966 565.593 348.688 539.962 330.386 521.218L329.51 520.33C310.692 501.513 284.696 489.874 255.98 489.874Z" fill="#051D32" stroke="#051D32"/>
<path d="M255.979 427.99C301.782 427.99 343.251 446.556 373.267 476.572L374.665 477.988C403.858 507.885 421.849 548.772 421.849 593.86C421.849 638.947 403.858 679.833 374.665 709.731L373.267 711.147C343.251 741.163 301.782 759.729 255.979 759.729C210.892 759.729 170.005 741.738 140.107 712.545L138.691 711.147C108.675 681.131 90.1095 639.663 90.1094 593.86C90.1094 548.057 108.675 506.588 138.691 476.572L140.107 475.173C170.005 445.98 210.892 427.99 255.979 427.99ZM255.979 437.58C213.498 437.58 174.976 454.53 146.807 482.036L145.473 483.353C117.191 511.634 99.7002 550.704 99.7002 593.86C99.7003 637.015 117.192 676.084 145.473 704.366L146.807 705.683C174.976 733.189 213.498 750.138 255.979 750.138C299.135 750.138 338.204 732.647 366.485 704.366L367.803 703.032C395.308 674.862 412.258 636.341 412.258 593.86C412.258 551.378 395.309 512.856 367.803 484.687L366.485 483.353C338.204 455.072 299.135 437.581 255.979 437.58Z" fill="#051D32" stroke="#051D32"/>
<path d="M255.979 374.661C316.509 374.661 371.31 399.197 410.977 438.863L411.903 439.796C451.025 479.387 475.179 533.803 475.179 593.859C475.179 654.389 450.643 709.189 410.977 748.855C371.31 788.522 316.509 813.058 255.979 813.058C195.923 813.058 141.507 788.905 101.916 749.783L100.983 748.855C61.3167 709.189 36.7812 654.389 36.7812 593.859C36.7813 533.33 61.3167 478.53 100.983 438.863L101.916 437.937C141.507 398.815 195.923 374.661 255.979 374.661ZM255.979 385.287C199.283 385.287 147.872 407.908 110.276 444.617L108.496 446.376C70.7517 484.12 47.4073 536.263 47.4072 593.859C47.4072 651.456 70.7517 703.598 108.496 741.343L110.276 743.102C147.872 779.811 199.283 802.433 255.979 802.433C313.576 802.433 365.718 779.087 403.463 741.343C441.207 703.598 464.553 651.456 464.553 593.859C464.553 537.163 441.931 485.752 405.222 448.156L403.463 446.376C365.718 408.632 313.576 385.287 255.979 385.287Z" fill="#051D32" stroke="#051D32"/>
<path d="M255.979 321.332C331.234 321.332 399.366 351.837 448.684 401.154L449.836 402.313C498.476 451.537 528.506 519.192 528.506 593.859C528.506 668.527 498.476 736.182 449.836 785.405L448.684 786.564C399.366 835.882 331.234 866.387 255.979 866.387C181.311 866.387 113.656 836.357 64.4326 787.717L63.2734 786.564C13.956 737.247 -16.5488 669.115 -16.5488 593.859C-16.5488 518.604 13.956 450.472 63.2734 401.154L64.4326 400.001C113.656 351.361 181.311 321.332 255.979 321.332ZM255.979 332.993C184.504 332.993 119.744 361.736 72.627 408.295L71.5176 409.398C24.3099 456.606 -4.8877 521.822 -4.8877 593.859C-4.88765 665.896 24.3099 731.113 71.5176 778.32L72.627 779.423C119.744 825.982 184.504 854.726 255.979 854.726C328.015 854.726 393.232 825.528 440.439 778.32L441.543 777.21C488.102 730.093 516.845 665.333 516.845 593.859C516.845 522.385 488.102 457.625 441.543 410.508L440.439 409.398C393.232 362.191 328.015 332.993 255.979 332.993Z" fill="#051D32" stroke="#051D32"/>
<path d="M255.978 268.003C345.959 268.004 427.424 304.477 486.392 363.445L487.77 364.832C545.927 423.687 581.833 504.58 581.833 593.859C581.833 683.841 545.36 765.306 486.392 824.274C427.424 883.242 345.959 919.715 255.978 919.715C166.699 919.715 85.8045 883.809 26.9492 825.652L25.5625 824.274C-33.4056 765.306 -69.8789 683.841 -69.8789 593.859C-69.8788 503.877 -33.4054 422.413 25.5625 363.445L26.9492 362.067C85.8045 303.909 166.699 268.003 255.978 268.003ZM255.978 280.7C170.176 280.7 92.4338 315.205 35.8711 371.097L34.5391 372.421C-22.1319 429.092 -57.1825 507.382 -57.1826 593.859C-57.1826 680.336 -22.132 758.626 34.5391 815.297L35.8711 816.622C92.4338 872.514 170.176 907.019 255.978 907.019C342.455 907.019 420.744 871.968 477.415 815.297L478.739 813.965C534.632 757.403 569.138 679.661 569.138 593.859C569.138 508.057 534.632 430.316 478.739 373.753L477.415 372.421C420.744 315.75 342.455 280.7 255.978 280.7Z" fill="#051D32" stroke="#051D32"/>
<path d="M255.976 214.675C360.684 214.675 455.481 257.118 524.1 325.736L525.703 327.349C593.379 395.836 635.161 489.969 635.161 593.859C635.161 697.749 593.379 791.883 525.703 860.37L524.1 861.983C455.481 930.602 360.684 973.045 255.976 973.045C152.086 973.045 57.9523 931.263 -10.5352 863.587L-12.1475 861.983C-80.7662 793.365 -123.209 698.567 -123.209 593.859C-123.209 489.151 -80.7661 394.355 -12.1475 325.736L-10.5352 324.133C57.9523 256.457 152.085 214.675 255.976 214.675ZM255.976 228.406C155.846 228.406 65.123 268.673 -0.884766 333.898L-2.43945 335.444C-68.5737 401.579 -109.477 492.941 -109.478 593.859C-109.478 694.777 -68.5738 786.141 -2.43945 852.275L-0.884766 853.82C65.123 919.046 155.846 959.313 255.976 959.313C356.894 959.313 448.257 918.41 514.392 852.275L515.937 850.721C581.162 784.713 621.43 693.989 621.43 593.859C621.43 493.73 581.162 403.007 515.937 336.999L514.392 335.444C448.257 269.31 356.894 228.406 255.976 228.406Z" fill="#051D32" stroke="#051D32"/>
<path d="M255.98 161.346C375.415 161.346 483.544 209.758 561.813 288.027L563.643 289.867C640.836 367.986 688.494 475.359 688.494 593.86C688.494 712.361 640.836 819.733 563.643 897.852L561.813 899.692C483.544 977.961 375.415 1026.37 255.98 1026.37C137.479 1026.37 30.1069 978.715 -48.0127 901.521L-49.8525 899.693C-128.122 821.424 -176.533 713.294 -176.533 593.86C-176.533 474.425 -128.122 366.296 -49.8525 288.027L-48.0127 286.198C30.1069 209.004 137.479 161.346 255.98 161.346ZM255.98 176.112C141.523 176.112 37.8173 222.142 -37.6357 296.701L-39.4121 298.467C-115.01 374.065 -161.768 478.501 -161.768 593.86C-161.768 709.218 -115.01 813.655 -39.4121 889.252L-37.6357 891.019C37.8173 965.578 141.523 1011.61 255.98 1011.61C371.339 1011.61 475.775 964.85 551.373 889.252L553.14 887.475C627.698 812.022 673.728 708.317 673.729 593.86C673.729 479.403 627.698 375.698 553.14 300.245L551.373 298.467C475.775 222.87 371.339 176.112 255.98 176.112Z" fill="#051D32" stroke="#051D32"/>
<path d="M255.979 108.017C390.14 108.017 511.601 162.398 599.521 250.318L601.575 252.384C688.287 340.136 741.821 460.747 741.821 593.86C741.821 726.972 688.287 847.583 601.575 935.334L599.521 937.401C511.601 1025.32 390.14 1079.7 255.979 1079.7C122.867 1079.7 2.25565 1026.17 -85.4961 939.456L-87.5625 937.401C-175.482 849.481 -229.863 728.02 -229.863 593.86C-229.863 459.699 -175.482 338.238 -87.5625 250.318L-85.4961 248.263C2.25566 161.551 122.867 108.017 255.979 108.017ZM255.979 123.818C127.194 123.818 10.5065 175.609 -74.3916 259.501L-76.3906 261.49C-161.452 346.551 -214.062 464.061 -214.062 593.86C-214.062 723.659 -161.451 841.168 -76.3906 926.229L-74.3916 928.217C10.5065 1012.11 127.194 1063.9 255.979 1063.9C385.779 1063.9 503.289 1011.29 588.35 926.229L590.337 924.23C674.229 839.332 726.02 722.645 726.021 593.86C726.021 465.075 674.229 348.387 590.337 263.489L588.35 261.49C503.289 176.429 385.779 123.818 255.979 123.818Z" fill="#051D32" stroke="#051D32"/>
<path d="M255.978 54.6885C404.864 54.6885 539.658 115.038 637.229 212.608L639.509 214.902C735.739 312.286 795.148 446.136 795.148 593.859C795.148 741.583 735.739 875.432 639.509 972.816L637.229 975.11C539.658 1072.68 404.865 1133.03 255.978 1133.03C108.254 1133.03 -25.5956 1073.62 -122.979 977.391L-125.273 975.11C-222.844 877.54 -283.193 742.746 -283.193 593.859C-283.193 444.972 -222.844 310.179 -125.273 212.608L-122.979 210.329C-25.5956 114.099 108.254 54.6885 255.978 54.6885ZM255.978 71.5244C112.865 71.5245 -16.8041 129.078 -111.147 222.304L-113.369 224.513C-207.893 319.037 -266.357 449.62 -266.357 593.859C-266.357 738.099 -207.893 868.683 -113.369 963.207L-111.147 965.416C-16.8042 1058.64 112.865 1116.19 255.978 1116.19C400.217 1116.19 530.801 1057.73 625.325 963.207L627.534 960.984C720.759 866.641 778.312 736.972 778.312 593.859C778.312 450.747 720.759 321.078 627.534 226.734L625.325 224.513C530.801 129.989 400.217 71.5244 255.978 71.5244Z" fill="#051D32" stroke="#051D32"/>
<path d="M255.979 1.35938C419.592 1.35939 567.717 67.6782 674.938 174.899L677.444 177.42C783.192 284.436 848.479 431.524 848.479 593.859C848.478 757.473 782.16 905.598 674.938 1012.82C567.717 1120.04 419.592 1186.36 255.979 1186.36C93.6433 1186.36 -53.4448 1121.07 -160.461 1015.32L-162.981 1012.82C-270.203 905.598 -336.521 757.473 -336.521 593.859C-336.521 430.246 -270.203 282.121 -162.981 174.899L-160.461 172.394C-53.4449 66.6458 93.6435 1.35938 255.979 1.35938ZM255.979 19.2305C98.538 19.2305 -44.1128 82.5461 -147.901 185.104L-150.346 187.535C-254.333 291.523 -318.65 435.179 -318.65 593.859C-318.65 752.54 -254.333 896.196 -150.346 1000.18L-147.901 1002.61C-44.1129 1105.17 98.5379 1168.49 255.979 1168.49C414.659 1168.49 558.315 1104.17 662.303 1000.18L664.732 997.739C767.291 893.951 830.607 751.3 830.607 593.859C830.607 436.419 767.291 293.768 664.732 189.979L662.303 187.535C558.315 83.5477 414.659 19.2305 255.979 19.2305Z" fill="#051D32" stroke="#051D32"/>
</g>
</svg>
