<svg width="162" height="40" viewBox="0 0 162 40" fill="none" xmlns="http://www.w3.org/2000/svg">
<path d="M20.7956 0.000804638C20.5148 0.0100185 20.3931 0.186869 20.4325 0.531283C19.928 0.559603 19.581 0.64818 19.3918 0.796519C19.2026 0.944934 19.152 1.15369 19.2431 1.42214C19.3342 1.69066 19.5412 1.90992 19.8636 2.07947C19.7795 2.17842 19.7437 2.33458 19.7578 2.54652C19.7716 2.75851 19.9981 2.93283 20.4325 3.07411C20.7549 3.15892 21.0677 3.16787 21.3761 3.0972C21.306 3.42225 21.4191 3.62652 21.7134 3.71128C22.1199 4.13525 22.6233 4.24041 23.226 4.02842L23.1631 4.43204L23.9836 4.77223C24.0117 5.16793 24.1934 5.4503 24.5298 5.61984L24.4897 5.70345C24.4476 5.70348 24.4119 5.71845 24.3839 5.74669L23.712 6.50781C23.6559 6.56437 23.5905 6.57329 23.5205 6.5309C23.128 6.30484 22.7794 6.12764 22.4711 6.00043C22.387 5.95807 22.3364 5.88603 22.3225 5.78708L22.4483 4.81262C22.4482 4.71374 22.4005 4.63566 22.3025 4.5791C21.854 4.36717 21.3982 4.21388 20.9358 4.11494C20.7956 4.07257 20.6973 4.11494 20.6413 4.24179L20.2009 5.15282C20.1589 5.23764 20.0875 5.27365 19.9893 5.25949C19.625 5.18887 19.2318 5.13787 18.8114 5.10957C18.7273 5.10961 18.6795 5.06754 18.6656 4.98272L18.5197 4.00826C18.5059 3.88111 18.4283 3.81802 18.2882 3.81798C17.7976 3.78978 17.3062 3.78978 16.8157 3.81798C16.7035 3.81802 16.6321 3.87218 16.6041 3.9852L16.4583 4.98272C16.4444 5.06754 16.3965 5.10961 16.3124 5.10957C15.892 5.13785 15.4988 5.18887 15.1345 5.25949C15.0784 5.28777 15.007 5.26675 14.9229 5.19606L14.4826 4.21873C14.4265 4.13397 14.3282 4.10084 14.1881 4.11494C14.0339 4.12906 13.7956 4.19824 13.4733 4.32539V4.24179C14.0619 3.98745 14.6219 3.63911 15.1545 3.20102C15.7151 2.70646 16.0159 2.19275 16.058 1.65572C15.9599 1.52858 15.6738 1.45655 15.1974 1.44238C15.4496 1.15979 15.5836 0.862448 15.5976 0.551526C15.4155 0.297204 14.8674 0.255135 13.9565 0.424674C13.0035 0.664936 12.1694 1.04037 11.4547 1.54905C10.726 2.01541 10.072 2.58461 9.49044 3.2558C8.90883 3.92706 8.44265 4.62244 8.09233 5.3431L8.51263 4.36864C8.72283 3.90235 8.94625 3.35865 9.18454 2.73686C9.2546 2.44013 9.25903 2.22692 9.19601 2.0997C9.13292 1.97257 8.99447 1.93654 8.78426 1.99303C8.56001 2.04959 8.15483 2.34694 7.56626 2.88388C6.9216 3.54808 6.35111 4.36808 5.8536 5.3431C5.35609 6.31818 5.01507 7.08719 4.83287 7.65239C4.93097 7.01652 4.91614 6.47284 4.78999 6.02061C4.71994 5.83693 4.56792 5.78882 4.32967 5.87358C4.10542 6.02904 3.87911 6.26041 3.6549 6.57127C3.43065 6.88218 3.2161 7.18399 3.00589 7.47365C2.79564 7.76337 2.54691 8.17639 2.25961 8.71334C1.97234 9.25036 1.71914 9.88711 1.50193 10.6219C1.28472 11.3568 1.11941 12.33 1.00731 13.5453C0.937214 14.3225 0.993861 15.1575 1.17598 16.0477C1.40023 16.938 1.62369 17.5958 1.8479 18.0197C2.07211 18.4437 2.28358 18.69 2.47978 18.7607C2.60589 19.0716 2.77278 19.5882 2.98299 20.3088C3.09509 20.648 3.14568 20.9049 3.13168 21.0815C3.11784 21.2581 3.16095 21.3828 3.26606 21.4534C3.37116 21.5241 3.45902 21.6652 3.52911 21.8772C3.71127 22.5555 3.95846 23.1833 4.26677 23.7627C4.21072 24.0736 4.18097 24.3859 4.18101 24.6968C3.5083 22.7326 2.96309 21.2487 2.54268 20.2454C1.72986 18.4225 1.09236 17.5875 0.629896 17.7429C0.405647 17.8278 0.265655 18.032 0.209602 18.357C0.195758 18.4842 0.195758 18.8115 0.209602 19.3344C0.223447 19.8572 0.271311 20.407 0.355409 20.9864C0.775822 22.8658 1.49675 24.4338 2.51981 25.6914L4.05518 27.5164C4.36349 27.8273 4.65839 28.0542 4.93869 28.2025C5.21895 28.3509 5.47813 28.3914 5.71638 28.3207C6.06674 28.886 6.50764 29.4778 7.04016 30.0996C7.37651 30.6224 7.72797 30.8716 8.09237 30.8434C8.24649 31.1825 8.47596 31.3508 8.78426 31.3508L9.10163 31.3104C9.53609 31.7344 9.9264 32.0709 10.2768 32.3252L9.87936 33.4727C9.17861 33.5716 8.53225 33.6258 7.94368 33.6399C7.39712 33.2442 6.62844 32.7095 5.63347 32.0312L5.57057 30.7569C5.54248 30.3188 5.61709 29.9523 5.79929 29.6556C5.84134 29.4154 5.71017 29.1961 5.40186 28.9983C4.9394 28.7722 4.60878 28.682 4.41258 28.7244C4.32848 28.7526 4.28077 28.8278 4.26677 28.955V29.6556L2.26819 29.6988C2.08599 29.6988 1.93556 29.768 1.81645 29.9093C1.69734 30.0506 1.69291 30.333 1.80498 30.7569C1.81882 30.9123 1.81289 31.0475 1.7848 31.1605C1.6867 31.6127 1.42752 32.1653 1.00711 32.8154C0.951059 32.9143 0.976257 33.0615 1.08144 33.2593C1.18654 33.4572 1.45015 33.7666 1.8706 34.1906C2.05276 34.3743 2.32836 34.6025 2.69976 34.871C3.07112 35.1395 3.72504 35.548 4.664 36.0991C5.77113 36.7633 6.83149 37.3159 7.84055 37.754C8.05076 37.7681 9.45088 37.5759 12.0435 37.1802L12.0637 37.4138C11.3209 37.979 10.8443 38.2133 10.6341 38.1143C10.3398 38.1426 10.2504 38.3619 10.3625 38.7717C10.4466 38.9554 10.6014 39.0816 10.8257 39.1522L11.0973 39.4694L11.875 39.9364C12.1693 40.0212 12.4493 40.0212 12.7156 39.9364C12.9679 39.8375 13.1376 39.6182 13.2217 39.2791L13.9136 38.962C14.0677 38.863 14.1452 38.6588 14.1452 38.3479L14.7542 37.8808C15.2307 37.796 15.5404 37.6249 15.6806 37.3705C15.7087 37.1444 15.7712 37.0033 15.8693 36.9467L16.6041 36.4393C16.6322 36.3687 16.9359 36.4888 17.5105 36.7997C17.7907 36.8703 18.035 36.8554 18.2453 36.7565L18.7914 36.4393C19.2818 36.5524 20.1428 37.1652 21.3761 38.2816C21.3622 38.4087 21.4395 38.5589 21.6077 38.7284C21.7057 38.8556 21.9738 38.9608 22.4082 39.0456L22.7027 39.5962L22.9972 39.7029C23.4316 39.717 23.8368 39.5609 24.2152 39.2358L24.6784 39.0888C24.9167 38.9051 25.0209 38.7219 24.9929 38.5382L24.8042 38.3479L24.404 38.2412C23.8994 38.001 23.3871 37.6765 22.8686 37.2667L22.5341 37.0102C24.0616 37.2786 25.9592 37.4919 28.2295 37.6473C28.5098 37.7038 28.8865 37.5582 29.356 37.212C29.8255 36.8658 31.2421 35.8459 33.6105 34.1502C33.9608 33.7687 34.2437 33.3301 34.454 32.8356C34.2437 32.6377 34.0575 32.3554 33.8964 31.9879C33.7352 31.6205 33.6325 31.3082 33.5905 31.0538C33.5344 30.8136 33.5284 30.5988 33.5703 30.4081C33.6123 30.2173 33.5498 30.0385 33.3816 29.8689C33.3115 29.77 33.1478 29.704 32.8956 29.6758C32.4471 29.6334 31.9436 29.6423 31.383 29.6989C31.1168 29.6706 30.9619 29.6075 30.9199 29.5086L30.9428 28.9983C30.9848 28.7722 30.9223 28.6731 30.7541 28.7013C30.1374 28.8568 29.7651 29.0129 29.639 29.1684C29.4568 29.3662 29.4628 29.5794 29.6592 29.8055C29.8133 29.9468 29.8908 30.1091 29.8908 30.2928C29.8067 31.2254 29.7292 31.8532 29.6592 32.1782C28.6361 32.9979 27.9421 33.4995 27.5777 33.6832C27.2834 33.7821 26.625 33.74 25.602 33.5563C25.3777 33.3585 25.2169 33.0191 25.1188 32.5386C25.4692 32.3267 25.8415 32.0714 26.2339 31.7746C26.5001 31.7322 26.7236 31.6797 26.9058 31.6161C27.0879 31.5525 27.1803 31.3797 27.1803 31.0971C27.3624 31.0265 27.4936 30.8703 27.5777 30.6301L28.7986 29.1482C29.191 28.8091 29.617 28.6108 30.0795 28.5543C30.64 28.5119 31.3698 28.1935 32.2668 27.6C32.4069 27.4446 32.4069 27.2253 32.2668 26.9427C32.533 26.7873 32.9679 26.3487 33.5706 25.628C33.8088 25.2889 33.8653 24.9135 33.7392 24.5037C34.2998 23.8254 34.6126 23.2906 34.6828 22.8949C34.7388 22.5417 34.7328 22.1602 34.6626 21.7504C34.9288 21.5808 35.115 21.4352 35.2201 21.315C35.3252 21.1949 35.3774 21.0283 35.3774 20.8163C35.3774 20.6043 35.2999 20.4271 35.1458 20.2858C35.5522 19.7064 35.6028 19.1838 35.2945 18.7174C35.4066 17.9544 35.3293 17.4738 35.0629 17.2759C34.7826 17.0781 34.4371 17.1441 34.0307 17.4691C33.7924 17.3419 33.4707 17.4621 33.0643 17.8295C33.1344 17.6458 33.1432 17.4807 33.0872 17.3394C33.4516 17.1698 33.6855 16.985 33.7906 16.7801C33.8957 16.5752 33.9478 16.2523 33.9479 15.8142C33.9899 15.5458 34.2342 15.0652 34.6827 14.3727C34.991 13.6803 34.7735 13.44 34.0308 13.652C34.4372 13.2846 34.6426 12.9662 34.6427 12.6977C34.6708 12.4434 34.5635 12.1189 34.3253 11.7232C34.2272 11.4972 34.0811 11.4551 33.885 11.5964C33.955 11.4551 33.9923 11.2868 33.9994 11.089C34.0065 10.8912 33.8767 10.4737 33.6105 9.83775C33.5684 9.00404 33.3747 8.6557 33.0243 8.79699C32.9683 8.35894 32.8283 7.94434 32.6041 7.54864C32.2677 7.03995 31.9997 6.90482 31.8035 7.14501C31.2569 6.32544 30.7446 5.98603 30.2681 6.12731C30.2543 5.77406 30.1349 5.45568 29.9107 5.17302C29.7845 4.63608 29.6325 4.26354 29.4504 4.05154C29.1981 3.95265 29.0224 4.09383 28.9243 4.47534C28.8822 4.16449 28.7839 3.83718 28.6298 3.498C28.4756 3.15888 28.2313 2.98458 27.895 2.9704C27.7688 2.95632 27.6497 2.97734 27.5376 3.03383C27.3133 2.89256 27.1228 2.82052 26.9686 2.82049C26.4921 2.3118 26.0572 2.26974 25.6648 2.69364L25.6019 2.24965C25.4618 1.72683 25.1817 1.61274 24.7613 1.90945C24.0746 1.1888 23.4877 0.714261 22.9972 0.488135C22.5908 0.34686 22.3227 0.382864 22.1966 0.594795C21.9864 0.382864 21.7629 0.247741 21.5247 0.191173C21.2865 0.134686 21.063 0.0715929 20.8528 0.000897454C20.8327 -0.000299151 20.8145 -0.000391967 20.7956 0.000804638ZM20.9043 0.36407C21.0645 0.359802 21.3907 0.478716 21.8822 0.721559L22.3025 0.975264C22.4145 0.763334 22.6023 0.700245 22.8686 0.784989C23.1909 0.940467 23.4946 1.12818 23.7749 1.34718C24.0552 1.56624 24.3681 1.88016 24.7184 2.28992C25.0127 2.09212 25.2242 2.1342 25.3503 2.41677L25.4132 2.92707C25.1049 2.63035 24.7266 2.60931 24.2781 2.86365L23.9836 2.7368C23.5772 2.24224 23.3329 1.86681 23.2488 1.61242C23.1647 1.28743 23.123 1.26035 23.123 1.52881C23.1369 1.81147 23.3039 2.17191 23.6262 2.60994C23.0096 2.41214 22.5583 2.15686 22.271 1.84594C21.9837 1.53509 21.7618 1.27376 21.6077 1.06176C21.4535 0.807433 21.3909 0.807433 21.4189 1.06176C21.5871 1.37268 21.8194 1.66109 22.1137 1.92955C21.8895 1.83067 21.678 1.73155 21.4818 1.63259C20.9913 1.42066 20.5861 1.30945 20.2638 1.29528C20.1096 1.29532 20.1008 1.32241 20.2409 1.37889C20.7875 1.52024 21.185 1.6509 21.4303 1.77098C21.6755 1.89113 21.8409 2.00077 21.925 2.09964C21.5326 2.26926 21.1245 2.34733 20.7041 2.33317C20.4378 2.31905 20.3186 2.32516 20.3467 2.35336C20.3748 2.38164 20.4581 2.41163 20.5983 2.43985C21.1028 2.49641 21.6151 2.43865 22.1337 2.26975C22.512 2.46762 22.9529 2.65692 23.4575 2.84059C23.1491 2.91128 22.8483 3.05535 22.554 3.26728C22.4419 3.40862 22.4984 3.41467 22.7227 3.28746C22.9469 3.11792 23.2835 3.01276 23.732 2.97032L24.0894 3.11737C24.0613 3.49894 24.1508 3.88646 24.361 4.2821L24.1322 4.3686L23.4174 4.13507L23.4575 3.64784L23.06 3.73144C22.6816 3.85866 22.3033 3.74744 21.925 3.39414C21.6727 3.43657 21.5655 3.33745 21.6076 3.09718C21.7057 2.88525 21.6788 2.77115 21.5247 2.75698L20.9157 2.82041C20.5233 2.76392 20.2641 2.64983 20.138 2.48022C20.0539 2.33894 20.1075 2.16463 20.3038 1.95263C19.9254 1.79722 19.6915 1.62607 19.6004 1.44233C19.5093 1.25866 19.566 1.11143 19.7691 0.998347C19.9723 0.885331 20.3462 0.864303 20.8928 0.934914C20.7666 0.779511 20.7338 0.617296 20.7899 0.447693C20.7942 0.394708 20.8315 0.365996 20.9043 0.36407ZM14.8829 0.635074C14.9323 0.633877 14.9814 0.63627 15.0287 0.637866C15.2109 0.680289 15.2586 0.785458 15.1745 0.954997L14.7142 1.56908C14.3077 1.62563 13.7493 1.85989 13.0416 2.26965C12.3338 2.67948 11.5756 3.22318 10.7628 3.90144L10.4683 4.09172C10.3141 3.9787 10.0312 4.02971 9.62485 4.24163C10.9141 3.15357 12.0371 2.32752 12.9901 1.76224C13.6067 1.45139 13.9642 1.23212 14.0623 1.10491C13.7539 1.18973 13.319 1.3835 12.7585 1.68728C12.1979 1.99114 11.2715 2.62341 9.98225 3.5843L8.74419 4.7058C9.44491 3.74492 10.1763 2.94882 10.94 2.31289C11.7038 1.67703 12.6169 1.18146 13.682 0.828146C14.1357 0.704529 14.5365 0.639728 14.8829 0.635074ZM15.1602 1.71909C15.3599 1.71909 15.5334 1.74621 15.6806 1.8027C15.6806 2.07122 15.5197 2.36856 15.1974 2.69354C14.7069 3.14578 14.0947 3.56327 13.3589 3.94477C12.6232 4.32635 11.6655 4.77697 10.4883 5.29979V5.17294C11.9177 4.09901 13.2433 3.22484 14.4626 2.54652C14.7849 2.34871 14.7552 2.29166 14.3768 2.37642C13.9563 2.58842 13.4946 2.84974 12.9901 3.16059C12.1492 3.71174 11.33 4.25543 10.5312 4.79238L10.5514 4.53867C12.149 3.1256 13.4597 2.21254 14.4827 1.8027C14.735 1.74619 14.9605 1.71909 15.1602 1.71909ZM8.74708 2.41677C8.75381 2.41672 8.75895 2.41478 8.76409 2.41677C8.83415 2.47334 8.85499 2.56641 8.82699 2.69354L7.79767 5.36322C7.12496 6.67745 6.24031 8.05007 5.14723 9.47729C4.68473 9.98604 4.39869 10.3105 4.28659 10.4517C4.17448 10.5931 4.0822 10.7282 4.01214 10.8554L4.0979 10.495L4.49818 9.85785C5.05874 8.93935 5.72908 7.63875 6.51389 5.95712C6.75214 5.46256 7.1036 4.90389 7.5661 4.28209C7.70622 3.95711 7.62876 3.96604 7.3345 4.30519C6.64779 5.16721 5.84941 6.53091 4.93849 8.39619L5.33877 7.37848C5.40886 7.15241 5.63228 6.64027 6.01068 5.84183C6.38909 5.04345 6.7614 4.41117 7.12576 3.9448C7.49012 3.47851 7.74043 3.17512 7.88058 3.03377C8.35357 2.62312 8.6436 2.41763 8.74708 2.41677ZM26.1881 2.73103C26.2954 2.72549 26.4101 2.75416 26.5283 2.8204C26.1219 2.82044 25.8836 2.99763 25.8135 3.35087C25.7714 3.577 25.7714 3.85332 25.8135 4.1783C25.6733 3.98049 25.5036 3.80935 25.3074 3.66801C24.929 3.4702 24.8604 3.49124 25.0987 3.73143C25.337 3.97169 25.5455 4.22093 25.7277 4.47525C25.4194 4.72964 25.0828 4.84086 24.7184 4.81257C24.5923 4.86912 24.6131 4.90514 24.7813 4.91923C24.9495 4.96166 25.1461 4.94667 25.3703 4.87599C25.3423 5.10212 25.3779 5.33032 25.4762 5.55638C25.2799 5.58466 25.0476 5.55439 24.7813 5.4699C24.473 5.30035 24.3121 5.03298 24.2981 4.66552L24.6784 4.51561C24.8466 4.31781 24.8483 4.17058 24.6871 4.07163C24.5259 3.97275 24.4381 3.71142 24.4241 3.28745C24.5782 2.94834 24.9594 2.94834 25.562 3.28745C25.7451 2.92802 25.952 2.74318 26.1881 2.73103ZM26.5626 3.18943C26.8921 3.17706 27.2188 3.29388 27.5376 3.54115C27.5514 3.34336 27.6812 3.28472 27.9264 3.3624C28.1717 3.44016 28.3995 3.9644 28.6098 4.93942L28.9443 5.06627C29.0564 4.79781 29.1487 4.66556 29.2188 4.66552C29.3309 4.66556 29.4412 4.89693 29.5533 5.36322C29.8336 5.61762 29.9676 6.0351 29.9536 6.61445C29.7714 6.85471 29.6731 7.15205 29.6591 7.50531L29.4904 7.12475C29.3923 6.70084 29.3506 6.25338 29.3646 5.78703C29.3504 5.58922 29.3298 5.58922 29.3017 5.78703C29.2596 6.19686 29.2537 6.5452 29.2815 6.82779C28.9031 6.33323 28.4951 5.88866 28.0607 5.49296C27.9766 5.1821 27.9497 4.82771 27.9777 4.43201C27.9357 4.09289 27.9 4.01481 27.872 4.19848C27.8439 4.62245 27.8589 5.01891 27.9148 5.38628C27.5925 5.0613 27.2142 4.58676 26.7798 3.96496C26.6676 3.76715 26.617 3.72509 26.6311 3.83811C26.8973 4.34685 27.1802 4.7704 27.4745 5.10951C27.7688 5.44869 28.0071 5.71896 28.1893 5.91676C27.8249 5.80374 27.5092 5.72724 27.2429 5.69188C26.9766 5.65659 26.7295 5.58297 26.5053 5.4699C26.295 5.42753 26.3039 5.47855 26.5282 5.61981C26.6543 5.70463 26.9091 5.77983 27.2945 5.85045C27.6798 5.92114 28.0417 6.04129 28.3781 6.21083C28.5603 6.3239 28.8046 6.6152 29.1129 7.08149L29.3645 7.65233C28.9721 7.4404 28.5372 7.29317 28.0607 7.20835C27.5842 7.1236 27.3042 7.04552 27.2201 6.97483C26.8557 6.81941 26.814 6.83439 27.0944 7.01807C27.1784 7.10289 27.4777 7.19754 27.9893 7.30349C28.5008 7.4095 28.9938 7.6122 29.4703 7.90893L29.5132 8.03578C29.4151 8.14886 29.3794 8.30502 29.4074 8.50283L29.5532 8.92663C29.4271 8.77121 29.2542 8.84037 29.03 9.1371C29.1141 8.95341 29.0932 8.78515 28.9671 8.62968C28.7709 8.33296 28.2942 8.01458 27.5375 7.6754L27.4117 7.90893C26.7951 7.71112 26.4079 7.34174 26.2537 6.80473C26.2399 6.63519 26.3886 6.54054 26.6969 6.51931C27.0052 6.49813 27.0529 6.40955 26.8427 6.25407C26.4363 6.11279 26.0997 5.8725 25.8334 5.53332C25.6512 5.29312 25.6512 5.12485 25.8334 5.02591L26.148 4.93942L26.2966 4.74914L26.1079 4.0082C26.0518 3.62669 26.1561 3.35643 26.4224 3.20096C26.4697 3.19386 26.5156 3.19118 26.5626 3.18943ZM17.419 3.97361C17.6593 3.9677 17.8988 3.98493 18.1566 4.0111C18.2536 4.00316 18.2853 4.08474 18.3339 4.18119L18.4454 4.93077C18.4664 5.1088 18.4782 5.28607 18.7914 5.2998C19.1046 5.31352 19.6022 5.37403 19.8693 5.43242C20.1363 5.49082 20.3172 5.37837 20.4068 5.19024C20.4068 5.19024 20.6627 4.65607 20.7899 4.38877C20.8204 4.32511 20.8761 4.29611 20.9243 4.30516C21.4046 4.39528 21.7207 4.49964 22.1423 4.71743C22.1986 4.74651 22.2383 4.8176 22.2195 4.93943L22.0966 5.76685C22.0685 5.9576 22.1669 6.08578 22.3625 6.1647C22.7215 6.30957 22.946 6.43001 23.1831 6.57122C23.4054 6.70366 23.6955 6.83352 23.9436 6.56843L24.6155 5.85056H24.6555L24.5097 6.02065C24.4446 6.09666 24.4096 6.22798 24.4039 6.4041C24.4 6.51711 24.6152 6.65481 24.7957 6.68375C25.1482 6.74029 25.3796 6.72136 25.7049 6.70971L25.4447 7.48524L25.3703 7.69571C25.345 7.81583 25.2854 7.93595 25.4961 8.05608L25.7506 8.24636L26.128 8.60674L26.3396 8.79702C26.4696 8.92554 26.5466 9.12651 27.1459 8.79128C27.09 8.97521 27.0545 9.16052 27.0315 9.35058C27.0062 9.56132 27.0355 9.71607 27.1173 9.90124C26.9378 9.98952 26.8301 10.1015 26.7999 10.2616C26.7639 10.4525 26.7948 10.6308 26.8628 10.8123C26.9387 11.0144 27.0838 11.1818 27.2002 11.3629C27.046 11.4053 26.9985 11.4524 26.9257 11.5532C26.8373 11.6757 26.8572 11.9428 26.9115 12.1096C27.0304 12.4752 27.4021 12.4852 27.6835 12.6574C28.0505 12.882 28.4015 13.1135 28.6413 13.4704C28.773 13.6665 28.8721 13.863 29.0044 14.0585C29.0611 14.1423 29.2386 14.303 29.3247 14.3555C29.4219 14.4148 29.6163 14.5025 29.6163 14.5025C29.5515 14.6332 29.5128 14.752 29.4533 14.9581C29.4018 15.1365 29.3955 15.1886 29.3818 15.3732C29.3727 15.4933 29.3818 15.607 29.4247 15.7192C29.4548 15.7942 29.6191 15.9556 29.6191 15.9556C29.6639 16.2403 29.7197 16.5675 29.7506 16.8378C29.7633 16.9486 29.9124 17.14 30.0738 17.1607C30.3017 17.1899 30.4302 17.2032 30.8343 17.2731C30.9287 17.2894 31.0308 17.3877 31.0459 17.5989C31.0791 17.9029 31.0502 18.2688 31.0546 18.5734C31.0585 18.7095 31.0471 18.8177 30.8802 18.8472L30.1625 18.9741C29.9468 19.0003 29.8147 19.1153 29.7937 19.2451C29.7707 19.6505 29.7043 20.0472 29.6421 20.4473C29.6164 20.6135 29.6354 20.8015 29.848 20.9288C30.0294 21.0375 30.0683 21.0609 30.4885 21.2315C30.4628 21.3238 30.4715 21.4231 30.5027 21.5198C30.3476 21.462 30.2572 21.548 30.1882 21.6322C30.1346 21.4351 30.1041 21.3094 29.9852 21.2546C29.8456 21.1901 29.6957 21.2514 29.6392 21.2834C29.548 21.3355 29.3876 21.4737 29.3876 21.4737C29.3659 21.2935 29.3451 21.1126 29.3304 20.9317C29.3253 20.8092 29.3031 20.7094 29.4162 20.4243C29.4411 20.361 29.5171 20.2899 29.5535 20.1821C29.687 19.7599 29.6297 19.4367 29.6078 19.0173C29.5987 18.8465 29.5773 18.7161 29.5506 18.5532C29.5304 18.4296 29.5061 18.3091 29.4534 18.1957C29.4213 18.1267 29.3908 18.037 29.3447 17.9766C29.278 17.8892 29.2063 17.7898 29.1017 17.7575C28.938 17.7068 28.7722 17.7693 28.6528 17.8901C28.2824 17.5666 28.1923 17.584 28.061 17.6047C27.8927 17.6312 27.7602 17.777 27.6292 17.9218C27.6521 17.636 27.6375 17.3828 27.6205 17.0655C27.6039 16.7482 27.549 16.4237 27.469 16.0363L21.7306 18.2793L27.1573 14.3094H20.4726L26.4254 12.6574C25.8597 11.2745 24.7205 9.98095 23.6691 9.15743C22.6178 8.33391 21.2483 7.58201 19.2545 7.50546L19.5548 13.554L17.5505 7.50546L15.5376 13.5857L15.855 7.45645C14.1643 7.50035 12.3347 8.37444 11.2117 9.24392C10.0887 10.1134 9.05175 11.5921 8.62125 12.6574L14.6713 14.3094H7.93221L13.3732 18.285L7.68058 16.0276C7.57406 16.4359 7.52133 16.7039 7.48331 17.0655C6.875 17.4369 6.65736 18.2766 6.38825 19.2364C6.07785 19.6316 5.82559 19.9809 5.57053 20.3723C5.50313 19.9886 5.4629 19.6046 5.43327 19.2162C5.41942 19.1032 5.35989 19.0183 5.22457 18.9971L4.32393 18.8558C4.13093 18.8432 4.13524 18.6743 4.12951 18.5416C4.12476 18.1811 4.11487 17.7687 4.12081 17.3999C4.12081 17.3296 4.18774 17.2632 4.27231 17.2413C4.51119 17.1797 4.91305 17.1521 5.1701 17.0857C5.36207 17.036 5.3911 16.9741 5.43315 16.8752C5.45372 16.5024 5.50961 16.1349 5.59039 15.771C5.59039 15.771 5.71792 15.3994 5.58169 15.2895C5.39972 15.1426 5.13279 15.0416 5.13279 15.0416C5.43097 14.831 5.66602 14.6473 6.01056 14.3093C6.35514 13.9714 6.70107 13.5854 7.06274 13.0177C7.42445 12.45 7.92647 11.7419 8.23502 11.0573C8.54356 10.3726 8.95966 9.22013 8.88976 8.60671C9.08221 8.28458 9.13771 8.21719 9.3987 7.76197C9.6597 7.30676 10.0792 6.42797 10.3394 5.85054H10.5081L11.1228 6.55111C11.4047 6.87365 11.5723 6.81135 11.8462 6.64625C12.1401 6.46906 12.4234 6.32625 12.7239 6.20227C12.8484 6.15093 13.0205 6.04264 12.9784 5.7208L12.8812 4.97987C12.8669 4.87158 12.9097 4.81888 13.027 4.76076C13.3326 4.60945 13.8751 4.39724 14.1107 4.34848C14.2165 4.32658 14.3067 4.3847 14.3394 4.45516L14.6882 5.20474C14.7819 5.41546 14.9502 5.51351 15.2429 5.44692C15.5358 5.38026 15.8505 5.32641 16.2465 5.29988C16.6424 5.27335 16.63 5.13399 16.6582 4.93085L16.7611 4.17262C16.7484 4.08988 16.8231 3.99059 16.9812 4.01117C17.1303 3.99063 17.2748 3.97715 17.419 3.97361ZM10.0337 4.50984C10.0634 4.50705 10.0899 4.50825 10.1109 4.51559C10.1669 4.65693 10.1789 4.8507 10.1509 5.09795C10.1228 5.34528 9.94115 5.86636 9.60484 6.65767L8.82715 8.18278C8.28055 8.25346 7.76223 8.50874 7.27172 8.94679C7.52398 8.50874 7.82928 8.00712 8.18668 7.44185C8.54403 6.87663 9.09965 6.02955 9.85642 4.89903C9.98253 4.68709 9.98696 4.63451 9.86789 4.74046C9.74874 4.84648 9.43146 5.25057 8.91294 5.95709C8.39439 6.66368 7.70032 7.76 6.83145 9.24373C6.5932 9.61117 6.0034 10.5214 5.06448 11.9768C4.99438 12.0475 4.78295 12.0896 4.43259 12.1037L3.74066 14.1622C3.79671 14.247 3.97247 14.217 4.26677 14.0757C4.12662 14.3442 3.91515 14.4943 3.63489 14.5225L3.46617 14.3928L3.38326 14.0757L3.40344 13.8854L3.57215 13.9056L4.30696 12.0201L3.86665 11.4694L3.97243 11.1523C4.11258 11.4491 4.24371 11.6113 4.36986 11.6395C4.56606 11.258 4.85051 10.7369 5.22187 10.0798C5.59328 9.42274 6.0326 8.75443 6.53711 8.07611L6.51416 7.9089C6.51416 7.81001 6.56472 7.80108 6.66286 7.8858L7.71215 6.36068L6.85155 7.86561C6.9917 8.02108 6.92912 8.12626 6.66286 8.18275C5.76594 9.38393 5.07785 10.5793 4.60138 11.7663L4.81297 11.8298C4.93908 11.8863 5.05823 11.8298 5.17037 11.6597L6.45127 9.37055L7.67216 7.08143C8.24672 6.04989 8.90507 5.24487 9.64784 4.66547C9.81599 4.57011 9.94435 4.5178 10.0337 4.50984ZM12.6527 4.72896V4.79238L12.7785 5.81009C12.7923 5.90903 12.7595 5.97818 12.6756 6.02055C12.3252 6.1619 11.9677 6.33909 11.6034 6.55102C11.5333 6.5793 11.4679 6.57328 11.4118 6.53084L10.7628 5.78702L10.5712 5.61981L10.7828 5.53332C11.4835 5.25073 12.1061 4.98335 12.6527 4.72896ZM25.0558 5.93694L25.6248 6.00037L25.9822 6.29731C25.8841 6.32559 25.8126 6.38872 25.7706 6.4876C24.9858 6.50175 24.6224 6.44471 24.6784 6.3175C24.6364 6.23275 24.7615 6.10655 25.0558 5.93694ZM4.3125 6.45877C4.35914 6.45414 4.39153 6.47787 4.41254 6.53085C4.46859 7.09612 4.46416 7.64427 4.40107 8.17417C4.33801 8.70411 4.20241 9.29145 3.99221 9.94145C3.44565 11.7785 3.11791 13.016 3.00581 13.6519C2.79556 14.4009 2.56329 15.377 2.31103 16.5782C2.19889 15.9988 2.2659 14.7779 2.51115 12.9196C2.7564 11.0614 3.06772 9.73818 3.44612 8.94681C3.62828 8.53704 3.62231 8.47393 3.42595 8.75653C2.57108 10.2262 2.07361 12.3949 1.93346 15.2635C1.90537 16.2668 1.95917 16.9922 2.09928 17.4373C2.23943 17.8824 2.40031 18.1393 2.58247 18.2099C2.68057 18.2665 2.78773 18.2604 2.89984 18.1898C2.98394 17.6528 3.0405 17.2159 3.06855 16.8837C3.09663 16.5517 3.13386 16.1642 3.18291 15.719C3.23196 15.2739 3.31981 14.9029 3.44596 14.6062L3.52887 14.6898C3.38872 15.3398 3.3157 15.7933 3.3087 16.0477C3.30158 16.3021 3.28536 16.5573 3.25724 16.8117C3.22915 17.0661 3.19948 17.5527 3.17148 18.2734C3.33963 17.694 3.52425 17.1414 3.72045 16.6185L4.36946 14.7128L5.21294 12.6976C5.6754 11.7932 6.31887 10.7629 7.14573 9.60413C7.63624 9.02478 8.07113 8.71245 8.44953 8.67003C8.54759 8.81137 8.54759 9.10266 8.44953 9.54071C8.35143 9.97879 8.18169 10.4384 7.94344 10.9188C7.03252 12.6145 6.15071 13.8431 5.29585 14.6062L6.74545 12.2334L7.44024 10.9592C7.70649 10.4787 7.7542 10.3104 7.58604 10.4517C6.17061 12.5997 5.32453 13.9484 5.04423 14.4995C4.76396 15.0506 4.48991 15.5672 4.22365 16.0477C3.95739 16.5282 3.78164 16.9036 3.69758 17.172C3.61349 17.4406 3.43773 17.9212 3.17148 18.6136C3.17148 18.7408 3.25775 19.1072 3.42595 19.7149C3.5941 20.3225 3.73568 20.6785 3.85482 20.7845C3.97393 20.8905 3.98437 21.0062 3.88607 21.1333C3.84402 21.2464 3.87381 21.4596 3.97183 21.7705C4.04193 22.1096 4.20277 22.5752 4.45506 23.1687L4.39217 23.3821C4.12587 22.7886 3.88758 22.1368 3.67737 21.4303C3.67733 21.1477 3.64612 20.9733 3.58299 20.9027C3.51993 20.832 3.45735 20.7014 3.3943 20.5106C3.33121 20.3198 3.23449 20.0346 3.10838 19.6601C2.98223 19.2856 2.8928 18.9507 2.83674 18.6539C2.45838 18.4844 2.18433 18.2004 2.01617 17.7977C1.84798 17.3949 1.69157 16.8678 1.54442 16.2178C1.39726 15.5678 1.33623 14.7898 1.36427 13.8854C1.43433 12.8115 1.58919 11.7662 1.82745 10.7487C2.1778 9.3356 2.89276 7.99294 3.97183 6.72112C4.12073 6.55333 4.23437 6.46649 4.3121 6.45876L4.3125 6.45877ZM30.4368 6.4876C30.4999 6.48046 30.5833 6.50156 30.6884 6.55103C30.8986 6.64999 31.2352 7.02541 31.6977 7.67541C31.9219 7.42108 32.1393 7.51127 32.3496 7.9493C32.6018 8.345 32.7001 8.81953 32.6441 9.37062C33.1626 9.08803 33.3443 9.27732 33.1902 9.94146C33.4144 10.4078 33.5528 10.7727 33.6019 11.0341C33.6509 11.2956 33.609 11.5403 33.4761 11.7664C33.3429 11.9925 33.2775 12.1653 33.2846 12.2854C33.2917 12.4055 33.3421 12.401 33.4332 12.2738C33.5243 12.1467 33.7105 12.0415 33.9908 11.9567C34.1729 12.3524 34.2503 12.6137 34.2224 12.7409C34.2223 12.8963 34.1256 13.0646 33.9365 13.2483C33.7472 13.432 33.6385 13.6513 33.6105 13.9056C33.6105 14.0328 33.6759 14.0988 33.8021 14.0988L34.1795 13.9921C34.3757 13.9639 34.3816 14.12 34.1997 14.4591C34.0034 14.8266 33.8619 15.136 33.7708 15.3904C33.6797 15.6448 33.6335 15.849 33.6335 16.0044C33.6197 16.3295 33.5629 16.5217 33.4649 16.5782C33.4929 16.1684 33.4823 15.7404 33.4336 15.2952C33.3845 14.8501 33.2967 14.353 33.1706 13.8018C33.2826 13.7029 33.4375 13.3696 33.6337 12.8043C33.7318 12.5217 33.7109 12.4857 33.5708 12.6976C33.4166 13.1216 33.2618 13.3829 33.1077 13.4818C32.9535 12.959 32.7866 12.3251 32.6045 11.5761C32.8146 11.2229 32.9458 10.7754 33.0018 10.2384C33.0157 9.78625 32.9888 9.75311 32.9189 10.1346C32.8348 10.6716 32.68 11.0862 32.4558 11.383C32.2735 10.7895 32.077 10.2337 31.8668 9.71082C31.9368 9.4141 31.9665 9.06575 31.9526 8.67005C31.9387 8.27441 31.9028 8.26231 31.8467 8.62969C31.8467 8.92647 31.8111 9.17887 31.741 9.39081L31.2778 8.20588L30.9833 7.5255C30.8851 7.29943 30.8523 7.29943 30.8804 7.5255L31.152 8.41635C30.9417 8.17615 30.7451 7.99895 30.563 7.88588C30.3808 7.77285 30.3479 7.78178 30.4601 7.90897C30.7683 8.17749 31.0335 8.46589 31.2578 8.77676C31.4399 9.22898 31.6217 9.69459 31.8039 10.175C31.2713 9.72285 30.899 9.47046 30.6888 9.41391C30.4225 9.31502 30.4225 9.36313 30.6888 9.56094C31.0671 9.80119 31.5169 10.2247 32.0355 10.8324C32.2036 11.327 32.3645 11.8076 32.5187 12.2739C32.2524 12.1184 31.9306 11.809 31.5522 11.3426C31.384 11.1731 31.3781 11.2002 31.5321 11.4263C31.8404 11.8926 32.1978 12.304 32.6043 12.6573L32.9188 13.9489C32.5964 13.6239 32.1764 13.2934 31.6579 12.9543C31.4336 12.813 31.4188 12.8401 31.615 13.0379C32.0634 13.3629 32.534 13.8435 33.0246 14.4794C33.1647 14.8751 33.2272 15.602 33.2133 16.6618C33.1994 16.9303 33.0026 17.1285 32.6243 17.2557L32.5385 18.2734L32.0153 18.2936C31.7349 17.8979 31.5191 17.5901 31.372 17.371C31.2248 17.152 31.0162 16.8171 30.7429 16.3649C30.4696 15.9127 30.2686 15.5462 30.1425 15.2635C30.0164 14.9809 29.9955 14.6897 30.0796 14.3929C30.1637 14.0961 30.2351 13.8708 30.2912 13.7154C30.3472 13.5599 30.3383 13.5329 30.2683 13.6318C30.1001 13.9285 29.9809 14.2169 29.9109 14.4995L29.4906 13.2916C29.5326 12.8111 29.7857 12.1954 30.2482 11.4464C30.3883 11.1921 30.3735 11.1711 30.2054 11.383C29.7849 11.9483 29.5137 12.5219 29.3876 13.1013L28.7357 11.6396C28.7219 11.3711 28.8885 10.8606 29.2389 10.1116C29.4211 9.71596 29.3794 9.73094 29.1131 10.1548C28.8889 10.5788 28.728 10.9753 28.63 11.3426C28.4337 10.5372 28.2431 9.85233 28.061 9.28706L27.9152 9.2438L27.9981 9.47733C28.1101 10.1839 28.265 10.7968 28.4612 11.3196C28.195 11.0794 27.8941 10.884 27.5578 10.7286C27.3755 10.6297 27.3755 10.6507 27.5578 10.792C27.9641 11.0322 28.271 11.2725 28.4813 11.5127C28.6494 11.9084 28.8043 12.2689 28.9444 12.5939C28.6922 12.4102 28.2661 12.197 27.6635 11.9567C27.4393 11.9144 27.4393 11.9415 27.6635 12.0403C28.4203 12.3512 28.888 12.6575 29.0703 12.9543L29.4906 14.0757C29.3364 14.0758 29.1338 13.8444 28.8815 13.3781C28.6713 12.9824 28.147 12.6009 27.3061 12.2335C27.1379 12.1629 27.0605 12.0127 27.0745 11.7866C27.1026 11.6312 27.2634 11.5681 27.5578 11.5963C27.4736 11.3562 27.3753 11.164 27.2633 11.0226L27.0946 10.7689C26.8703 10.3026 27.0043 10.0713 27.4949 10.0712C27.3126 9.78863 27.2501 9.56938 27.3061 9.41391C27.2923 9.14544 27.3547 8.88412 27.4949 8.62973C27.5789 8.46018 27.6415 8.28903 27.6836 8.11943C27.9498 8.2749 28.1925 8.40557 28.4098 8.51152C28.627 8.61753 28.7417 8.8113 28.7558 9.09389L28.65 9.75122C28.692 9.87843 28.8051 9.83636 28.9874 9.62436C29.1695 9.37003 29.3155 9.2228 29.4277 9.18038C29.5818 9.25107 29.7306 9.37726 29.8708 9.56094C30.0109 9.82946 29.9604 10.325 29.7222 11.0457L29.4906 11.6396C29.967 11.0037 30.3542 10.7003 30.6485 10.7286C30.7466 10.7992 30.7779 10.942 30.7429 11.161C30.7077 11.3801 30.7077 11.6099 30.7429 11.8501C30.7777 12.0903 30.696 12.2946 30.4999 12.4641C30.3036 12.6337 30.1724 12.91 30.1024 13.2916C30.5508 12.9524 30.7326 13.0155 30.6485 13.4818L30.3969 14.3929C30.3268 14.831 30.3969 15.0381 30.6056 15.0098C30.8158 14.9816 30.9454 15.0086 30.9945 15.0935C31.0435 15.1783 31.0539 15.3255 31.0257 15.5374C30.8996 15.8342 30.843 16.0309 30.8571 16.1227C30.8709 16.2146 30.9112 16.2926 30.9743 16.3562C31.0373 16.4198 31.1729 16.4048 31.3831 16.313C31.5933 16.2211 31.6976 16.2842 31.6976 16.5032C31.6976 16.7223 31.702 16.9355 31.7091 17.1404C31.7162 17.3453 31.7831 17.5451 31.9093 17.7429C32.0073 17.8843 32.1325 17.9773 32.2867 18.0197L32.4754 17.7862C32.195 17.8003 32.0655 17.6171 32.0865 17.2355C32.1075 16.854 32.1059 16.5567 32.0778 16.3447C31.9657 16.0762 31.8525 15.9261 31.7404 15.8978C31.6283 15.8696 31.3691 15.1637 30.9628 13.7788L31.4031 13.8019C31.7253 14.9889 31.9845 15.6273 32.1808 15.7191C32.3769 15.811 32.4692 15.9161 32.4552 16.0362C32.4414 16.1564 32.477 16.4161 32.561 16.8118C32.8132 16.7411 32.9593 16.5069 33.0013 16.1112C33.0714 15.7438 32.9669 15.4614 32.6868 15.2636C32.3925 15.094 32.2228 14.9379 32.1808 14.7965C32.0966 14.5563 32.1891 14.4091 32.4552 14.3525C32.6094 14.2678 32.237 13.9284 31.3402 13.3348C30.8777 13.0098 30.7376 12.7185 30.9199 12.4642C30.9899 12.337 31.1195 12.3415 31.3087 12.4757C31.4979 12.61 31.6215 12.6415 31.6776 12.5708C31.7756 12.373 31.6981 12.2363 31.4459 12.1586C31.1936 12.0809 31.0745 11.9923 31.0885 11.8933C31.0747 11.4553 31.0834 11.1579 31.1115 11.0025C31.1396 10.8471 31.1245 10.6638 31.0686 10.4518C30.9144 10.2257 30.6195 10.2407 30.1851 10.4951C30.2832 10.2549 30.3085 10.0206 30.2595 9.79449C30.2104 9.56842 30.1016 9.34916 29.9335 9.13717L29.7219 8.47984C29.6658 8.25376 29.7938 8.0976 30.1022 8.01279C30.0041 7.57475 30.0041 7.26531 30.1022 7.08157C30.2003 6.88376 30.2688 6.72156 30.3109 6.59434C30.3319 6.53077 30.3738 6.49467 30.4368 6.4876ZM25.8535 7.06133C25.9096 7.18854 26.0629 7.38389 26.3082 7.65234C26.5534 7.92087 26.8707 8.13408 27.2631 8.28949L26.737 8.73348C26.6529 8.7759 26.5755 8.76379 26.5054 8.69311C26.2531 8.42465 25.9523 8.16332 25.6019 7.90894C25.5319 7.8807 25.5198 7.82365 25.5619 7.73883L25.8535 7.06133ZM15.6377 7.67253L15.2946 14.3092L8.89573 12.5967C9.30333 11.6568 10.3816 10.1003 11.3318 9.40234C12.2819 8.70435 14.2233 7.76204 15.6377 7.67253ZM19.4633 7.69563C21.1977 7.7593 22.5794 8.532 23.5891 9.31011C24.7187 10.2632 25.6713 11.4049 26.2052 12.5881L19.8092 14.2977L19.4633 7.69563ZM17.5505 8.99009L19.4633 14.7763H25.7077L20.5784 18.5069L22.4911 24.5036L17.5505 20.7326L12.6127 24.5036L14.5255 18.5069L9.39609 14.7763H15.6377L17.5505 8.99009ZM3.82357 11.8299L3.99224 12.0403L3.42614 13.5683C3.52425 12.9324 3.65538 12.3527 3.82357 11.8299ZM5.06444 12.2739C4.77013 12.825 4.54668 13.3206 4.39252 13.7586L4.22385 13.7384L4.66416 12.3603L5.06444 12.2739ZM4.11804 14.586L3.69774 15.7306L3.40324 16.7252L3.50906 15.8776L3.65486 15.2635L3.78354 14.6495L4.11804 14.586ZM29.8078 14.9868C29.8638 15.2553 29.9741 15.5106 30.1423 15.7508C30.0722 15.7508 29.9932 15.7342 29.9022 15.6989C29.811 15.6636 29.75 15.6065 29.722 15.5288C29.6939 15.4511 29.726 15.2694 29.8078 14.9868ZM2.98295 15.1367C2.8428 16.2672 2.72365 17.1503 2.62555 17.7862L2.54264 17.6161C2.45854 17.4889 2.60458 16.6629 2.98295 15.1367ZM4.93865 15.2203L5.31606 15.3904C5.40012 15.4328 5.42101 15.5048 5.37896 15.6037C5.29486 15.9853 5.24715 16.3789 5.23315 16.7887C5.23311 16.8735 5.19142 16.9245 5.10732 16.9386L4.11804 17.0856C4.00593 17.1139 3.94936 17.1859 3.94936 17.2989C3.92128 17.7936 3.92128 18.2862 3.94936 18.7808C3.94936 18.9221 4.01479 19.0002 4.14094 19.0143L5.10732 19.1643C5.19142 19.1784 5.23311 19.2265 5.23315 19.3113C5.26124 19.7352 5.30886 20.1317 5.37896 20.4991C5.3928 20.598 5.35997 20.6672 5.27603 20.7096L4.36966 21.1564C4.24351 21.1988 4.20182 21.2979 4.24387 21.4534C4.34197 21.9056 4.47595 22.3231 4.64414 22.7046L4.62397 22.7882C4.49782 22.5904 4.37868 22.3036 4.26657 21.9291C4.15447 21.5546 4.11875 21.3038 4.1608 21.1766C4.2729 20.9788 4.23718 20.7955 4.05498 20.6259C3.91483 20.4847 3.73311 19.8479 3.5089 18.7174C3.52274 18.4207 3.64205 17.9761 3.86629 17.3826C4.0905 16.7891 4.44814 16.0682 4.93865 15.2203ZM32.2238 15.2434L32.5612 15.5807C32.3369 15.5101 32.2238 15.3989 32.2238 15.2434ZM29.8307 15.9843L30.2452 16.0593C30.4552 16.4126 30.6323 16.6982 30.88 17.0655L30.0594 16.9386C29.9848 16.927 29.9478 16.8533 29.9336 16.7685C29.9027 16.5846 29.8493 16.0636 29.8307 15.9843ZM27.2974 16.3418C27.3737 16.81 27.4004 17.1784 27.3889 17.6161C27.3747 18.1537 27.3301 18.6834 27.2546 19.2133C27.0486 19.1111 26.858 19.0834 26.697 19.2681C26.6377 19.3361 26.5972 19.4448 26.6112 19.6285L26.6541 19.8216C26.6961 19.963 26.7438 20.0831 26.7999 20.182C26.8439 20.2588 26.8867 20.3361 26.9257 20.4155C26.667 21.1857 26.3928 21.8988 26.128 22.3846C25.7127 23.1468 25.3233 23.6868 24.7413 24.3134L21.1244 18.7174L27.2974 16.3418ZM7.82069 16.3505L13.9765 18.7174L10.3625 24.3134C9.48624 23.5086 8.86045 22.4621 8.46686 21.4332C8.61255 20.8138 8.70721 20.4549 8.78422 19.4843C8.80242 19.255 8.75218 19.0389 8.69847 18.9394C8.61781 18.7899 8.5029 18.7904 8.44684 18.8328C8.50915 18.7374 8.54487 18.6517 8.59554 18.5272C8.66963 18.3451 8.66559 18.2233 8.59554 18.1668C8.46757 18.0803 8.23952 18.1063 7.84929 18.3196C7.79202 18.0133 7.75618 17.7538 7.66057 17.4576C7.67718 17.0498 7.72208 16.7049 7.82069 16.3505ZM7.44043 17.4691C7.59459 17.8789 7.71971 18.6374 7.81785 19.7467C7.91591 20.856 7.91591 21.8548 7.81785 22.745C7.72505 23.89 7.4269 24.6551 6.97722 25.628C6.97722 24.7519 6.9875 24.04 7.00887 23.4888C7.02983 22.9377 7.05076 22.2063 7.07176 21.2949C7.09273 20.3834 7.1538 19.3486 7.2519 18.1898C7.30796 17.9072 7.29308 17.8413 7.20902 17.9967C6.98478 19.1697 6.85076 20.6745 6.80875 22.5115L6.78857 23.7195L6.74565 25.3743L6.47405 25.0572C6.27785 24.068 6.19154 23.0288 6.21958 21.9406C6.26163 21.1352 6.38964 20.2671 6.59985 19.3344C6.89415 18.1615 7.17413 17.5398 7.44043 17.4691ZM34.3854 17.6882C34.5083 17.6785 34.6213 17.712 34.7256 17.7862C34.8517 17.9982 34.9083 18.207 34.8943 18.4118C34.8804 18.6168 34.8088 18.8465 34.6827 19.1009C34.9489 19.1009 35.089 19.2061 35.103 19.418C34.9908 19.8985 34.7674 20.2439 34.4311 20.4559C34.7393 20.5124 34.9047 20.6115 34.9257 20.7528C34.9467 20.8942 34.9155 21.0099 34.8314 21.1017C34.7473 21.1936 34.5864 21.2761 34.3482 21.3467L34.1166 20.9229C34.1304 20.5838 34.0174 20.2594 33.7792 19.9485C33.8772 19.8637 34.0321 19.7796 34.2424 19.6948C34.3965 19.6241 34.3696 19.6002 34.1595 19.6285C33.9352 19.6709 33.7595 19.7279 33.6334 19.7986H33.5905C33.7166 19.3464 33.9192 18.9168 34.1995 18.507C34.2695 18.3233 34.228 18.3293 34.0737 18.5272C33.8354 18.8663 33.6268 19.2268 33.4447 19.6083C33.3605 19.5235 33.2951 19.3674 33.2531 19.1412C33.197 18.8728 33.1553 18.8667 33.1273 19.121C33.1693 19.4461 33.2319 19.6803 33.316 19.8216C33.0077 20.3021 32.7634 20.4914 32.5812 20.3925C32.6933 19.7142 32.8422 19.0022 33.0244 18.2533C33.3467 17.9283 33.6267 17.8202 33.865 17.9332C34.0541 17.7822 34.2272 17.7006 34.3854 17.6882ZM28.1695 17.9188C28.1825 17.9172 28.1964 17.9176 28.2095 17.9188C28.2439 17.922 28.2802 17.9351 28.3153 17.9563C28.4554 18.0411 28.5448 18.1313 28.5869 18.2302C28.6289 18.3291 28.6915 18.3126 28.7756 18.1783C28.8597 18.0441 28.9311 17.9976 28.9872 18.0399C29.0432 18.0823 29.1014 18.1665 29.1645 18.2936C29.2275 18.4208 29.2737 18.556 29.3017 18.6973C29.3298 18.8386 29.355 19.0955 29.376 19.4699C29.397 19.8444 29.3507 20.0952 29.2388 20.2224C29.1267 20.3496 29.0645 20.5058 29.0701 20.6894C29.0927 21.4245 29.1547 21.7892 29.2388 21.7821C29.3229 21.7751 29.4256 21.718 29.5448 21.612C29.6638 21.506 29.7681 21.4655 29.8593 21.4938C29.9503 21.5221 30.0025 21.7292 30.0165 22.1107C30.0304 22.4923 30.0662 22.5299 30.1223 22.2261C30.1783 21.9223 30.2826 21.7706 30.4368 21.7706C30.5909 21.7706 30.6207 22.1791 30.5226 22.9987C29.976 23.4933 29.5828 23.9048 29.3446 24.2298C29.2605 23.8765 29.2561 23.6302 29.3331 23.4888C29.4102 23.3475 29.4816 23.1869 29.5447 23.0103C29.6077 22.8336 29.6599 22.6759 29.702 22.5346C29.8141 22.1954 29.7932 22.1655 29.6391 22.4481C29.555 22.6177 29.4819 22.7678 29.4189 22.8949C29.3558 23.0221 29.28 23.1483 29.1959 23.2755C29.1678 23.0494 29.0784 22.6469 28.9243 22.0675C28.7981 21.6718 28.7624 21.6779 28.8185 22.0877C28.9306 22.7519 29.008 23.3947 29.0501 24.0164C28.8118 23.7621 28.569 23.5428 28.3238 23.3591C28.0786 23.1754 27.8656 22.9801 27.6834 22.7681C27.5292 22.6692 27.5023 22.6813 27.6005 22.8084C27.7686 23.0346 28.0173 23.3004 28.3467 23.6042C28.676 23.908 28.8742 24.1107 28.9443 24.2096C29.0143 24.3085 29.056 24.3927 29.0701 24.4633C28.9439 24.6329 28.7979 24.8101 28.6298 24.9938C28.5317 24.9373 28.4751 24.8397 28.4611 24.7055C28.4472 24.5712 28.4009 24.4721 28.3238 24.4085C28.2467 24.3449 28.0129 24.1512 27.6205 23.8262C27.2701 23.5153 27.1569 23.2329 27.2831 22.9785C27.185 22.8514 27.0971 22.7041 27.0201 22.5346C26.9429 22.365 26.9622 22.1983 27.0744 22.0358C27.1864 21.8733 27.4456 21.9469 27.8521 22.2578C27.9221 22.0176 27.9221 21.7923 27.8521 21.5803C27.782 21.3683 27.6985 21.1551 27.6005 20.9431C27.4182 20.604 27.2425 20.3156 27.0744 20.0753C26.9202 19.7504 26.8845 19.5671 26.9686 19.5247C27.0527 19.4823 27.1866 19.5393 27.3689 19.6948C27.7192 19.3133 27.9487 19.2036 28.0608 19.3661C28.1729 19.5286 28.2652 19.8005 28.3353 20.182C28.4053 20.5636 28.4113 20.9572 28.3554 21.3669L28.2725 21.4534L28.3554 21.537C28.3835 21.6218 28.3507 21.9402 28.2525 22.4913C28.2525 22.6044 28.2853 22.7185 28.3554 22.8315C28.3273 22.662 28.3214 22.5329 28.3353 22.4481C28.3491 22.3774 28.3954 22.2136 28.4725 21.9522C28.5496 21.6908 28.5868 21.5407 28.5869 21.5053C28.5868 21.47 28.5303 21.4445 28.4182 21.4304C28.5443 21.388 28.6262 21.3294 28.6612 21.2516C28.696 21.1739 28.7022 21.0958 28.6814 21.0181C28.6604 20.9404 28.6482 20.7167 28.6414 20.3492C28.6343 19.9818 28.5986 19.7039 28.5356 19.5132C28.4725 19.3224 28.4323 19.1752 28.4184 19.0692C28.4045 18.9632 28.3209 18.9017 28.1667 18.8875C28.0126 18.8734 27.7951 19.0296 27.5148 19.3546C27.641 18.747 27.7705 18.34 27.9037 18.1351C27.9911 18.0006 28.079 17.9285 28.1695 17.9188ZM0.815695 18.2475C0.830727 18.2475 0.845759 18.2495 0.861463 18.2532C0.945522 18.2532 1.13769 18.453 1.439 18.8557C1.7403 19.2585 2.14991 20.1626 2.66847 21.5687C3.18698 22.9747 3.50427 23.8983 3.62342 24.3363C3.74252 24.7744 3.86167 25.1559 3.98081 25.4809C4.09992 25.8059 4.24438 26.1364 4.41254 26.4755C4.66479 26.9843 4.91796 27.3326 5.17025 27.5163C5.50657 27.7566 5.75087 27.7986 5.90503 27.6432L5.33892 26.4755C5.24082 26.2636 5.09193 26.1855 4.89577 26.242C4.57342 26.2561 4.44225 26.0669 4.49834 25.6712C4.52642 25.4168 4.61578 24.9783 4.76994 24.3565C5.07824 23.3108 5.51915 22.2716 6.09375 21.24C6.02366 21.6922 5.99082 22.0737 5.99082 22.3845C5.47227 23.5574 5.09395 24.5036 4.85574 25.2243C4.72959 25.7472 4.7356 26.0025 4.87591 25.9883L5.04458 25.9047L4.91879 25.6078L5.0017 25.3742L5.25332 25.8182L5.40198 25.7144L5.52777 25.9047L5.40198 26.095L6.34838 27.4731L6.5771 27.2828L6.74581 27.4731C6.46551 27.7557 6.35522 27.9389 6.41128 28.0237C6.66353 28.4901 6.89296 28.8655 7.10321 29.1481C7.52362 29.7699 7.86622 29.9442 8.13248 29.6757C8.21658 29.6051 8.32374 29.62 8.44985 29.7189C8.576 29.8179 8.71599 30.0311 8.87018 30.3561L8.84724 29.8689L8.06955 29.125L7.6292 28.2342C7.26484 27.7113 7.00566 27.3088 6.85151 27.0262C6.69735 26.7436 6.50519 26.4071 6.27397 26.0114C6.04272 25.6157 5.75827 25.1683 5.42192 24.6737L5.48481 24.4401L6.15673 25.2676C6.75934 26.0448 7.18383 26.635 7.42908 27.0377C7.67429 27.4405 7.81876 27.5351 7.8608 27.3232L7.9866 26.9224L8.17532 27.0262L8.04953 27.8536L8.00661 28.1073C7.99277 28.3052 8.03272 28.4237 8.12386 28.4591C8.21492 28.4944 8.29395 28.6251 8.36401 28.8512C8.40606 28.9925 8.62794 29.2853 9.02734 29.7305C9.42675 30.1756 9.84681 30.5482 10.2883 30.852C10.7297 31.1558 11.0932 31.405 11.3805 31.5958C11.6677 31.7866 11.8062 31.9743 11.7922 32.158L12.1896 32.2416L12.0867 31.7342L12.3383 31.6707C12.4644 31.7555 12.5687 31.9088 12.6528 32.1349C13.0171 32.4175 13.3329 32.6457 13.5992 32.8153L12.6756 32.9825L11.0974 32.0311L9.64779 31.0538L9.37331 30.6934C9.28921 30.5945 9.17449 30.5735 9.02734 30.63C8.88019 30.6865 8.76547 30.6024 8.68138 30.3763C8.30301 30.6024 7.91583 30.5182 7.52342 30.1226L6.83149 29.275L6.17963 28.1506L5.94802 27.9805C5.59767 28.2066 5.1479 28.0533 4.60134 27.5163C4.40514 27.3326 3.98508 26.6028 3.34046 25.331C2.48556 23.6918 1.90466 22.4572 1.59635 21.6234C1.3721 20.931 1.2261 20.4925 1.15604 20.3088C1.08595 20.1251 1.05624 20.1206 1.07025 20.2972C1.08409 20.4739 1.18856 20.8704 1.38476 21.485C1.58097 22.0998 1.94726 22.9994 2.47982 24.1864C2.94228 25.1474 3.39806 26.0244 3.84652 26.8157C2.80945 25.6853 2.05881 24.625 1.59635 23.6358C1.13385 22.6607 0.824121 21.7566 0.669967 20.9229C0.599912 20.6261 0.558179 20.171 0.544175 19.5563C0.53033 18.9416 0.539034 18.5977 0.567119 18.5271C0.628433 18.3416 0.711463 18.249 0.815695 18.2475ZM8.32105 18.3282C8.44827 18.319 8.46203 18.4051 8.36393 18.5906L7.9665 19.1845C7.93842 18.9443 7.92275 18.7342 7.88074 18.5646C8.02085 18.4657 8.13486 18.3934 8.261 18.3368C8.28395 18.3316 8.30286 18.3295 8.32105 18.3282ZM31.2774 18.3369L31.6777 18.9942C31.6076 19.729 31.4825 20.3989 31.3003 21.0065C31.1181 20.8652 30.8798 20.8742 30.5855 21.0296L29.9336 20.7096C29.8495 20.6672 29.8101 20.5975 29.8278 20.4991C29.8942 20.131 29.9445 19.7973 29.9679 19.3719C29.9726 19.2861 30.0184 19.1796 30.1023 19.1643L31.0258 18.9971C31.1519 18.9688 31.2205 18.8847 31.2345 18.7434L31.2774 18.3369ZM32.4754 18.6338C32.2792 19.7078 32.0914 20.6119 31.9093 21.3467L31.6148 21.1766C31.867 20.1592 32.0219 19.3271 32.078 18.6771C32.162 18.6488 32.2932 18.6338 32.4754 18.6338ZM8.46401 19.0374C8.55732 19.0313 8.59479 19.1803 8.57552 19.4814C8.53347 20.1173 8.35428 21.2952 8.10946 22.0069C8.09562 21.2297 8.0794 20.786 8.04941 20.2858L8.23814 19.7582C8.25198 19.5745 8.21638 19.5656 8.13233 19.7351L8.0237 19.9311L7.98652 19.5448L8.30104 19.1412C8.3667 19.0749 8.42157 19.0402 8.46401 19.0374ZM6.32536 19.6515C6.1879 20.2405 6.1273 20.7294 6.09375 20.9431C5.4771 22.0171 5.00048 23.0863 4.66416 24.1461C4.58006 24.4712 4.51147 24.8587 4.45546 25.3109C4.41337 24.7315 4.50724 23.922 4.73849 22.8834C4.96974 21.8448 5.4985 20.7679 6.32536 19.6515ZM33.4247 20.2944C33.5455 20.2892 33.6427 20.499 33.7163 20.9229C33.6742 21.6719 33.856 22.0263 34.2624 21.9839C34.3324 22.0263 34.3429 22.2216 34.2941 22.5749C34.245 22.9282 34.1302 23.2345 33.9481 23.4888C33.3734 24.153 33.1352 24.5466 33.2333 24.6737C33.3874 24.9422 33.3605 25.2456 33.1504 25.5848C32.842 25.9663 32.434 26.3927 31.9295 26.8591C32.0696 27.1417 31.9655 27.382 31.615 27.5798C31.2085 27.8059 30.7588 28.0013 30.2683 28.1708C31.1792 27.4784 31.7421 26.7365 31.9524 25.9451C32.2466 25.6767 32.5058 25.5023 32.7301 25.4176C32.9263 25.2904 32.9591 25.2333 32.833 25.2474C32.5807 25.3464 32.3155 25.5025 32.0353 25.7145C32.3015 25.1775 32.4921 24.5978 32.6043 23.976C33.1508 23.4391 33.4934 23.0155 33.6336 22.7046C33.8297 22.4079 33.8357 22.3419 33.6537 22.5115C33.4435 22.8648 33.1217 23.2402 32.6873 23.6358C32.8835 23.0282 33.0592 22.3494 33.2134 21.6004C33.2834 21.1624 33.2626 21.0843 33.1505 21.3669L32.9389 22.1107C32.8408 21.814 32.7305 21.5858 32.6044 21.4303L32.8761 22.3212C32.82 22.6745 32.6859 23.1761 32.4758 23.8261C32.2795 23.2609 32.0204 22.7532 31.6981 22.301C31.4037 21.9336 31.356 21.9276 31.5522 22.2808C31.8745 22.7472 32.1397 23.36 32.3499 24.1231C32.1817 24.8014 31.9851 25.3661 31.761 25.8183C31.5928 25.5639 31.4199 25.3896 31.2378 25.2907C31.0976 25.22 31.0976 25.2621 31.2378 25.4175C31.4199 25.6013 31.5659 25.7845 31.6781 25.9682C31.5098 26.378 31.288 26.7385 31.0147 27.0493C30.7414 27.3602 30.4718 27.6216 30.2056 27.8335C30.5419 27.3107 30.655 26.731 30.5429 26.095C30.5429 25.982 30.6308 25.8889 30.806 25.8183C30.9811 25.7476 31.0393 25.6696 30.9833 25.5848C30.8291 25.2739 30.7545 25.0275 30.7545 24.8438C30.8666 24.7873 31.0335 24.7873 31.2577 24.8438C31.4399 24.7167 31.4235 24.5379 31.2063 24.3047C30.989 24.0716 30.8506 23.7337 30.7946 23.2956C30.7945 23.0413 30.9643 22.9511 31.3007 23.0217C31.4548 23.0077 31.4668 22.8244 31.3407 22.4711L30.9833 21.9839C30.731 21.4186 30.8382 21.2115 31.3007 21.3669L31.8467 21.7071C32.2111 21.8484 32.3868 21.6021 32.3728 20.9662C32.3728 20.8249 32.4815 20.7933 32.6988 20.871C32.916 20.9488 33.1141 20.7821 33.2963 20.3723C33.3419 20.3228 33.3844 20.2962 33.4247 20.2944ZM5.27603 20.8969C4.99407 21.4058 4.82104 21.7838 4.67559 22.3125C4.56681 22.0308 4.47516 21.714 4.4354 21.4649C4.42156 21.3943 4.43145 21.3133 4.49834 21.2833L5.27603 20.8969ZM17.5505 21.3496L21.7134 26.539C20.602 27.1766 18.9036 27.4995 17.5905 27.476C16.2774 27.4525 14.6453 27.1627 13.3675 26.539L17.5505 21.3496ZM27.6114 21.8233C27.4192 21.7623 27.2457 21.7208 27.0925 21.774C26.9671 21.8175 26.8329 21.9448 26.7999 22.0242C26.7532 22.1367 26.7226 22.2635 26.737 22.3846C26.7568 22.55 26.8109 22.7465 26.8824 22.8525C26.9018 22.8814 26.9686 22.9987 26.9686 22.9987C26.9171 23.2459 27.0011 23.4968 27.1573 23.6791C27.4165 23.9815 27.7552 24.254 28.0294 24.4777C27.9694 24.7199 27.9255 25.1145 27.915 25.331C27.9047 25.5475 27.936 25.6986 27.9579 25.8817C27.8362 26.092 27.7466 26.2392 27.6005 26.4352L27.1888 26.3949C27.1888 26.3949 26.979 26.2271 26.8686 26.1786C26.7436 26.1239 26.58 26.1145 26.4454 26.2277C26.1361 26.4877 25.793 26.7608 25.519 26.9859C25.3869 27.0784 25.2762 27.2091 25.3389 27.3607C25.4429 27.6123 25.6336 27.9997 25.742 28.2486C25.7717 28.3165 25.8018 28.4104 25.6991 28.4764C25.3189 28.7208 25.0131 28.9427 24.6498 29.1395C24.5443 29.1966 24.5027 29.1889 24.3868 29.0617C24.2089 28.8665 24.0627 28.6763 23.8807 28.4851C23.6837 28.2781 23.5267 28.3611 23.3632 28.4534C23.0288 28.6421 22.6427 28.8218 22.3025 28.9983C22.1483 29.0548 22.1028 29.2312 22.1137 29.301C22.1617 29.6062 22.1828 29.793 22.2195 30.0996C22.2441 30.304 22.1741 30.3479 22.088 30.3821C21.685 30.5423 21.4517 30.6292 21.0187 30.7367C20.8892 30.7689 20.8112 30.7473 20.767 30.6531C20.6205 30.3406 20.4865 30.0461 20.3468 29.7421C20.2741 29.584 20.1733 29.5679 20.0208 29.5951C19.6003 29.694 19.203 29.6982 18.8543 29.7421C18.6812 29.7639 18.5143 29.8184 18.4768 30.0996C18.4563 30.3519 18.4104 30.6041 18.3711 30.8434C18.3323 31.0804 18.2733 31.0527 18.0794 31.0683C17.6952 31.0991 17.3794 31.0911 17.033 31.0683C16.8204 31.0543 16.8097 31.0372 16.7728 30.8203C16.7224 30.5244 16.7023 30.3282 16.6641 30.0304C16.6258 29.8371 16.4519 29.756 16.2467 29.745C15.9385 29.7284 15.4883 29.6639 15.0058 29.5806C14.9073 29.5636 14.775 29.6712 14.7542 29.7421C14.6135 30.0455 14.4904 30.3576 14.3339 30.6531C14.2916 30.7329 14.1911 30.7673 14.0823 30.7367C13.7032 30.6303 13.3486 30.5164 12.9844 30.3792C12.8855 30.342 12.8791 30.284 12.8843 30.2293C12.9179 29.8739 12.9719 29.5253 13.0101 29.1885C13.0101 29.1038 12.9624 29.0407 12.8643 28.9983C12.8643 28.9983 12.2887 28.7449 12.1866 28.684C12.0846 28.6231 11.7892 28.4512 11.5805 28.3409C11.4468 28.2703 11.3473 28.3875 11.286 28.4476L11.1202 28.6379L10.7828 28.9983L10.7199 29.0617C10.6638 29.1182 10.5804 29.1272 10.4683 29.0848L10.3196 28.9983L9.71061 28.6379L9.43897 28.4419C9.30436 28.3451 9.3722 28.2869 9.43344 28.1709C9.56868 27.914 9.75942 27.6127 9.8366 27.3463C9.8366 27.2067 9.82078 27.1814 9.73078 27.0753C9.66654 26.9996 9.47287 26.8587 9.39629 26.7957C9.24922 26.6747 9.15385 26.6012 9.01314 26.4728C8.94673 26.4121 8.83763 26.2943 8.76441 26.2421C8.65792 26.1663 8.60017 26.1147 8.4699 26.1095C8.31231 26.1031 8.17362 26.1744 8.03533 26.2508C7.94221 26.3022 7.71223 26.4353 7.71223 26.4353H7.44059L7.3205 26.2335L7.12038 25.9365C7.44577 25.3889 7.71765 24.5873 7.86088 24.0395C7.99704 23.5191 8.05258 23.0638 8.12679 22.4452C8.24534 22.1619 8.30958 21.9986 8.40127 21.7475C8.82797 22.8512 9.60796 23.8709 10.3856 24.5469L13.828 19.1989L11.7294 25.7981L16.9217 21.834L13.056 26.5996C14.5056 27.3891 16.0457 27.684 17.5907 27.6865C19.1357 27.6889 20.6752 27.4137 21.9967 26.591L18.1825 21.834L23.3748 25.7981L21.2848 19.2249L24.7272 24.5498C25.1783 24.1187 25.865 23.2551 26.274 22.4532C26.683 21.6513 26.8081 21.2807 27.0234 20.5994C27.1182 20.6962 27.2122 20.849 27.2726 20.9698C27.3617 21.1478 27.4181 21.2899 27.4949 21.4736C27.5569 21.6219 27.6132 21.7326 27.6114 21.8233ZM5.99082 23.212C5.97698 23.6784 6.01851 24.159 6.11662 24.6535L5.65344 24.0596L5.99082 23.212ZM30.4368 23.4254L30.4166 23.9529C29.5757 24.9987 29.0486 25.7135 28.8384 26.095C28.1236 27.1831 27.641 28.0452 27.3888 28.6811C27.2346 29.0344 27.0111 29.3167 26.7169 29.5287C26.4926 29.6418 26.3229 29.7619 26.2108 29.8891C26.1127 30.0728 26.1692 30.1209 26.3795 30.0361C26.5196 29.8948 26.6745 29.7897 26.8427 29.719C27.151 29.5635 27.8093 28.8306 28.8184 27.5164L28.7982 26.7725L29.0298 26.3689C29.0159 26.7787 29.0487 27.0069 29.1327 27.0493C29.2167 27.0917 29.3344 26.9731 29.4815 26.6976C29.6287 26.422 29.9877 25.6635 30.5623 24.42C30.4361 24.8016 30.4301 25.1349 30.5421 25.4175C30.2058 25.6578 30.1135 26.0663 30.2677 26.6457L29.5757 27.2828C29.2954 27.5937 29.2031 27.9182 29.3012 28.2573C28.9088 28.4693 28.5305 28.7787 28.1662 29.1885C27.8018 29.5983 27.5262 29.9467 27.337 30.2293C27.1478 30.5119 26.9467 30.6802 26.7366 30.7367C26.4983 30.8497 26.2271 30.7927 25.9188 30.5666L25.833 31.0971L24.4235 31.9649L24.089 31.3306C25.0559 30.8219 25.6159 30.3563 25.7701 29.9323C25.9663 29.5791 26.1778 29.2862 26.402 29.053C26.6262 28.8199 26.7871 28.533 26.8852 28.1939L26.9054 27.6836L26.8425 27.156C27.0667 27.4104 27.2693 27.4645 27.4515 27.3232C27.7458 26.7721 28.0615 26.26 28.3979 25.7865C28.7342 25.3132 29.0917 24.8731 29.4701 24.4632C29.8484 24.0535 30.1705 23.708 30.4368 23.4254ZM28.2295 24.717C28.2434 24.9289 28.2852 25.0762 28.3553 25.1609L28.1466 25.5213L28.2295 24.717ZM5.90503 25.9682L6.49403 26.9628L6.43113 27.0897L5.77923 26.095L5.90503 25.9682ZM8.48403 26.3141C8.53814 26.3153 8.58169 26.359 8.6184 26.392C8.87671 26.682 9.18553 26.9359 9.52188 27.1762C9.59194 27.2186 9.61283 27.2817 9.58482 27.3664L9.14162 28.2573C9.11354 28.3703 9.14558 28.4605 9.22742 28.5312C9.61979 28.8279 10.0398 29.0893 10.4883 29.3154C10.5864 29.386 10.6787 29.386 10.7628 29.3154L11.4118 28.5744C11.4679 28.5038 11.5333 28.4977 11.6034 28.5542C11.9677 28.7662 12.3252 28.9434 12.6756 29.0847C12.7597 29.1271 12.7925 29.1963 12.7785 29.2952L12.6527 30.3129C12.6389 30.4401 12.7012 30.5242 12.8414 30.5666C13.2618 30.7503 13.7116 30.8915 14.1881 30.9904C14.3282 31.0045 14.4265 30.9714 14.4826 30.8866L14.9229 29.9093C14.9649 29.8245 15.0313 29.8183 15.1345 29.8458C15.5092 29.9459 15.906 29.9816 16.3124 29.9958C16.3965 29.9958 16.4442 30.0378 16.4583 30.1226L16.6041 31.1173C16.6322 31.2303 16.7035 31.2874 16.8157 31.2873C17.3062 31.3156 17.7976 31.3156 18.2882 31.2873C18.4283 31.2874 18.5057 31.2243 18.5197 31.0971L18.6656 30.1226C18.6794 30.0378 18.7273 29.9958 18.8114 29.9958C19.2318 29.9675 19.625 29.9165 19.9893 29.8458C20.0875 29.8317 20.1589 29.8677 20.2009 29.9525L20.6413 30.8635C20.6973 30.9907 20.7956 31.0328 20.9358 30.9904C21.3982 30.8915 21.8466 30.7216 22.3025 30.5262C22.4088 30.4807 22.4646 30.4196 22.4483 30.2927L22.3225 29.3154C22.3363 29.2165 22.387 29.1473 22.4711 29.1049C22.7794 28.9777 23.1288 28.8018 23.5205 28.5744C23.5913 28.5333 23.6594 28.5348 23.712 28.5946L24.3839 29.3586C24.468 29.4293 24.5514 29.4382 24.6355 29.3817C25.0699 29.1132 25.484 28.8369 25.8764 28.5543C25.9885 28.4836 26.0154 28.3906 25.9593 28.2775L25.5619 27.3665C25.5239 27.2797 25.5698 27.1927 25.6305 27.1474C25.9758 26.8895 26.23 26.6643 26.5054 26.4122C26.5755 26.3416 26.6545 26.3081 26.7456 26.3315C26.7916 26.3433 26.8589 26.3928 26.9143 26.4353C26.7841 26.4557 26.5311 26.5752 26.5283 26.8591L26.6112 27.6432C26.6673 27.9683 26.4959 28.3303 26.0966 28.733C25.6971 29.1358 25.4335 29.5067 25.3074 29.8459C25.2373 30.1002 24.9662 30.3766 24.4897 30.6733C24.4616 30.5885 24.3485 30.4534 24.1523 30.2697C24.1243 30.2132 24.0677 30.1921 23.9836 30.2063C23.5071 30.3334 22.5479 30.757 21.1044 31.4777C20.8522 31.6048 20.4947 31.9803 20.0323 32.602H19.2117C18.9874 32.4749 18.7491 32.2977 18.4969 32.0716C18.3147 31.9303 17.9929 31.9813 17.5305 32.2215C17.096 32.1226 16.6611 32.2127 16.2267 32.4954C15.9604 32.5943 15.7638 32.6153 15.6377 32.5588L14.6084 31.4373C12.4782 30.5329 11.3164 30.1304 11.1202 30.2293C10.9099 30.3565 10.7551 30.5398 10.657 30.78C10.4468 30.6811 10.131 30.4108 9.71061 29.9727L9.05871 29.2318C8.58221 28.6948 8.38561 28.1871 8.46971 27.7067L8.57552 27.0493C8.58937 26.9504 8.57552 26.8724 8.53264 26.8158C8.37845 26.6463 8.23244 26.5472 8.09233 26.5189L8.42683 26.3286C8.44779 26.3174 8.46599 26.3137 8.48403 26.3141ZM27.1116 26.6572C27.1373 26.656 27.1669 26.6604 27.1974 26.6687C27.2968 26.6968 27.338 26.6955 27.4375 26.7235C27.378 26.8235 27.3405 26.8993 27.2974 26.9628C27.2071 27.0959 27.1472 27.1131 27.0001 26.9859C26.8713 26.8746 26.9314 26.6626 27.1116 26.6572ZM28.5469 27.0493V27.4097L28.0408 28.0036L28.5469 27.0493ZM30.0165 27.3463L29.9536 27.7268C29.7714 27.9105 29.688 27.8956 29.702 27.6836L30.0165 27.3463ZM6.99724 27.7902L7.54621 28.5744L7.86073 29.1481L7.9665 29.4653C7.7703 29.3664 7.60056 29.2191 7.46045 29.0213L7.12591 28.5744L6.76852 28.0872L6.99724 27.7902ZM4.54691 28.9665C4.56669 28.9633 4.5926 28.9677 4.62413 28.9781C5.21274 29.1335 5.4839 29.3317 5.44185 29.5719C5.25965 29.8828 5.17623 30.2344 5.19023 30.63L5.21317 31.7342C4.47041 31.2396 3.66922 30.8011 2.81436 30.4196C2.91242 30.4054 3.02559 30.3949 3.15174 30.3878C3.27784 30.3808 3.36127 30.3343 3.40332 30.2495C3.44537 30.1647 3.36772 30.1137 3.17175 30.0995C2.7373 30.0996 2.45727 30.1356 2.33113 30.2062C2.23302 30.3193 2.25391 30.4394 2.39402 30.5666C3.40308 31.0753 4.29371 31.5859 5.06452 32.0946C6.28375 32.8718 7.23098 33.5057 7.90369 34.0003C8.56235 33.9862 9.48585 33.896 10.6771 33.7264L12.4841 33.3862C13.2268 33.2449 13.9983 33.1247 14.7972 33.0258C15.0914 32.9834 15.4638 32.9563 15.9122 32.9422C16.3607 32.9281 16.7747 32.8921 17.1531 32.8355C17.5175 33.528 17.7409 34.1348 17.825 34.6576C17.8671 34.9261 17.8314 35.0762 17.7192 35.1045C16.0515 35.7262 14.854 36.1182 14.1253 36.2807C13.3965 36.4433 12.7381 36.586 12.1496 36.7132C10.6781 36.9817 9.22734 37.201 7.79791 37.3705C7.43351 37.2716 6.38197 36.7279 4.64422 35.7387C3.41095 34.9898 2.55003 34.383 2.05953 33.9167C1.49892 33.309 1.27262 32.9425 1.38476 32.8153C1.74912 32.2077 1.99627 31.6701 2.12242 31.2038C2.17847 31.0059 2.19046 30.8498 2.16245 30.7367C2.0083 30.2563 2.12143 30.0099 2.49984 29.9958C3.4388 29.9392 4.07025 29.9243 4.3926 29.9525C4.53275 29.9666 4.62219 29.9246 4.66424 29.8257L4.98161 29.1885L4.79003 29.1049L4.51839 29.5287L4.49822 29.0415C4.49822 28.9973 4.51412 28.972 4.54691 28.9665ZM30.6484 29.0847V29.5489L30.2481 29.4451L30.291 29.6556C30.3751 29.811 30.5299 29.9162 30.7542 29.9727L31.8893 30.0361L32.3925 30.0159C32.9811 30.0301 33.2671 30.1757 33.2531 30.4513C33.2393 30.7268 33.2598 30.9837 33.316 31.2239C33.4141 31.8316 33.6524 32.4113 34.0308 32.9624C33.9467 33.2167 33.7649 33.5141 33.4847 33.8532L32.3925 34.574C31.4535 35.2523 30.1785 36.1354 28.5669 37.2235C27.4177 37.2518 26.0356 37.1587 24.424 36.9467C23.2607 36.7913 21.9232 36.4939 20.4096 36.0559L20.0752 35.9722L20.221 35.8252C20.4592 35.5143 20.5888 35.3056 20.6098 35.1996C20.6308 35.0936 20.5952 34.8533 20.504 34.4788C20.4129 34.1044 20.1522 33.6614 19.7178 33.1526V33.0258L20.0323 32.9826C20.9011 33.0391 21.6742 33.1532 22.3539 33.3228C23.0336 33.4923 23.8424 33.6485 24.7813 33.7898C25.6923 33.9594 26.3534 34.0601 26.7599 34.0954C27.1663 34.1307 27.4732 34.1141 27.6834 34.0435C28.0618 33.8881 28.8393 33.3084 30.0165 32.305C31.1516 31.4431 32.1109 30.8423 32.8957 30.5032C33.1339 30.3619 33.1443 30.2612 32.9274 30.1976C32.7101 30.134 32.3868 30.0995 31.9524 30.0995C31.8122 30.2126 31.8242 30.3057 31.9924 30.3763C32.1885 30.3622 32.3286 30.3775 32.4127 30.4196C31.4737 30.9142 30.6902 31.4068 30.0596 31.9014C30.1156 31.5764 30.1633 31.0206 30.2054 30.2293C30.1912 29.9749 30.1079 29.7467 29.9538 29.5489C29.8557 29.4076 29.9898 29.2814 30.3541 29.1683L30.6484 29.0847ZM11.4033 30.4916C11.4925 30.4896 11.5925 30.5136 11.7063 30.5666L12.7156 31.0538L14.4397 31.7112C14.8601 32.1633 15.1193 32.4757 15.2174 32.6452C14.867 32.6876 14.4887 32.7147 14.0823 32.7289L13.1788 32.0946C12.8144 31.6565 12.5492 31.3382 12.3811 31.1403C12.2129 30.9425 12.052 30.8013 11.8979 30.7165C11.6736 30.5893 11.4891 30.5473 11.3489 30.5897C11.2508 30.6179 11.1465 30.7591 11.0344 31.0135L10.9915 30.9702C11.0476 30.73 11.1354 30.5828 11.2546 30.5262C11.2992 30.505 11.3497 30.4929 11.4033 30.4916ZM23.8664 30.5752C23.9163 30.5725 23.9616 30.6001 24.0036 30.6531L24.1724 30.8635L23.9407 31.0135C23.8006 31.1265 23.6277 31.1746 23.4175 31.1605C23.2353 31.1464 22.9881 31.2079 22.6799 31.3421C22.3715 31.4764 22.2046 31.6612 22.1766 31.9014C22.1206 32.071 22.0431 32.1791 21.9451 32.2214C21.6367 32.391 21.3567 32.5383 21.1044 32.6654L20.4526 32.6222L20.7899 32.158C20.9581 31.9602 21.1727 31.783 21.439 31.6275C22.6301 31.034 23.4225 30.6886 23.815 30.5897C23.8324 30.5825 23.8498 30.5762 23.8664 30.5752ZM11.6205 30.8693C11.6617 30.8705 11.7037 30.8821 11.7492 30.9068L12.0866 31.2037L12.2324 31.4372C12.0362 31.5362 11.8396 31.5362 11.6434 31.4372L11.3089 31.1807C11.393 30.9687 11.497 30.8667 11.6205 30.8693ZM2.79426 31.2239L2.68844 31.3738C2.75854 31.4162 2.77939 31.4704 2.75138 31.541L1.84786 32.9422C1.80581 32.9704 1.74924 32.9616 1.67919 32.9191L1.57626 33.069L2.16238 33.4496L2.26815 33.3025C2.2121 33.2743 2.19723 33.2322 2.22527 33.1757L2.54264 32.6856L2.56281 32.7087C2.53473 33.0902 2.54501 33.3997 2.59446 33.6399C2.64351 33.8801 2.8028 34.0933 3.0691 34.277L3.10913 34.1704C2.95494 34.0573 2.88639 33.811 2.90039 33.4294C2.92848 33.2033 2.92848 33.0322 2.90039 32.9191C3.09659 33.0605 3.29474 33.0799 3.49798 32.9739C3.70118 32.8679 3.83073 32.6802 3.88682 32.4117C3.94288 32.1432 3.83857 31.909 3.57231 31.7112L2.79426 31.2239ZM23.3603 31.5151C23.3928 31.5163 23.4242 31.5171 23.4576 31.5209C23.5696 31.535 23.5785 31.7393 23.4805 32.1349C23.3964 32.3328 22.9824 32.5731 22.2396 32.8557L21.5448 32.7721L22.2825 32.3483L22.4712 32.6452H22.5741L22.4712 32.305C22.4011 32.0648 22.4847 31.8755 22.7228 31.7342C22.919 31.5858 23.1319 31.512 23.3603 31.5151ZM23.8378 31.541L24.1323 32.0946L23.732 32.2618C23.7881 32.1205 23.8238 31.8802 23.8378 31.541ZM3.17167 31.7111C3.38188 31.8242 3.50546 31.9338 3.5405 32.0398C3.57571 32.1458 3.55039 32.2854 3.46617 32.455C3.38208 32.6245 3.26732 32.7192 3.12021 32.7404C2.97306 32.7616 2.82258 32.679 2.66847 32.4953L3.17167 31.7111ZM31.7206 31.838L32.0351 33.8734C32.049 33.9441 32.0134 34.0161 31.9293 34.0867L31.9722 34.2136L32.5612 33.81L32.4983 33.7264C32.3581 33.8112 32.2867 33.8112 32.2867 33.7264L32.2038 33.3862L32.7699 33.0056L33.0644 33.1959C33.1204 33.2383 33.1084 33.2864 33.0244 33.3429L33.1073 33.4928L33.7792 33.046L33.6734 32.9191C33.6173 32.9474 33.5427 32.9474 33.4447 32.9191L31.7206 31.838ZM4.32963 32.1984L4.26673 32.305C4.36483 32.3474 4.38568 32.4195 4.32963 32.5184L3.42614 33.9166C3.3841 34.0014 3.31863 34.0164 3.23457 33.9599L3.17167 34.0867L4.22385 34.7642L4.62413 34.5509L4.56123 34.4471C4.39304 34.5178 4.13386 34.4308 3.78354 34.1905L4.20384 33.5361L4.39252 33.6629C4.46262 33.7053 4.46859 33.7745 4.4127 33.8734L4.53853 33.9599L4.83303 33.4727L4.72721 33.4063C4.65716 33.5053 4.58857 33.5352 4.51851 33.4928L4.32978 33.366L4.75008 32.6856C5.01638 32.841 5.15637 32.9972 5.17041 33.1526L5.27619 33.1959L5.3591 32.8557L4.32963 32.1984ZM18.1823 32.3915L18.434 32.4117L18.6513 32.6164L18.1823 32.3915ZM17.2188 32.455C17.4325 32.4479 17.6626 32.481 17.9079 32.5587L18.414 32.7721L18.6884 32.6539L18.8342 32.7923C19.549 33.5695 19.9526 34.1011 20.0437 34.3837C20.1348 34.6663 20.1452 34.9397 20.0753 35.2082C19.809 35.5615 19.6185 35.6906 19.5064 35.5917L19.4006 35.2515L18.8344 35.9722L18.3713 36.2692C18.161 36.4529 17.9436 36.5249 17.7194 36.4825L16.9846 36.1222L17.362 35.929L17.4677 36.0155C17.3977 36.2275 17.4812 36.1975 17.7194 35.929L18.3713 35.2947C18.4133 34.9132 18.321 34.4221 18.0968 33.8215C17.8725 33.2209 17.7056 32.841 17.5936 32.6856C17.5655 32.5584 17.2438 32.5313 16.6272 32.602C16.8093 32.5101 17.0051 32.462 17.2188 32.455ZM30.8571 32.455L30.331 32.7923L30.4168 32.9422C30.5008 32.8998 30.5903 32.9208 30.6884 33.0056L31.0687 33.6399L29.5962 33.2795L29.1959 33.5995L29.2617 33.7033C29.3738 33.6751 29.4841 33.6961 29.5962 33.7667L30.3539 34.9776C30.382 35.0624 30.361 35.1315 30.291 35.1881L30.3739 35.2947L30.88 34.9776L30.7942 34.8709C30.7101 34.9133 30.6415 34.9044 30.5855 34.8479L30.0165 33.9166L31.8893 34.3606L30.9 32.9191C30.8439 32.7919 30.8648 32.6718 30.9629 32.5588L30.8571 32.455ZM32.0551 32.5386L32.5812 32.8788L32.1809 33.1526L32.0551 32.5386ZM10.657 32.5587L11.6234 33.1959L10.3625 33.4063L10.657 32.5587ZM24.8243 32.7087C24.8803 33.0054 24.9994 33.2817 25.1817 33.5361C24.8173 33.4796 24.2303 33.3715 23.4175 33.2161L24.1523 32.9624C24.5447 33.0472 24.7682 32.9636 24.8243 32.7087ZM5.63343 33.0258L5.54763 33.1526C5.61772 33.195 5.63857 33.2521 5.61056 33.3227L4.68703 34.7441C4.63097 34.8006 4.57441 34.8066 4.51835 34.7642L4.43255 34.8911L5.04442 35.2717L5.10732 35.1448C5.03726 35.1024 5.02239 35.0482 5.06444 34.9776L5.37896 34.4875L5.48473 34.5942C5.75099 34.8202 5.99973 34.8728 6.23098 34.7527C6.46223 34.6326 6.60665 34.4433 6.66274 34.1819C6.71875 33.9205 6.62045 33.6907 6.36824 33.4928L5.63343 33.0258ZM16.2267 33.046L15.6806 35.0814C15.6385 35.1803 15.5819 35.2373 15.5119 35.2515L15.5321 35.3783L16.1211 35.2515V35.1246C16.0229 35.1387 15.9752 35.1238 15.9752 35.0814L16.1011 34.6374L16.71 34.4875L16.8988 34.8075C16.9268 34.9064 16.894 34.9695 16.7958 34.9978L16.816 35.1246L17.5308 34.9545V34.8277C17.4187 34.8277 17.3412 34.7917 17.2992 34.721L16.2267 33.046ZM14.657 33.4035C14.6099 33.4015 14.5647 33.4035 14.5198 33.4062C14.2198 33.4239 13.9692 33.532 13.7678 33.7263C13.5155 34.0372 13.4798 34.4757 13.662 35.0409C13.8302 35.5355 14.1936 35.7398 14.7542 35.655C15.0345 35.5985 15.2519 35.4933 15.4061 35.3379L15.3432 34.8276L15.2174 34.891C15.2174 35.1595 15.1339 35.3367 14.9658 35.4215C14.4893 35.5628 14.1675 35.3285 13.9994 34.7209C13.9293 34.085 14.0902 33.6975 14.4826 33.5562C14.7628 33.5138 14.9654 33.6339 15.0916 33.9166L15.1745 33.8964L15.1116 33.4726C14.95 33.4328 14.7982 33.4082 14.657 33.4035ZM6.01084 33.513C6.207 33.6119 6.32018 33.726 6.34822 33.8532C6.37631 33.9804 6.34229 34.1171 6.25099 34.2655C6.15989 34.4139 6.04961 34.498 5.9165 34.5192C5.78335 34.5404 5.63889 34.4817 5.48473 34.3404L6.01084 33.513ZM20.9786 33.6629L20.9557 33.81C21.0257 33.8524 21.0555 33.9244 21.0415 34.0233L20.8299 35.4418C20.8018 35.5265 20.7333 35.5626 20.6212 35.5484L20.5982 35.7387L21.3359 35.8454L21.3561 35.6551C21.2579 35.641 21.2163 35.59 21.2303 35.5052L21.439 34.0867C21.4528 33.9737 21.5184 33.9227 21.6306 33.9368L21.6706 33.7898L20.9786 33.6629ZM13.4304 33.6831L12.7385 33.81L12.7785 33.9801C12.8626 33.9659 12.9192 33.993 12.9472 34.0637L13.1788 35.5686C13.1788 35.6534 13.137 35.7104 13.053 35.7387L13.0732 35.9088L13.7479 35.782L13.725 35.6118C13.6129 35.6401 13.5563 35.6041 13.5563 35.5052L13.3247 33.9801C13.3247 33.8953 13.3753 33.8532 13.4734 33.8532L13.4304 33.6831ZM6.74565 33.7264L6.70562 33.81C6.76167 33.8806 6.78252 33.9648 6.76852 34.0637L6.45115 36.249L8.06943 34.8479C8.13948 34.7913 8.21093 34.7853 8.28102 34.8277L8.34392 34.7441L7.88074 34.4471L7.84071 34.5307C7.91077 34.5872 7.91678 34.6503 7.86088 34.721L6.9574 35.5283L7.1661 34.2568C7.17995 34.1862 7.23667 34.1712 7.33478 34.2136L7.3777 34.1271L6.74565 33.7264ZM16.2896 33.7667L16.5841 34.2972L16.1209 34.4039L16.2896 33.7667ZM21.925 33.8301L21.7763 34.2568L21.8822 34.3203C21.9662 34.1648 22.154 34.1199 22.4483 34.1905L22.1766 35.6753C22.1346 35.7742 22.0571 35.8163 21.9451 35.8021L21.9249 35.952L22.6597 36.0789L22.6799 35.929C22.5817 35.9007 22.54 35.8376 22.5541 35.7387L22.8057 34.2568C23.0999 34.2851 23.2697 34.3903 23.3118 34.574L23.4375 34.5509L23.4577 34.0867C22.9392 34.0302 22.4295 33.9432 21.925 33.8301ZM12.1495 33.9599L11.4547 34.0867L11.4749 34.2338C11.573 34.2196 11.6384 34.2496 11.6664 34.3203L11.898 35.8252C11.898 35.9241 11.8535 35.9872 11.7694 36.0155L11.7923 36.1625L12.8845 35.952L12.9903 35.4418L12.8645 35.4216C12.7944 35.6335 12.6127 35.7687 12.3184 35.8252L12.0439 34.2568C12.0301 34.172 12.0775 34.121 12.1897 34.1069L12.1495 33.9599ZM10.8771 34.1473C10.8408 34.1457 10.8031 34.1465 10.7628 34.1501L9.91931 34.2769L9.94226 34.424C10.0264 34.424 10.0741 34.46 10.0881 34.5306L10.2568 36.1221C10.2568 36.221 10.209 36.2751 10.111 36.2893V36.4392L10.7829 36.3325C11.4135 36.2619 11.6727 35.9855 11.5606 35.5051C11.5185 35.2649 11.3993 35.1237 11.2032 35.0813C11.3573 34.9682 11.4139 34.791 11.3719 34.5508C11.2983 34.2911 11.1331 34.1581 10.8771 34.1473ZM24.2981 34.1501L23.226 35.952C23.1699 36.0226 23.1013 36.0557 23.0172 36.0557L22.9971 36.1855L23.669 36.3123V36.1422C23.5428 36.114 23.4922 36.0569 23.5203 35.9721L23.6261 35.802L24.3609 35.9087L24.4238 36.1624C24.41 36.2472 24.356 36.2832 24.258 36.2691L24.235 36.3959L25.0985 36.4824V36.3527C25.0144 36.3527 24.9578 36.3046 24.9298 36.2057L24.2981 34.1501ZM28.2924 34.1501L28.6098 36.1855C28.6098 36.2844 28.5742 36.3596 28.504 36.4161L28.5469 36.566L29.133 36.1422L29.0501 36.0557C28.938 36.1123 28.8754 36.1062 28.8614 36.0356L28.7756 35.7184L29.3446 35.3379L29.5962 35.5051C29.6522 35.5475 29.6462 35.5896 29.576 35.6319L29.6818 35.802L30.3109 35.3581L30.205 35.2312C30.149 35.2595 30.0864 35.2655 30.0164 35.2514L28.2924 34.1501ZM10.7571 34.3375C10.8889 34.3436 10.967 34.458 10.9915 34.6805C11.0054 34.8784 10.9429 34.9985 10.8028 35.0409L10.5083 35.0813L10.4254 34.3836L10.697 34.3403C10.718 34.3368 10.7382 34.3367 10.7571 34.3375ZM9.30175 34.3807C9.26496 34.3791 9.22481 34.3799 9.18454 34.3835L8.36393 34.4873L8.38687 34.6372C8.47097 34.6372 8.51868 34.6732 8.53268 34.7439L8.68138 36.3324C8.68138 36.4314 8.63078 36.4884 8.53268 36.5025V36.6496L9.22746 36.5458C9.84408 36.5034 10.1093 36.2271 10.0252 35.7184C9.98312 35.4781 9.85796 35.343 9.64779 35.3147C9.80191 35.2017 9.85852 35.0245 9.81647 34.7843C9.73063 34.5246 9.55923 34.3916 9.30175 34.3807ZM25.4332 34.4038V34.5941C25.5313 34.5941 25.5759 34.6511 25.5619 34.7642L25.4762 36.2057C25.4481 36.3329 25.3855 36.396 25.2874 36.396L25.2673 36.5228L26.7369 36.6727L26.8855 36.1624H26.7798C26.6116 36.3603 26.3107 36.4383 25.8763 36.396L25.982 34.8074C25.9959 34.7085 26.0438 34.6575 26.1279 34.6575L26.148 34.4672L25.4332 34.4038ZM27.2431 34.5508V34.7209C27.3271 34.7492 27.3689 34.8123 27.3689 34.9112L27.306 36.3325C27.2779 36.4173 27.2065 36.4594 27.0944 36.4594L27.0743 36.6497L27.8091 36.7131L27.832 36.5228C27.7479 36.5087 27.6973 36.4606 27.6833 36.3758L27.7462 34.9544C27.7743 34.8555 27.8368 34.7985 27.9349 34.7843L27.9579 34.6171L27.2431 34.5508ZM9.22453 34.5681C9.35638 34.5743 9.43446 34.6886 9.45899 34.9112C9.47283 35.109 9.39558 35.2292 9.22742 35.2716L8.9758 35.3148L8.89004 34.6171L9.16449 34.5739C9.18545 34.5703 9.2057 34.5672 9.22453 34.5681ZM28.6098 34.8478L29.133 35.2082L28.7356 35.4849L28.6098 34.8478ZM24.1323 34.9343L24.341 35.7185L23.732 35.632L24.1323 34.9343ZM10.8257 35.2082C10.9938 35.194 11.0982 35.3142 11.1402 35.5685C11.1822 35.8794 11.1046 36.0566 10.9086 36.099L10.6341 36.1423L10.5312 35.2514L10.8257 35.2082ZM9.2703 35.4215C9.43846 35.4074 9.54277 35.5215 9.58482 35.7617C9.62683 36.0726 9.56425 36.2558 9.39609 36.3124L9.10159 36.3527L8.99582 35.4648L9.2703 35.4215ZM14.6513 36.6727C14.8615 36.814 14.8526 36.9763 14.6283 37.16C14.0397 37.7393 13.3754 38.2891 12.6326 38.8119L12.381 38.7283C12.8154 38.4598 13.4321 38.0213 14.2309 37.4137L14.5883 37.01L14.3967 36.9899C14.1304 37.2301 13.828 37.4749 13.4847 37.7221C13.1413 37.9694 12.7437 38.2053 12.2952 38.4314L11.6862 38.7283L11.792 38.8552L12.2552 38.9186C12.5215 39.0882 12.6318 39.2564 12.5897 39.426C12.4496 39.638 12.2261 39.6679 11.9178 39.5125L11.4118 39.2357C11.2296 39.052 11.0478 38.9258 10.8656 38.8552L10.6569 38.6851L10.7398 38.4746L11.3717 38.7283H11.5604L11.4546 38.3478L12.2123 37.8807C12.4085 37.8101 12.4919 37.6899 12.4639 37.5203L12.5268 37.1369C12.8491 37.2076 13.2006 37.155 13.579 36.9783C13.9574 36.8017 14.3149 36.701 14.6513 36.6727ZM21.0816 36.9149C21.294 36.9161 21.5884 36.9675 21.9651 37.0735L23.7521 38.4112C23.3736 38.4112 23.1353 38.4533 23.0373 38.538H22.7428C22.3363 38.2554 22.0146 37.9941 21.7763 37.7539L20.7899 36.9697C20.8583 36.9326 20.9541 36.9142 21.0816 36.9149ZM21.6934 38.3045L22.1137 38.6649C22.0296 38.7214 21.9225 38.7004 21.7964 38.6015C21.6702 38.5026 21.6373 38.4034 21.6934 38.3045ZM13.7249 38.4746L13.7678 38.5784L13.5991 38.8119L13.4104 38.9186L13.2417 38.8119L13.2619 38.7283L13.6193 38.4948L13.7249 38.4746ZM23.6892 38.6418L24.1952 38.7283L24.5298 38.6418L24.7614 38.6851L24.6784 38.7918L24.1323 38.9618C23.894 39.1738 23.6112 39.315 23.2888 39.3857L22.9314 39.3222L22.8485 39.0685C22.9326 38.9413 23.0413 38.8483 23.1745 38.7918C23.3076 38.7352 23.4789 38.6842 23.6892 38.6418Z" fill="#F9F4ED"/>
<path d="M42.2532 21V12.5H44.5312V21H42.2532ZM42.2532 11.412V9.1H44.5312V11.412H42.2532ZM48.484 21H46.206V12.5H48.467V12.976C49.2377 12.5227 49.946 12.296 50.592 12.296C51.7254 12.296 52.5074 12.6303 52.938 13.299C53.3687 13.9677 53.584 14.999 53.584 16.393V21H51.306V16.461C51.306 15.7357 51.221 15.203 51.051 14.863C50.881 14.5117 50.541 14.336 50.031 14.336C49.5664 14.336 49.1187 14.4153 48.688 14.574L48.484 14.642V21ZM59.6265 17.634H57.7225V21H55.3765V9.44H59.6265C62.3692 9.44 63.7405 10.7773 63.7405 13.452C63.7405 14.8007 63.3892 15.8377 62.6865 16.563C61.9952 17.277 60.9752 17.634 59.6265 17.634ZM57.7225 15.628H59.6095C60.7768 15.628 61.3605 14.9027 61.3605 13.452C61.3605 12.738 61.2188 12.228 60.9355 11.922C60.6522 11.6047 60.2102 11.446 59.6095 11.446H57.7225V15.628ZM63.6728 21L66.2738 9.44H70.7278L73.3288 21H70.9828L70.5238 18.909H66.4778L66.0188 21H63.6728ZM68.0928 11.378L66.9198 16.869H70.0818L68.9088 11.378H68.0928Z" fill="#F9F4ED"/>
<path d="M46.2552 32.204H44.1432V35H43.2192V26.696H46.2552C47.1592 26.696 47.8272 26.916 48.2592 27.356C48.6912 27.796 48.9072 28.468 48.9072 29.372C48.9072 31.26 48.0232 32.204 46.2552 32.204ZM44.1432 31.388H46.2432C47.3872 31.388 47.9592 30.716 47.9592 29.372C47.9592 28.732 47.8232 28.264 47.5512 27.968C47.2792 27.664 46.8432 27.512 46.2432 27.512H44.1432V31.388ZM49.4356 31.988C49.4356 30.892 49.6316 30.1 50.0236 29.612C50.4156 29.124 51.0756 28.88 52.0036 28.88C52.9396 28.88 53.5996 29.124 53.9836 29.612C54.3756 30.1 54.5716 30.892 54.5716 31.988C54.5716 33.084 54.3876 33.88 54.0196 34.376C53.6516 34.872 52.9796 35.12 52.0036 35.12C51.0276 35.12 50.3556 34.872 49.9876 34.376C49.6196 33.88 49.4356 33.084 49.4356 31.988ZM50.3596 31.976C50.3596 32.848 50.4636 33.46 50.6716 33.812C50.8876 34.164 51.3316 34.34 52.0036 34.34C52.6836 34.34 53.1276 34.168 53.3356 33.824C53.5436 33.472 53.6476 32.856 53.6476 31.976C53.6476 31.096 53.5316 30.492 53.2996 30.164C53.0676 29.828 52.6356 29.66 52.0036 29.66C51.3796 29.66 50.9476 29.828 50.7076 30.164C50.4756 30.492 50.3596 31.096 50.3596 31.976ZM55.6095 35V29H56.4975V29.816C57.1935 29.336 57.9255 29.02 58.6935 28.868V29.78C58.3575 29.844 58.0055 29.944 57.6375 30.08C57.2775 30.216 57.0015 30.336 56.8095 30.44L56.5095 30.596V35H55.6095ZM62.4359 29.78H60.5279V32.648C60.5279 33.336 60.5759 33.788 60.6719 34.004C60.7759 34.22 61.0159 34.328 61.3919 34.328L62.4599 34.256L62.5199 35C61.9839 35.088 61.5759 35.132 61.2959 35.132C60.6719 35.132 60.2399 34.98 59.9999 34.676C59.7599 34.372 59.6399 33.792 59.6399 32.936V29.78H58.7879V29H59.6399V27.164H60.5279V29H62.4359V29.78ZM67.3409 30.812V33.884C67.3649 34.18 67.5969 34.356 68.0369 34.412L68.0009 35.12C67.3689 35.12 66.8929 34.96 66.5729 34.64C65.8529 34.96 65.1329 35.12 64.4129 35.12C63.8609 35.12 63.4409 34.964 63.1529 34.652C62.8649 34.34 62.7209 33.892 62.7209 33.308C62.7209 32.724 62.8689 32.296 63.1649 32.024C63.4609 31.744 63.9249 31.572 64.5569 31.508L66.4409 31.328V30.812C66.4409 30.404 66.3529 30.112 66.1769 29.936C66.0009 29.76 65.7609 29.672 65.4569 29.672C64.8169 29.672 64.1529 29.712 63.4649 29.792L63.0929 29.828L63.0569 29.144C63.9369 28.968 64.7169 28.88 65.3969 28.88C66.0769 28.88 66.5689 29.036 66.8729 29.348C67.1849 29.66 67.3409 30.148 67.3409 30.812ZM63.6449 33.26C63.6449 33.996 63.9489 34.364 64.5569 34.364C65.1009 34.364 65.6369 34.272 66.1649 34.088L66.4409 33.992V32.012L64.6649 32.18C64.3049 32.212 64.0449 32.316 63.8849 32.492C63.7249 32.668 63.6449 32.924 63.6449 33.26ZM68.7587 35V26.384H69.6587V35H68.7587ZM75.114 34.256L75.462 34.22L75.486 34.928C74.574 35.056 73.794 35.12 73.146 35.12C72.282 35.12 71.67 34.872 71.31 34.376C70.95 33.872 70.77 33.092 70.77 32.036C70.77 29.932 71.606 28.88 73.278 28.88C74.086 28.88 74.69 29.108 75.09 29.564C75.49 30.012 75.69 30.72 75.69 31.688L75.642 32.372H71.682C71.682 33.036 71.802 33.528 72.042 33.848C72.282 34.168 72.698 34.328 73.29 34.328C73.89 34.328 74.498 34.304 75.114 34.256ZM74.79 31.652C74.79 30.916 74.67 30.396 74.43 30.092C74.198 29.788 73.814 29.636 73.278 29.636C72.75 29.636 72.35 29.796 72.078 30.116C71.814 30.436 71.678 30.948 71.67 31.652H74.79ZM83.4773 26.384V35H82.5893V34.592C81.9733 34.944 81.3653 35.12 80.7653 35.12C80.4453 35.12 80.1653 35.08 79.9253 35C79.6853 34.92 79.4613 34.776 79.2533 34.568C78.8213 34.136 78.6053 33.34 78.6053 32.18C78.6053 31.012 78.7973 30.172 79.1813 29.66C79.5733 29.14 80.2173 28.88 81.1133 28.88C81.5773 28.88 82.0693 28.932 82.5893 29.036V26.384H83.4773ZM79.9493 33.92C80.0773 34.072 80.2133 34.176 80.3573 34.232C80.5013 34.288 80.6853 34.316 80.9093 34.316C81.1413 34.316 81.3973 34.28 81.6773 34.208C81.9653 34.128 82.1893 34.052 82.3493 33.98L82.5893 33.872V29.804C82.0773 29.708 81.6013 29.66 81.1613 29.66C80.5533 29.66 80.1293 29.856 79.8893 30.248C79.6493 30.632 79.5293 31.232 79.5293 32.048C79.5293 32.976 79.6693 33.6 79.9493 33.92ZM88.8709 34.256L89.2189 34.22L89.2429 34.928C88.3309 35.056 87.5509 35.12 86.9029 35.12C86.0389 35.12 85.4269 34.872 85.0669 34.376C84.7069 33.872 84.5269 33.092 84.5269 32.036C84.5269 29.932 85.3629 28.88 87.0349 28.88C87.8429 28.88 88.4469 29.108 88.8469 29.564C89.2469 30.012 89.4469 30.72 89.4469 31.688L89.3989 32.372H85.4389C85.4389 33.036 85.5589 33.528 85.7989 33.848C86.0389 34.168 86.4549 34.328 87.0469 34.328C87.6469 34.328 88.2549 34.304 88.8709 34.256ZM88.5469 31.652C88.5469 30.916 88.4269 30.396 88.1869 30.092C87.9549 29.788 87.5709 29.636 87.0349 29.636C86.5069 29.636 86.1069 29.796 85.8349 30.116C85.5709 30.436 85.4349 30.948 85.4269 31.652H88.5469ZM90.4915 35V26.384H91.3915V35H90.4915ZM96.0535 31.82V35H95.1295V26.696H98.2015C99.0815 26.696 99.7415 26.9 100.182 27.308C100.63 27.716 100.854 28.352 100.854 29.216C100.854 30.496 100.346 31.3 99.3295 31.628L100.926 35H99.9055L98.4055 31.82H96.0535ZM98.2135 31.004C99.3415 31.004 99.9055 30.424 99.9055 29.264C99.9055 28.096 99.3375 27.512 98.2015 27.512H96.0535V31.004H98.2135ZM105.913 34.256L106.261 34.22L106.285 34.928C105.373 35.056 104.593 35.12 103.945 35.12C103.081 35.12 102.469 34.872 102.109 34.376C101.749 33.872 101.569 33.092 101.569 32.036C101.569 29.932 102.405 28.88 104.077 28.88C104.885 28.88 105.489 29.108 105.889 29.564C106.289 30.012 106.489 30.72 106.489 31.688L106.441 32.372H102.481C102.481 33.036 102.601 33.528 102.841 33.848C103.081 34.168 103.497 34.328 104.089 34.328C104.689 34.328 105.297 34.304 105.913 34.256ZM105.589 31.652C105.589 30.916 105.469 30.396 105.229 30.092C104.997 29.788 104.613 29.636 104.077 29.636C103.549 29.636 103.149 29.796 102.877 30.116C102.613 30.436 102.477 30.948 102.469 31.652H105.589ZM109.705 28.88C109.969 28.88 110.417 28.928 111.049 29.024L111.337 29.06L111.301 29.792C110.661 29.72 110.189 29.684 109.885 29.684C109.205 29.684 108.741 29.848 108.493 30.176C108.253 30.496 108.133 31.096 108.133 31.976C108.133 32.848 108.245 33.456 108.469 33.8C108.701 34.144 109.177 34.316 109.897 34.316L111.313 34.208L111.349 34.952C110.605 35.064 110.049 35.12 109.681 35.12C108.745 35.12 108.097 34.88 107.737 34.4C107.385 33.92 107.209 33.112 107.209 31.976C107.209 30.832 107.401 30.032 107.785 29.576C108.169 29.112 108.809 28.88 109.705 28.88ZM112.33 35V26.384H113.23V35H112.33ZM118.349 29H119.249V35H118.349V34.58C117.749 34.94 117.157 35.12 116.573 35.12C115.757 35.12 115.213 34.908 114.941 34.484C114.677 34.06 114.545 33.276 114.545 32.132V29H115.445V32.12C115.445 32.992 115.521 33.576 115.673 33.872C115.825 34.168 116.169 34.316 116.705 34.316C116.969 34.316 117.237 34.28 117.509 34.208C117.781 34.128 117.989 34.052 118.133 33.98L118.349 33.872V29ZM123.658 29.78H121.75V32.648C121.75 33.336 121.798 33.788 121.894 34.004C121.998 34.22 122.238 34.328 122.614 34.328L123.682 34.256L123.742 35C123.206 35.088 122.798 35.132 122.518 35.132C121.894 35.132 121.462 34.98 121.222 34.676C120.982 34.372 120.862 33.792 120.862 32.936V29.78H120.01V29H120.862V27.164H121.75V29H123.658V29.78ZM128.563 30.812V33.884C128.587 34.18 128.819 34.356 129.259 34.412L129.223 35.12C128.591 35.12 128.115 34.96 127.795 34.64C127.075 34.96 126.355 35.12 125.635 35.12C125.083 35.12 124.663 34.964 124.375 34.652C124.087 34.34 123.943 33.892 123.943 33.308C123.943 32.724 124.091 32.296 124.387 32.024C124.683 31.744 125.147 31.572 125.779 31.508L127.663 31.328V30.812C127.663 30.404 127.575 30.112 127.399 29.936C127.223 29.76 126.983 29.672 126.679 29.672C126.039 29.672 125.375 29.712 124.687 29.792L124.315 29.828L124.279 29.144C125.159 28.968 125.939 28.88 126.619 28.88C127.299 28.88 127.791 29.036 128.095 29.348C128.407 29.66 128.563 30.148 128.563 30.812ZM124.867 33.26C124.867 33.996 125.171 34.364 125.779 34.364C126.323 34.364 126.859 34.272 127.387 34.088L127.663 33.992V32.012L125.887 32.18C125.527 32.212 125.267 32.316 125.107 32.492C124.947 32.668 124.867 32.924 124.867 33.26ZM130.809 35H129.909V29H130.797V29.42C131.397 29.06 131.981 28.88 132.549 28.88C133.293 28.88 133.813 29.084 134.109 29.492C134.373 29.332 134.713 29.192 135.129 29.072C135.553 28.944 135.925 28.88 136.245 28.88C137.045 28.88 137.581 29.096 137.853 29.528C138.133 29.952 138.273 30.72 138.273 31.832V35H137.373V31.856C137.373 31.024 137.293 30.456 137.133 30.152C136.973 29.84 136.633 29.684 136.113 29.684C135.849 29.684 135.577 29.724 135.297 29.804C135.017 29.876 134.801 29.948 134.649 30.02L134.421 30.128C134.525 30.392 134.577 30.976 134.577 31.88V35H133.677V31.904C133.677 31.04 133.597 30.456 133.437 30.152C133.285 29.84 132.945 29.684 132.417 29.684C132.161 29.684 131.897 29.724 131.625 29.804C131.361 29.876 131.157 29.948 131.013 30.02L130.809 30.128V35ZM143.59 34.256L143.938 34.22L143.962 34.928C143.05 35.056 142.27 35.12 141.622 35.12C140.758 35.12 140.146 34.872 139.786 34.376C139.426 33.872 139.246 33.092 139.246 32.036C139.246 29.932 140.082 28.88 141.754 28.88C142.562 28.88 143.166 29.108 143.566 29.564C143.966 30.012 144.166 30.72 144.166 31.688L144.118 32.372H140.158C140.158 33.036 140.278 33.528 140.518 33.848C140.758 34.168 141.174 34.328 141.766 34.328C142.366 34.328 142.974 34.304 143.59 34.256ZM143.266 31.652C143.266 30.916 143.146 30.396 142.906 30.092C142.674 29.788 142.29 29.636 141.754 29.636C141.226 29.636 140.826 29.796 140.554 30.116C140.29 30.436 140.154 30.948 140.146 31.652H143.266ZM146.039 35H145.139V29H146.027V29.42C146.675 29.06 147.295 28.88 147.887 28.88C148.687 28.88 149.223 29.096 149.495 29.528C149.775 29.96 149.915 30.728 149.915 31.832V35H149.027V31.856C149.027 31.024 148.943 30.456 148.775 30.152C148.615 29.84 148.267 29.684 147.731 29.684C147.475 29.684 147.203 29.724 146.915 29.804C146.635 29.876 146.419 29.948 146.267 30.02L146.039 30.128V35ZM154.227 29.78H152.319V32.648C152.319 33.336 152.367 33.788 152.463 34.004C152.567 34.22 152.807 34.328 153.183 34.328L154.251 34.256L154.311 35C153.775 35.088 153.367 35.132 153.087 35.132C152.463 35.132 152.031 34.98 151.791 34.676C151.551 34.372 151.431 33.792 151.431 32.936V29.78H150.579V29H151.431V27.164H152.319V29H154.227V29.78ZM154.632 31.988C154.632 30.892 154.828 30.1 155.22 29.612C155.612 29.124 156.272 28.88 157.2 28.88C158.136 28.88 158.796 29.124 159.18 29.612C159.572 30.1 159.768 30.892 159.768 31.988C159.768 33.084 159.584 33.88 159.216 34.376C158.848 34.872 158.176 35.12 157.2 35.12C156.224 35.12 155.552 34.872 155.184 34.376C154.816 33.88 154.632 33.084 154.632 31.988ZM155.556 31.976C155.556 32.848 155.66 33.46 155.868 33.812C156.084 34.164 156.528 34.34 157.2 34.34C157.88 34.34 158.324 34.168 158.532 33.824C158.74 33.472 158.844 32.856 158.844 31.976C158.844 31.096 158.728 30.492 158.496 30.164C158.264 29.828 157.832 29.66 157.2 29.66C156.576 29.66 156.144 29.828 155.904 30.164C155.672 30.492 155.556 31.096 155.556 31.976Z" fill="#F9F4ED"/>
</svg>
