<svg width="286" height="65" viewBox="0 0 286 65" fill="none" xmlns="http://www.w3.org/2000/svg">
<path d="M73.3528 33.3876C73.3528 30.4676 74.0521 27.7676 75.4508 25.2876C76.8883 22.7676 78.831 20.7676 81.2787 19.2876C83.6875 17.8476 86.31 17.1276 89.1463 17.1276C91.594 17.1276 93.9057 17.6876 96.0814 18.8076C98.2571 19.9276 100.103 21.4676 101.618 23.4276C103.094 25.4276 104.085 27.6276 104.59 30.0276L97.7132 29.9676C97.0527 28.1676 95.9454 26.7076 94.3913 25.5876C92.8372 24.4676 91.0889 23.9076 89.1463 23.9076C87.5145 23.9076 85.9798 24.3476 84.5423 25.2276C83.1436 26.0676 82.0363 27.2076 81.2204 28.6476C80.3656 30.0476 79.9383 31.6276 79.9383 33.3876C79.9383 35.0676 80.3462 36.6476 81.1621 38.1276C82.0169 39.5676 83.1436 40.7076 84.5423 41.5476C85.9021 42.4276 87.4368 42.8676 89.1463 42.8676C91.0889 42.8676 92.8372 42.3076 94.3913 41.1876C95.9843 40.0276 97.111 38.5476 97.7715 36.7476H104.59C104.085 39.1876 103.094 41.3876 101.618 43.3476C100.141 45.3076 98.3154 46.8476 96.1397 47.9676C94.0028 49.0876 91.6717 49.6476 89.1463 49.6476C86.31 49.6476 83.6681 48.9276 81.2204 47.4876C78.8115 46.0076 76.9078 44.0076 75.5091 41.4876C74.0716 39.0476 73.3528 36.3476 73.3528 33.3876Z" fill="#051D32"/>
<path d="M122.156 49.6476C119.319 49.6476 116.677 48.9276 114.23 47.4876C111.821 46.0076 109.917 44.0076 108.518 41.4876C107.081 39.0476 106.362 36.3476 106.362 33.3876C106.362 30.4676 107.061 27.7676 108.46 25.2876C109.898 22.7676 111.84 20.7676 114.288 19.2876C116.697 17.8476 119.319 17.1276 122.156 17.1276C124.953 17.1276 127.576 17.8676 130.023 19.3476C132.471 20.7876 134.414 22.7476 135.851 25.2276C137.25 27.7476 137.949 30.4676 137.949 33.3876C137.949 36.3076 137.23 39.0276 135.793 41.5476C134.394 44.0276 132.49 45.9876 130.081 47.4276C127.673 48.9076 125.031 49.6476 122.156 49.6476ZM122.156 42.3876C123.749 42.3876 125.206 41.9876 126.526 41.1876C127.886 40.3876 128.955 39.2876 129.732 37.8876C130.509 36.4876 130.897 34.9876 130.897 33.3876C130.897 31.7476 130.509 30.2476 129.732 28.8876C128.994 27.4876 127.945 26.3876 126.585 25.5876C125.225 24.7876 123.749 24.3876 122.156 24.3876C120.563 24.3876 119.086 24.7876 117.726 25.5876C116.405 26.3476 115.356 27.4276 114.579 28.8276C113.802 30.2276 113.414 31.7476 113.414 33.3876C113.414 35.0276 113.802 36.5476 114.579 37.9476C115.356 39.3076 116.425 40.3876 117.785 41.1876C119.145 41.9876 120.601 42.3876 122.156 42.3876Z" fill="#051D32"/>
<path d="M162.267 31.4676C162.267 29.1476 161.49 27.3276 159.936 26.0076C158.381 24.6476 156.497 23.9676 154.283 23.9676C152.029 23.9676 150.125 24.6476 148.571 26.0076C147.017 27.3276 146.24 29.1476 146.24 31.4676V49.6476H139.713V31.4676C139.713 28.6676 140.373 26.1876 141.694 24.0276C143.054 21.8276 144.88 20.1276 147.173 18.9276C149.426 17.7676 151.796 17.1876 154.283 17.1876C156.847 17.1876 159.236 17.7876 161.451 18.9876C163.665 20.1476 165.472 21.7876 166.871 23.9076C168.231 26.1476 168.91 28.6676 168.91 31.4676L168.794 49.6476H162.267V31.4676Z" fill="#051D32"/>
<path d="M170.673 33.3876C170.673 30.4676 171.373 27.7676 172.771 25.2876C174.209 22.7676 176.152 20.7676 178.599 19.2876C181.008 17.8476 183.631 17.1276 186.467 17.1276C188.915 17.1276 191.226 17.6876 193.402 18.8076C195.578 19.9276 197.423 21.4676 198.938 23.4276C200.415 25.4276 201.406 27.6276 201.911 30.0276L195.034 29.9676C194.373 28.1676 193.266 26.7076 191.712 25.5876C190.158 24.4676 188.409 23.9076 186.467 23.9076C184.835 23.9076 183.3 24.3476 181.863 25.2276C180.464 26.0676 179.357 27.2076 178.541 28.6476C177.686 30.0476 177.259 31.6276 177.259 33.3876C177.259 35.0676 177.667 36.6476 178.483 38.1276C179.337 39.5676 180.464 40.7076 181.863 41.5476C183.223 42.4276 184.757 42.8676 186.467 42.8676C188.409 42.8676 190.158 42.3076 191.712 41.1876C193.305 40.0276 194.432 38.5476 195.092 36.7476H201.911C201.406 39.1876 200.415 41.3876 198.938 43.3476C197.462 45.3076 195.636 46.8476 193.46 47.9676C191.323 49.0876 188.992 49.6476 186.467 49.6476C183.631 49.6476 180.989 48.9276 178.541 47.4876C176.132 46.0076 174.228 44.0076 172.83 41.4876C171.392 39.0476 170.673 36.3476 170.673 33.3876Z" fill="#051D32"/>
<path d="M219.476 49.6476C216.64 49.6476 213.998 48.9276 211.55 47.4876C209.141 46.0076 207.238 44.0076 205.839 41.4876C204.401 39.0476 203.683 36.3476 203.683 33.3876C203.683 30.4676 204.382 27.7676 205.781 25.2876C207.218 22.7676 209.161 20.7676 211.609 19.2876C214.017 17.8476 216.64 17.1276 219.476 17.1276C222.274 17.1276 224.896 17.8676 227.344 19.3476C229.792 20.7876 231.734 22.7476 233.172 25.2276C234.57 27.7476 235.27 30.4676 235.27 33.3876C235.27 36.3076 234.551 39.0276 233.113 41.5476C231.715 44.0276 229.811 45.9876 227.402 47.4276C224.993 48.9076 222.351 49.6476 219.476 49.6476ZM219.476 42.3876C221.069 42.3876 222.526 41.9876 223.847 41.1876C225.207 40.3876 226.275 39.2876 227.052 37.8876C227.829 36.4876 228.218 34.9876 228.218 33.3876C228.218 31.7476 227.829 30.2476 227.052 28.8876C226.314 27.4876 225.265 26.3876 223.905 25.5876C222.546 24.7876 221.069 24.3876 219.476 24.3876C217.883 24.3876 216.407 24.7876 215.047 25.5876C213.726 26.3476 212.677 27.4276 211.9 28.8276C211.123 30.2276 210.734 31.7476 210.734 33.3876C210.734 35.0276 211.123 36.5476 211.9 37.9476C212.677 39.3076 213.745 40.3876 215.105 41.1876C216.465 41.9876 217.922 42.3876 219.476 42.3876Z" fill="#051D32"/>
<path d="M254.342 24.2676C253.643 24.1876 253.196 24.1476 253.002 24.1476C251.37 24.1476 249.835 24.5876 248.398 25.4676C246.999 26.3076 245.892 27.4476 245.076 28.8876C244.221 30.2876 243.794 31.8676 243.794 33.6276L243.91 49.7676H237.092L237.034 32.5476C237.034 29.7076 237.733 27.0876 239.132 24.6876C240.569 22.2476 242.531 20.3076 245.018 18.8676C247.427 17.4676 250.03 16.7676 252.827 16.7676L254.342 16.8876V24.2676Z" fill="#051D32"/>
<path d="M269.559 49.6476C266.723 49.6476 264.081 48.9276 261.633 47.4876C259.225 46.0076 257.321 44.0076 255.922 41.4876C254.485 39.0476 253.766 36.3476 253.766 33.3876C253.766 30.4676 254.465 27.7676 255.864 25.2876C257.301 22.7676 259.244 20.7676 261.692 19.2876C264.101 17.8476 266.723 17.1276 269.559 17.1276C272.357 17.1276 274.979 17.8676 277.427 19.3476C279.875 20.7876 281.817 22.7476 283.255 25.2276C284.653 27.7476 285.353 30.4676 285.353 33.3876C285.353 36.3076 284.634 39.0276 283.197 41.5476C281.798 44.0276 279.894 45.9876 277.485 47.4276C275.076 48.9076 272.434 49.6476 269.559 49.6476ZM269.559 42.3876C271.152 42.3876 272.609 41.9876 273.93 41.1876C275.29 40.3876 276.358 39.2876 277.136 37.8876C277.913 36.4876 278.301 34.9876 278.301 33.3876C278.301 31.7476 277.913 30.2476 277.136 28.8876C276.397 27.4876 275.348 26.3876 273.988 25.5876C272.629 24.7876 271.152 24.3876 269.559 24.3876C267.966 24.3876 266.49 24.7876 265.13 25.5876C263.809 26.3476 262.76 27.4276 261.983 28.8276C261.206 30.2276 260.818 31.7476 260.818 33.3876C260.818 35.0276 261.206 36.5476 261.983 37.9476C262.76 39.3076 263.829 40.3876 265.188 41.1876C266.548 41.9876 268.005 42.3876 269.559 42.3876Z" fill="#051D32"/>
<mask id="mask0_3_599" style="mask-type:luminance" maskUnits="userSpaceOnUse" x="0" y="0" width="65" height="65">
<path d="M32.3528 0.767578C50.0259 0.767578 64.3528 15.0945 64.3528 32.7676C64.3528 50.4407 50.0259 64.7676 32.3528 64.7676C14.6797 64.7676 0.352783 50.4407 0.352783 32.7676C0.352783 15.0945 14.6797 0.767578 32.3528 0.767578Z" fill="white"/>
</mask>
<g mask="url(#mask0_3_599)">
<path d="M32.3501 60.4949C36.3553 60.4949 39.9826 62.1187 42.6069 64.743L42.8501 64.992C45.3314 67.5944 46.8549 71.1197 46.855 74.9998C46.855 78.8799 45.3313 82.4052 42.8501 85.0076L42.6069 85.2567C39.9826 87.881 36.3554 89.5047 32.3501 89.5047C28.47 89.5046 24.9447 87.9811 22.3423 85.4998L22.0933 85.2567C19.469 82.6323 17.8452 79.005 17.8452 74.9998C17.8453 70.9946 19.4689 67.3673 22.0933 64.743L22.3423 64.5008C24.9448 62.0194 28.4699 60.495 32.3501 60.4949ZM32.3501 62.4393C29.0983 62.4393 26.1357 63.6743 23.9048 65.702L23.4683 66.118C21.1948 68.3915 19.7896 71.5312 19.7896 74.9998C19.7896 78.4684 21.1949 81.6081 23.4683 83.8817L23.9048 84.2977C26.1357 86.3254 29.0982 87.5603 32.3501 87.5604C35.8188 87.5604 38.9584 86.1552 41.2319 83.8817L41.6479 83.4451C43.6756 81.2142 44.9106 78.2517 44.9106 74.9998C44.9106 71.7479 43.6757 68.7854 41.6479 66.5545L41.2319 66.118C38.9584 63.8446 35.8187 62.4393 32.3501 62.4393Z" fill="#051D32" stroke="#051D32"/>
<path d="M32.3499 53.8288C38.1959 53.8288 43.4899 56.1993 47.3206 60.03L47.675 60.3932C51.2967 64.1919 53.5216 69.3364 53.5217 74.9997C53.5217 80.6632 51.2969 85.8084 47.675 89.6071L47.3206 89.9704C43.4899 93.8011 38.1959 96.1716 32.3499 96.1716C26.504 96.1715 21.2108 93.8009 17.3801 89.9704C13.5494 86.1397 11.179 80.8458 11.179 74.9997C11.179 69.1538 13.5495 63.8606 17.3801 60.03L17.7434 59.6745C21.542 56.053 26.6867 53.8289 32.3499 53.8288ZM32.3499 55.903C27.2411 55.9031 22.6014 57.9079 19.1741 61.1755L18.8459 61.4958C15.3896 64.9522 13.2533 69.726 13.2532 74.9997C13.2532 80.2733 15.3897 85.0472 18.8459 88.5036C22.3023 91.96 27.0762 94.0973 32.3499 94.0974C37.6236 94.0974 42.3973 91.9601 45.8538 88.5036L46.1741 88.1765C49.442 84.749 51.4475 80.1088 51.4475 74.9997C51.4474 69.8908 49.4419 65.2513 46.1741 61.8239L45.8538 61.4958C42.3973 58.0395 37.6235 55.903 32.3499 55.903Z" fill="#051D32" stroke="#051D32"/>
<path d="M32.3499 47.1627C40.0367 47.1627 46.9974 50.279 52.0344 55.316C57.0713 60.353 60.1876 67.313 60.1877 74.9996C60.1877 82.6865 57.0715 89.6471 52.0344 94.6842C46.9974 99.7212 40.0367 102.837 32.3499 102.837C24.6632 102.837 17.7032 99.7211 12.6663 94.6842C7.62922 89.6471 4.51294 82.6865 4.51294 74.9996C4.51305 67.3129 7.62931 60.353 12.6663 55.316C17.7032 50.2791 24.6631 47.1628 32.3499 47.1627ZM32.3499 49.3658C25.2712 49.3659 18.8632 52.2343 14.2239 56.8736C9.5846 61.5129 6.71617 67.9209 6.71606 74.9996C6.71606 82.0784 9.58451 88.4872 14.2239 93.1266C18.8631 97.7658 25.2712 100.634 32.3499 100.634C39.4287 100.634 45.8374 97.7659 50.4768 93.1266C55.1162 88.4872 57.9846 82.0785 57.9846 74.9996C57.9845 67.921 55.116 61.5129 50.4768 56.8736C45.8374 52.2343 39.4287 49.3658 32.3499 49.3658Z" fill="#051D32" stroke="#051D32"/>
<path d="M32.3496 40.4966C41.8772 40.4966 50.5047 44.3587 56.748 50.6021L57.3262 51.1948C63.2287 57.3859 66.8534 65.7699 66.8535 74.9995C66.8535 84.5271 62.9914 93.1546 56.748 99.3979C50.5047 105.641 41.8772 109.503 32.3496 109.503C23.12 109.503 14.7359 105.879 8.54492 99.9761L7.95215 99.3979C1.70877 93.1546 -2.15332 84.5271 -2.15332 74.9995C-2.15319 65.4721 1.70888 56.8453 7.95215 50.6021L8.54492 50.0239C14.736 44.1214 23.12 40.4967 32.3496 40.4966ZM32.3496 42.8296C23.7435 42.8297 15.9276 46.2081 10.1543 51.7124L9.60156 52.2515C3.7794 58.0736 0.179815 66.1158 0.179688 74.9995C0.179688 83.8834 3.77929 91.9263 9.60156 97.7485L10.1543 98.2876C15.9276 103.792 23.7436 107.17 32.3496 107.17C41.2335 107.17 49.2764 103.571 55.0986 97.7485C60.9209 91.9263 64.5205 83.8834 64.5205 74.9995C64.5204 66.3935 61.142 58.5775 55.6377 52.8042L55.0986 52.2515C49.2764 46.4292 41.2335 42.8296 32.3496 42.8296Z" fill="#051D32" stroke="#051D32"/>
<path d="M32.3503 33.8305C43.7186 33.8306 54.0111 38.4395 61.4607 45.8891L62.1511 46.5952C69.1944 53.9825 73.5193 63.9872 73.5193 75.0004C73.5192 86.3687 68.9103 96.6612 61.4607 104.111C54.0111 111.56 43.7186 116.169 32.3503 116.169C20.9819 116.169 10.6887 111.56 3.23901 104.111C-4.21055 96.6612 -8.81947 86.3686 -8.81958 75.0004C-8.81958 63.632 -4.21069 53.3388 3.23901 45.8891L3.94507 45.1987C11.3325 38.1554 21.3371 33.8305 32.3503 33.8305ZM32.3503 36.2924C21.9954 36.2924 12.5907 40.3581 5.64429 46.9809L4.97925 47.6293C-2.02594 54.6345 -6.35767 64.3114 -6.35767 75.0004C-6.35755 85.6892 -2.02581 95.3654 4.97925 102.371C11.9844 109.376 21.6613 113.707 32.3503 113.707C43.0392 113.707 52.7154 109.376 59.7205 102.371C66.7256 95.3654 71.0573 85.6893 71.0574 75.0004C71.0574 64.6455 66.9918 55.2408 60.3689 48.2944L59.7205 47.6293C52.7154 40.6243 43.0391 36.2925 32.3503 36.2924Z" fill="#051D32" stroke="#051D32"/>
<path d="M32.3501 27.1644C45.5591 27.1645 57.5184 32.5193 66.1743 41.1752L66.9761 41.9965C75.1598 50.5801 80.1851 62.2039 80.1851 75.0004C80.185 87.7966 75.1597 99.4198 66.9761 108.003L66.1743 108.825C57.5184 117.481 45.5592 122.835 32.3501 122.835C19.5536 122.835 7.92981 117.81 -0.653809 109.626L-1.4751 108.825C-10.131 100.169 -15.4858 88.2094 -15.4858 75.0004C-15.4858 61.7912 -10.1311 49.8312 -1.4751 41.1752L-0.653809 40.3734C7.9298 32.1898 19.5537 27.1644 32.3501 27.1644ZM32.3501 29.7562C20.2465 29.7562 9.25371 34.5082 1.13428 42.2494L0.356934 43.0072C-7.83116 51.1953 -12.894 62.5063 -12.894 75.0004C-12.894 87.4942 -7.831 98.8045 0.356934 106.993L1.13428 107.751C9.25368 115.492 20.2466 120.245 32.3501 120.245C44.844 120.244 56.1543 115.181 64.3423 106.993L65.1011 106.216C72.8422 98.0968 77.5942 87.1039 77.5942 75.0004C77.5942 62.8969 72.8421 51.9039 65.1011 43.7845L64.3423 43.0072C56.1543 34.8193 44.844 29.7563 32.3501 29.7562Z" fill="#051D32" stroke="#051D32"/>
<path d="M32.3506 20.4983C47.4004 20.4984 61.0264 26.5991 70.8887 36.4612C80.751 46.3236 86.8516 59.9503 86.8516 75.0003C86.8515 89.815 80.9405 103.25 71.3486 113.074L70.8887 113.538C61.0264 123.401 47.4005 129.501 32.3506 129.501C17.5359 129.501 4.10078 123.59 -5.72266 113.998L-6.18848 113.538C-16.0506 103.676 -22.1513 90.0501 -22.1514 75.0003C-22.1514 59.9503 -16.0508 46.3236 -6.18848 36.4612L-5.72266 36.0022C4.10081 26.4103 17.5358 20.4983 32.3506 20.4983ZM32.3506 23.219C18.4985 23.219 5.9174 28.6576 -3.375 37.5169L-4.26465 38.385C-13.6357 47.7561 -19.4307 60.7011 -19.4307 75.0003C-19.4306 89.2992 -13.6355 102.244 -4.26465 111.615L-3.375 112.483C5.91742 121.342 18.4984 126.781 32.3506 126.781C46.6496 126.78 59.5939 120.985 68.9648 111.615L69.833 110.726C78.6925 101.433 84.1308 88.8525 84.1309 75.0003C84.1309 60.7011 78.3359 47.7561 68.9648 38.385C59.5939 29.0142 46.6495 23.2191 32.3506 23.219Z" fill="#051D32" stroke="#051D32"/>
<path d="M32.3503 13.8322C49.2411 13.8323 64.5336 20.6796 75.6023 31.7482L76.1179 32.2697C86.8832 43.2948 93.5183 58.3733 93.5183 75.0002C93.5183 91.6271 86.8833 106.706 76.1179 117.731L75.6023 118.252C64.5336 129.321 49.2411 136.168 32.3503 136.168C15.4596 136.168 0.167053 129.321 -10.9016 118.252C-21.9703 107.183 -28.8176 91.8909 -28.8176 75.0002C-28.8176 58.1094 -21.9703 42.8169 -10.9016 31.7482C0.167067 20.6795 15.4596 13.8322 32.3503 13.8322ZM32.3503 16.6828C16.4977 16.6828 2.12331 23.0071 -8.38892 33.2717L-8.88696 33.7629C-19.4409 44.3168 -25.967 58.896 -25.967 75.0002C-25.967 91.1042 -19.4406 105.683 -8.88696 116.237C1.66695 126.79 16.2461 133.318 32.3503 133.318C48.4545 133.318 63.0328 126.79 73.5867 116.237L74.0789 115.739C84.3434 105.227 90.6677 90.8527 90.6677 75.0002C90.6677 59.1476 84.3433 44.7731 74.0789 34.2609L73.5867 33.7629C63.0328 23.2092 48.4543 16.6828 32.3503 16.6828Z" fill="#051D32" stroke="#051D32"/>
<path d="M32.3501 7.16614C51.0816 7.16616 68.0409 14.7593 80.3159 27.0343L80.8882 27.6134C92.8264 39.84 100.184 56.5614 100.184 75.0001C100.184 93.4388 92.8265 110.16 80.8882 122.387L80.3159 122.966C68.0409 135.241 51.0816 142.834 32.3501 142.834C13.9112 142.834 -2.81001 135.476 -15.0366 123.537L-15.6157 122.966C-27.8907 110.691 -35.4839 93.7317 -35.4839 75.0001C-35.4839 56.2686 -27.8907 39.3093 -15.6157 27.0343L-15.0366 26.462C-2.81004 14.5237 13.9114 7.16614 32.3501 7.16614ZM32.3501 10.1456C14.7207 10.1456 -1.26511 17.1789 -12.9556 28.5939L-13.5093 29.1407C-25.2461 40.8776 -32.5044 57.0908 -32.5044 75.0001C-32.5044 92.9094 -25.2461 109.123 -13.5093 120.859L-12.9556 121.406C-1.26512 132.821 14.7208 139.855 32.3501 139.855C50.2593 139.855 66.4727 132.596 78.2095 120.859L78.7563 120.306C90.1713 108.615 97.2046 92.6295 97.2046 75.0001C97.2046 57.3708 90.1712 41.3849 78.7563 29.6945L78.2095 29.1407C66.4727 17.4039 50.2593 10.1457 32.3501 10.1456Z" fill="#051D32" stroke="#051D32"/>
<path d="M32.3501 0.5C52.9225 0.500002 71.5484 8.83897 85.0298 22.3203L85.6577 22.9561C98.7695 36.3842 106.85 54.749 106.85 75C106.85 95.251 98.7695 113.616 85.6577 127.044L85.0298 127.68C71.5485 141.161 52.9225 149.5 32.3501 149.5C12.0991 149.5 -6.26567 141.419 -19.6938 128.308L-20.3296 127.68C-33.8109 114.198 -42.1499 95.5724 -42.1499 75C-42.1499 54.4276 -33.8109 35.8017 -20.3296 22.3203L-19.6938 21.6924C-6.26567 8.58059 12.0991 0.5 32.3501 0.5ZM32.3501 3.60938C12.9437 3.60938 -4.65325 11.3514 -17.522 23.917L-18.1313 24.5186C-31.0511 37.4383 -39.0405 55.2857 -39.0405 75C-39.0405 94.7143 -31.0511 112.562 -18.1313 125.481L-17.522 126.083C-4.65326 138.649 12.9437 146.391 32.3501 146.391C52.0644 146.391 69.9118 138.401 82.8315 125.481L83.4331 124.872C95.9987 112.003 103.741 94.4064 103.741 75C103.741 55.5936 95.9987 37.9966 83.4331 25.1279L82.8315 24.5186C69.9118 11.5988 52.0644 3.60938 32.3501 3.60938Z" fill="#051D32" stroke="#051D32"/>
</g>
</svg>
