<svg width="294" height="66" viewBox="0 0 294 66" fill="none" xmlns="http://www.w3.org/2000/svg">
<circle cx="33" cy="33" r="33" fill="#051D32"/>
<path d="M82 33.62C82 30.7 82.6993 28 84.098 25.52C85.5356 23 87.4782 21 89.9259 19.52C92.3347 18.08 94.9573 17.36 97.7935 17.36C100.241 17.36 102.553 17.92 104.729 19.04C106.904 20.16 108.75 21.7 110.265 23.66C111.741 25.66 112.732 27.86 113.237 30.26L106.36 30.2C105.7 28.4 104.593 26.94 103.039 25.82C101.484 24.7 99.7361 24.14 97.7935 24.14C96.1617 24.14 94.627 24.58 93.1895 25.46C91.7908 26.3 90.6835 27.44 89.8676 28.88C89.0129 30.28 88.5855 31.86 88.5855 33.62C88.5855 35.3 88.9934 36.88 89.8093 38.36C90.6641 39.8 91.7908 40.94 93.1895 41.78C94.5493 42.66 96.084 43.1 97.7935 43.1C99.7361 43.1 101.484 42.54 103.039 41.42C104.631 40.26 105.758 38.78 106.419 36.98H113.237C112.732 39.42 111.741 41.62 110.265 43.58C108.789 45.54 106.963 47.08 104.787 48.2C102.65 49.32 100.319 49.88 97.7935 49.88C94.9573 49.88 92.3153 49.16 89.8676 47.72C87.4588 46.24 85.555 44.24 84.1563 41.72C82.7188 39.28 82 36.58 82 33.62Z" fill="#051D32"/>
<path d="M130.803 49.88C127.967 49.88 125.325 49.16 122.877 47.72C120.468 46.24 118.564 44.24 117.166 41.72C115.728 39.28 115.009 36.58 115.009 33.62C115.009 30.7 115.709 28 117.107 25.52C118.545 23 120.488 21 122.935 19.52C125.344 18.08 127.967 17.36 130.803 17.36C133.6 17.36 136.223 18.1 138.67 19.58C141.118 21.02 143.061 22.98 144.498 25.46C145.897 27.98 146.596 30.7 146.596 33.62C146.596 36.54 145.878 39.26 144.44 41.78C143.041 44.26 141.138 46.22 138.729 47.66C136.32 49.14 133.678 49.88 130.803 49.88ZM130.803 42.62C132.396 42.62 133.853 42.22 135.174 41.42C136.534 40.62 137.602 39.52 138.379 38.12C139.156 36.72 139.545 35.22 139.545 33.62C139.545 31.98 139.156 30.48 138.379 29.12C137.641 27.72 136.592 26.62 135.232 25.82C133.872 25.02 132.396 24.62 130.803 24.62C129.21 24.62 127.733 25.02 126.374 25.82C125.053 26.58 124.004 27.66 123.227 29.06C122.45 30.46 122.061 31.98 122.061 33.62C122.061 35.26 122.45 36.78 123.227 38.18C124.004 39.54 125.072 40.62 126.432 41.42C127.792 42.22 129.249 42.62 130.803 42.62Z" fill="#051D32"/>
<path d="M170.914 31.7C170.914 29.38 170.137 27.56 168.583 26.24C167.029 24.88 165.144 24.2 162.93 24.2C160.676 24.2 158.773 24.88 157.218 26.24C155.664 27.56 154.887 29.38 154.887 31.7V49.88H148.36V31.7C148.36 28.9 149.021 26.42 150.342 24.26C151.701 22.06 153.527 20.36 155.82 19.16C158.073 18 160.443 17.42 162.93 17.42C165.494 17.42 167.883 18.02 170.098 19.22C172.313 20.38 174.119 22.02 175.518 24.14C176.878 26.38 177.558 28.9 177.558 31.7L177.441 49.88H170.914V31.7Z" fill="#051D32"/>
<path d="M179.321 33.62C179.321 30.7 180.02 28 181.419 25.52C182.856 23 184.799 21 187.246 19.52C189.655 18.08 192.278 17.36 195.114 17.36C197.562 17.36 199.873 17.92 202.049 19.04C204.225 20.16 206.07 21.7 207.586 23.66C209.062 25.66 210.053 27.86 210.558 30.26L203.681 30.2C203.021 28.4 201.913 26.94 200.359 25.82C198.805 24.7 197.057 24.14 195.114 24.14C193.482 24.14 191.948 24.58 190.51 25.46C189.111 26.3 188.004 27.44 187.188 28.88C186.333 30.28 185.906 31.86 185.906 33.62C185.906 35.3 186.314 36.88 187.13 38.36C187.985 39.8 189.111 40.94 190.51 41.78C191.87 42.66 193.405 43.1 195.114 43.1C197.057 43.1 198.805 42.54 200.359 41.42C201.952 40.26 203.079 38.78 203.739 36.98H210.558C210.053 39.42 209.062 41.62 207.586 43.58C206.109 45.54 204.283 47.08 202.108 48.2C199.971 49.32 197.639 49.88 195.114 49.88C192.278 49.88 189.636 49.16 187.188 47.72C184.779 46.24 182.876 44.24 181.477 41.72C180.039 39.28 179.321 36.58 179.321 33.62Z" fill="#051D32"/>
<path d="M228.123 49.88C225.287 49.88 222.645 49.16 220.198 47.72C217.789 46.24 215.885 44.24 214.486 41.72C213.049 39.28 212.33 36.58 212.33 33.62C212.33 30.7 213.029 28 214.428 25.52C215.865 23 217.808 21 220.256 19.52C222.665 18.08 225.287 17.36 228.123 17.36C230.921 17.36 233.543 18.1 235.991 19.58C238.439 21.02 240.381 22.98 241.819 25.46C243.218 27.98 243.917 30.7 243.917 33.62C243.917 36.54 243.198 39.26 241.761 41.78C240.362 44.26 238.458 46.22 236.049 47.66C233.64 49.14 230.998 49.88 228.123 49.88ZM228.123 42.62C229.716 42.62 231.173 42.22 232.494 41.42C233.854 40.62 234.923 39.52 235.7 38.12C236.477 36.72 236.865 35.22 236.865 33.62C236.865 31.98 236.477 30.48 235.7 29.12C234.961 27.72 233.912 26.62 232.553 25.82C231.193 25.02 229.716 24.62 228.123 24.62C226.53 24.62 225.054 25.02 223.694 25.82C222.373 26.58 221.324 27.66 220.547 29.06C219.77 30.46 219.382 31.98 219.382 33.62C219.382 35.26 219.77 36.78 220.547 38.18C221.324 39.54 222.393 40.62 223.753 41.42C225.112 42.22 226.569 42.62 228.123 42.62Z" fill="#051D32"/>
<path d="M262.989 24.5C262.29 24.42 261.843 24.38 261.649 24.38C260.017 24.38 258.483 24.82 257.045 25.7C255.646 26.54 254.539 27.68 253.723 29.12C252.868 30.52 252.441 32.1 252.441 33.86L252.558 50H245.739L245.681 32.78C245.681 29.94 246.38 27.32 247.779 24.92C249.216 22.48 251.178 20.54 253.665 19.1C256.074 17.7 258.677 17 261.474 17L262.989 17.12V24.5Z" fill="#051D32"/>
<path d="M278.207 49.88C275.37 49.88 272.728 49.16 270.281 47.72C267.872 46.24 265.968 44.24 264.569 41.72C263.132 39.28 262.413 36.58 262.413 33.62C262.413 30.7 263.112 28 264.511 25.52C265.949 23 267.891 21 270.339 19.52C272.748 18.08 275.37 17.36 278.207 17.36C281.004 17.36 283.626 18.1 286.074 19.58C288.522 21.02 290.464 22.98 291.902 25.46C293.301 27.98 294 30.7 294 33.62C294 36.54 293.281 39.26 291.844 41.78C290.445 44.26 288.541 46.22 286.132 47.66C283.724 49.14 281.082 49.88 278.207 49.88ZM278.207 42.62C279.799 42.62 281.256 42.22 282.577 41.42C283.937 40.62 285.006 39.52 285.783 38.12C286.56 36.72 286.948 35.22 286.948 33.62C286.948 31.98 286.56 30.48 285.783 29.12C285.045 27.72 283.996 26.62 282.636 25.82C281.276 25.02 279.799 24.62 278.207 24.62C276.614 24.62 275.137 25.02 273.777 25.82C272.456 26.58 271.407 27.66 270.63 29.06C269.853 30.46 269.465 31.98 269.465 33.62C269.465 35.26 269.853 36.78 270.63 38.18C271.407 39.54 272.476 40.62 273.836 41.42C275.195 42.22 276.652 42.62 278.207 42.62Z" fill="#051D32"/>
</svg>
