<?xml version="1.0" encoding="UTF-8"?>
<svg id="Layer_1" xmlns="http://www.w3.org/2000/svg" version="1.1" viewBox="0 0 512 512">
  <!-- Generator: Adobe Illustrator 29.5.1, SVG Export Plug-In . SVG Version: 2.1.0 Build 141)  -->
  <defs>
    <style>
      .st0 {
        fill: #051d32;
      }
    </style>
  </defs>
  <path class="st0" d="M433.85-52.11c0-2.92.7-5.62,2.1-8.1,1.44-2.52,3.38-4.52,5.83-6,2.41-1.44,5.03-2.16,7.87-2.16,2.45,0,4.76.56,6.94,1.68s4.02,2.66,5.54,4.62c1.48,2,2.47,4.2,2.97,6.6l-6.88-.06c-.66-1.8-1.77-3.26-3.32-4.38s-3.3-1.68-5.24-1.68c-1.63,0-3.17.44-4.6,1.32-1.4.84-2.51,1.98-3.32,3.42-.85,1.4-1.28,2.98-1.28,4.74s.41,3.26,1.22,4.74c.85,1.44,1.98,2.58,3.38,3.42,1.36.88,2.89,1.32,4.6,1.32,1.94,0,3.69-.56,5.24-1.68,1.59-1.16,2.72-2.64,3.38-4.44h6.82c-.5,2.44-1.5,4.64-2.97,6.6-1.48,1.96-3.3,3.5-5.48,4.62-2.14,1.12-4.47,1.68-6.99,1.68-2.84,0-5.48-.72-7.93-2.16-2.41-1.48-4.31-3.48-5.71-6-1.44-2.44-2.16-5.14-2.16-8.1h-.01Z"/>
  <path class="st0" d="M482.66-35.85c-2.84,0-5.48-.72-7.93-2.16-2.41-1.48-4.31-3.48-5.71-6-1.44-2.44-2.16-5.14-2.16-8.1s.7-5.62,2.1-8.1c1.44-2.52,3.38-4.52,5.83-6,2.41-1.44,5.03-2.16,7.87-2.16s5.42.74,7.87,2.22c2.45,1.44,4.39,3.4,5.83,5.88,1.4,2.52,2.1,5.24,2.1,8.16s-.72,5.64-2.16,8.16c-1.4,2.48-3.3,4.44-5.71,5.88-2.41,1.48-5.05,2.22-7.92,2.22h0ZM482.66-43.11c1.59,0,3.05-.4,4.37-1.2,1.36-.8,2.43-1.9,3.21-3.3.78-1.4,1.17-2.9,1.17-4.5s-.39-3.14-1.17-4.5c-.74-1.4-1.79-2.5-3.15-3.3s-2.84-1.2-4.43-1.2-3.07.4-4.43,1.2c-1.32.76-2.37,1.84-3.15,3.24s-1.17,2.92-1.17,4.56.39,3.16,1.17,4.56c.78,1.36,1.85,2.44,3.21,3.24,1.36.8,2.82,1.2,4.37,1.2Z"/>
  <path class="st0" d="M522.77-54.03c0-2.32-.78-4.14-2.33-5.46-1.56-1.36-3.44-2.04-5.65-2.04s-4.16.68-5.71,2.04c-1.55,1.32-2.33,3.14-2.33,5.46v18.18h-6.53v-18.18c0-2.8.66-5.28,1.98-7.44,1.36-2.2,3.19-3.9,5.48-5.1,2.25-1.16,4.62-1.74,7.11-1.74s4.95.6,7.17,1.8c2.21,1.16,4.02,2.8,5.42,4.92,1.36,2.24,2.04,4.76,2.04,7.56l-.12,18.18h-6.53v-18.18h0Z"/>
  <path class="st0" d="M531.17-52.11c0-2.92.7-5.62,2.1-8.1,1.44-2.52,3.38-4.52,5.83-6,2.41-1.44,5.03-2.16,7.87-2.16,2.45,0,4.76.56,6.93,1.68,2.18,1.12,4.02,2.66,5.54,4.62,1.48,2,2.47,4.2,2.97,6.6l-6.88-.06c-.66-1.8-1.77-3.26-3.32-4.38s-3.3-1.68-5.25-1.68c-1.63,0-3.17.44-4.6,1.32-1.4.84-2.51,1.98-3.32,3.42-.85,1.4-1.28,2.98-1.28,4.74s.41,3.26,1.22,4.74c.85,1.44,1.98,2.58,3.38,3.42,1.36.88,2.89,1.32,4.6,1.32,1.94,0,3.69-.56,5.25-1.68,1.59-1.16,2.72-2.64,3.38-4.44h6.82c-.5,2.44-1.5,4.64-2.97,6.6-1.48,1.96-3.3,3.5-5.48,4.62-2.14,1.12-4.47,1.68-6.99,1.68-2.84,0-5.48-.72-7.93-2.16-2.41-1.48-4.31-3.48-5.71-6-1.44-2.44-2.16-5.14-2.16-8.1h0Z"/>
  <path class="st0" d="M579.98-35.85c-2.84,0-5.48-.72-7.93-2.16-2.41-1.48-4.31-3.48-5.71-6-1.44-2.44-2.16-5.14-2.16-8.1s.7-5.62,2.1-8.1c1.44-2.52,3.38-4.52,5.83-6,2.41-1.44,5.03-2.16,7.87-2.16s5.42.74,7.87,2.22c2.45,1.44,4.39,3.4,5.83,5.88,1.4,2.52,2.1,5.24,2.1,8.16s-.72,5.64-2.16,8.16c-1.4,2.48-3.3,4.44-5.71,5.88-2.41,1.48-5.05,2.22-7.93,2.22ZM579.98-43.11c1.59,0,3.05-.4,4.37-1.2,1.36-.8,2.43-1.9,3.21-3.3.78-1.4,1.17-2.9,1.17-4.5s-.39-3.14-1.17-4.5c-.74-1.4-1.79-2.5-3.15-3.3s-2.84-1.2-4.43-1.2-3.07.4-4.43,1.2c-1.32.76-2.37,1.84-3.15,3.24s-1.17,2.92-1.17,4.56.39,3.16,1.17,4.56c.78,1.36,1.85,2.44,3.21,3.24s2.82,1.2,4.37,1.2h0Z"/>
  <path class="st0" d="M614.84-61.23c-.7-.08-1.15-.12-1.34-.12-1.63,0-3.17.44-4.6,1.32-1.4.84-2.51,1.98-3.32,3.42-.86,1.4-1.28,2.98-1.28,4.74l.12,16.14h-6.82l-.06-17.22c0-2.84.7-5.46,2.1-7.86,1.44-2.44,3.4-4.38,5.89-5.82,2.41-1.4,5.01-2.1,7.81-2.1l1.51.12v7.38h0Z"/>
  <path class="st0" d="M630.06-35.85c-2.84,0-5.48-.72-7.93-2.16-2.41-1.48-4.31-3.48-5.71-6-1.44-2.44-2.16-5.14-2.16-8.1s.7-5.62,2.1-8.1c1.44-2.52,3.38-4.52,5.83-6,2.41-1.44,5.03-2.16,7.87-2.16s5.42.74,7.87,2.22c2.45,1.44,4.39,3.4,5.83,5.88,1.4,2.52,2.1,5.24,2.1,8.16s-.72,5.64-2.16,8.16c-1.4,2.48-3.3,4.44-5.71,5.88-2.41,1.48-5.05,2.22-7.93,2.22ZM630.06-43.11c1.59,0,3.05-.4,4.37-1.2,1.36-.8,2.43-1.9,3.21-3.3.78-1.4,1.17-2.9,1.17-4.5s-.39-3.14-1.17-4.5c-.74-1.4-1.79-2.5-3.15-3.3s-2.84-1.2-4.43-1.2-3.07.4-4.43,1.2c-1.32.76-2.37,1.84-3.15,3.24s-1.17,2.92-1.17,4.56.39,3.16,1.17,4.56c.78,1.36,1.85,2.44,3.2,3.24,1.36.8,2.82,1.2,4.37,1.2h0Z"/>
  <g>
    <path class="st0" d="M399.83-84.38c-2.22-.48-4.51-.74-6.87-.74s-4.65.26-6.86.73c2.26-.21,4.55-.32,6.86-.32s4.61.12,6.87.33Z"/>
    <path class="st0" d="M392.95-22.77c2.42,0,4.68.7,6.6,1.89.84-.17,1.67-.39,2.49-.63-2.49-2-5.64-3.21-9.09-3.21s-6.6,1.2-9.09,3.21c.81.24,1.63.45,2.47.62,1.92-1.19,4.19-1.88,6.62-1.88Z"/>
    <path class="st0" d="M379.45-23.71l.33-.32c3.43-3.27,8.07-5.27,13.18-5.27s10.05,2.14,13.5,5.59l.32.33s.04.04.05.06c.64-.31,1.27-.63,1.89-.98-.15-.17-.29-.35-.45-.52l-.35-.36c-3.83-3.83-9.12-6.2-14.97-6.2s-10.81,2.22-14.61,5.85l-.36.36c-.28.28-.54.58-.8.88.62.35,1.26.68,1.91.98.12-.13.23-.27.36-.4Z"/>
    <path class="st0" d="M374.83-28.34c4.64-4.64,11.05-7.51,18.13-7.51s13.49,2.87,18.13,7.51c.5.5.98,1.03,1.43,1.57.59-.44,1.15-.91,1.71-1.39-.51-.6-1.03-1.18-1.58-1.73-5.04-5.04-12-8.15-19.68-8.15s-14.65,3.12-19.68,8.15c-.55.55-1.08,1.13-1.58,1.73.55.48,1.12.95,1.71,1.39.46-.54.93-1.07,1.43-1.57h-.02Z"/>
    <path class="st0" d="M370.21-32.96l.55-.54c5.77-5.5,13.59-8.88,22.2-8.88s16.93,3.6,22.75,9.42l.54.55c.37.38.72.78,1.07,1.18.52-.59,1.02-1.2,1.5-1.83-.29-.33-.58-.65-.88-.96l-.58-.59c-6.24-6.24-14.87-10.11-24.4-10.11s-17.61,3.62-23.8,9.53l-.59.58c-.5.5-.98,1.03-1.45,1.56.48.63.98,1.24,1.5,1.83.52-.6,1.05-1.18,1.6-1.74h-.01Z"/>
    <path class="st0" d="M365.58-37.58l.67-.65c6.95-6.62,16.35-10.69,26.71-10.69s20.37,4.33,27.37,11.34l.65.67c.07.08.15.16.22.24.43-.75.83-1.53,1.2-2.32l-.32-.33c-7.45-7.45-17.74-12.06-29.11-12.06s-21.02,4.32-28.41,11.37l-.71.69c-.11.11-.21.23-.32.34.37.79.77,1.56,1.19,2.31.29-.31.57-.61.87-.91h-.01Z"/>
    <path class="st0" d="M392.95-55.45c12.01,0,22.92,4.69,31.03,12.33.29-.93.53-1.88.73-2.84-8.45-7.51-19.57-12.08-31.76-12.08s-23.31,4.57-31.76,12.08c.2.96.45,1.91.73,2.84,8.1-7.64,19.02-12.32,31.03-12.32h0Z"/>
    <path class="st0" d="M360.57-50.61c8.87-7.12,20.13-11.38,32.38-11.38s23.51,4.27,32.38,11.39c.04-.68.07-1.37.07-2.06,0-.45-.02-.91-.03-1.35-9.06-6.72-20.27-10.69-32.42-10.69-12.14,0-23.35,3.97-32.42,10.68-.02.45-.03.9-.03,1.35,0,.69.03,1.38.07,2.06Z"/>
    <path class="st0" d="M392.95-68.53c11.74,0,22.67,3.48,31.82,9.45-.27-1.37-.64-2.71-1.08-4.01-9.03-5.26-19.53-8.29-30.73-8.29s-21.7,3.03-30.73,8.29c-.44,1.3-.81,2.64-1.08,4.01,9.15-5.97,20.08-9.45,31.82-9.45h-.02Z"/>
    <path class="st0" d="M392.95-75.06c10.14,0,19.73,2.33,28.28,6.48-.92-1.64-1.98-3.19-3.17-4.64-7.77-3.1-16.24-4.82-25.11-4.82s-17.34,1.72-25.11,4.82c-1.19,1.45-2.25,3.01-3.18,4.65,8.55-4.15,18.14-6.49,28.28-6.49h0Z"/>
    <path class="st0" d="M392.95-81.6c6.53,0,12.86.89,18.87,2.54-3.54-2.53-7.6-4.37-11.99-5.32-2.27-.21-4.56-.33-6.87-.33s-4.6.12-6.86.32c-4.4.95-8.47,2.79-12.01,5.33,6.01-1.64,12.34-2.54,18.87-2.54h-.01Z"/>
  </g>
  <g>
    <path class="st0" d="M300.52,50.84c-14.37-3.14-29.19-4.84-44.46-4.84s-30.09,1.7-44.39,4.77c14.63-1.37,29.45-2.09,44.39-2.09s29.83.78,44.46,2.16Z"/>
    <path class="st0" d="M256,453.64c15.66,0,30.29,4.58,42.71,12.36,5.44-1.11,10.81-2.55,16.11-4.12-16.11-13.08-36.5-20.99-58.83-20.99s-42.71,7.85-58.83,20.99c5.24,1.57,10.55,2.94,15.98,4.05,12.43-7.78,27.12-12.29,42.84-12.29Z"/>
    <path class="st0" d="M168.63,447.5l2.14-2.09c22.2-21.38,52.22-34.46,85.29-34.46s65.04,13.99,87.37,36.55l2.07,2.16s.26.26.32.39c4.14-2.03,8.22-4.12,12.23-6.41-.97-1.11-1.88-2.29-2.91-3.4l-2.27-2.35c-24.79-25.04-59.02-40.54-96.88-40.54s-69.96,14.51-94.55,38.25l-2.33,2.35c-1.81,1.83-3.49,3.79-5.18,5.75,4.01,2.29,8.15,4.45,12.36,6.41.78-.85,1.49-1.77,2.33-2.62Z"/>
    <path class="st0" d="M138.74,417.23c30.03-30.34,71.51-49.1,117.33-49.1s87.3,18.76,117.33,49.1c3.24,3.27,6.34,6.73,9.25,10.26,3.82-2.88,7.44-5.95,11.07-9.09-3.3-3.92-6.67-7.71-10.22-11.31-32.62-32.95-77.66-53.28-127.36-53.28s-94.81,20.4-127.36,53.28c-3.56,3.6-6.99,7.39-10.22,11.31,3.56,3.14,7.25,6.21,11.07,9.09,2.98-3.53,6.02-7,9.25-10.26h-.13Z"/>
    <path class="st0" d="M108.84,387.02l3.56-3.53c37.34-35.96,87.95-58.06,143.67-58.06s109.56,23.54,147.23,61.59l3.49,3.6c2.39,2.48,4.66,5.1,6.92,7.71,3.37-3.86,6.6-7.85,9.71-11.96-1.88-2.16-3.75-4.25-5.69-6.28l-3.75-3.86c-40.38-40.8-96.23-66.1-157.9-66.1s-113.96,23.67-154.02,62.31l-3.82,3.79c-3.24,3.27-6.34,6.73-9.38,10.2,3.11,4.12,6.34,8.11,9.71,11.96,3.37-3.92,6.8-7.71,10.35-11.38h-.06Z"/>
    <path class="st0" d="M78.88,356.82l4.34-4.25c44.98-43.28,105.81-69.89,172.85-69.89s131.82,28.31,177.12,74.14l4.21,4.38c.45.52.97,1.05,1.42,1.57,2.78-4.9,5.37-10,7.77-15.17l-2.07-2.16c-48.21-48.71-114.8-78.85-188.39-78.85s-136.03,28.24-183.86,74.34l-4.59,4.51c-.71.72-1.36,1.5-2.07,2.22,2.39,5.17,4.98,10.2,7.7,15.1,1.88-2.03,3.69-3.99,5.63-5.95h-.06Z"/>
    <path class="st0" d="M256,239.98c77.72,0,148.33,30.66,200.81,80.61,1.88-6.08,3.43-12.29,4.72-18.57-54.68-49.1-126.65-78.98-205.53-78.98s-150.85,29.88-205.53,78.98c1.29,6.28,2.91,12.49,4.72,18.57,52.42-49.95,123.09-80.55,200.81-80.55v-.07Z"/>
    <path class="st0" d="M46.45,271.63c57.4-46.55,130.27-74.4,209.55-74.4s152.14,27.92,209.55,74.47c.26-4.45.45-8.96.45-13.47,0-2.94-.13-5.95-.19-8.83-58.63-43.94-131.18-69.89-209.81-69.89-78.56-.07-151.11,25.96-209.81,69.83-.13,2.94-.19,5.88-.19,8.83,0,4.51.19,9.02.45,13.47Z"/>
    <path class="st0" d="M256,154.47c75.98,0,146.71,22.75,205.92,61.78-1.75-8.96-4.14-17.72-6.99-26.22-58.44-34.39-126.39-54.2-198.87-54.2s-140.43,19.81-198.87,54.2c-2.85,8.5-5.24,17.26-6.99,26.22,59.21-39.03,129.95-61.78,205.92-61.78h-.13Z"/>
    <path class="st0" d="M256,111.77c65.62,0,127.68,15.23,183.01,42.37-5.95-10.72-12.81-20.86-20.51-30.34-50.28-20.27-105.1-31.51-162.5-31.51s-112.22,11.25-162.5,31.51c-7.7,9.48-14.56,19.68-20.58,30.4,55.33-27.13,117.39-42.43,183.01-42.43h.06Z"/>
    <path class="st0" d="M256,69.01c42.26,0,83.22,5.82,122.12,16.61-22.91-16.54-49.18-28.57-77.59-34.78-14.69-1.37-29.51-2.16-44.46-2.16s-29.77.78-44.39,2.09c-28.47,6.21-54.81,18.24-77.72,34.85,38.89-10.72,79.86-16.61,122.12-16.61h-.06Z"/>
  </g>
</svg>