<?xml version="1.0" encoding="UTF-8"?>
<svg id="Layer_1" xmlns="http://www.w3.org/2000/svg" version="1.1" viewBox="0 0 286 65">
  <!-- Generator: Adobe Illustrator 29.5.1, SVG Export Plug-In . SVG Version: 2.1.0 Build 141)  -->
  <defs>
    <style>
      .st0 {
        fill: #051d32;
      }
    </style>
  </defs>
  <path class="st0" d="M73.35,33.39c0-2.92.7-5.62,2.1-8.1,1.44-2.52,3.38-4.52,5.83-6,2.41-1.44,5.03-2.16,7.87-2.16,2.45,0,4.76.56,6.94,1.68,2.18,1.12,4.02,2.66,5.54,4.62,1.48,2,2.47,4.2,2.97,6.6l-6.88-.06c-.66-1.8-1.77-3.26-3.32-4.38-1.55-1.12-3.3-1.68-5.24-1.68-1.63,0-3.17.44-4.6,1.32-1.4.84-2.51,1.98-3.32,3.42-.85,1.4-1.28,2.98-1.28,4.74s.41,3.26,1.22,4.74c.85,1.44,1.98,2.58,3.38,3.42,1.36.88,2.89,1.32,4.6,1.32,1.94,0,3.69-.56,5.24-1.68,1.59-1.16,2.72-2.64,3.38-4.44h6.82c-.5,2.44-1.5,4.64-2.97,6.6-1.48,1.96-3.3,3.5-5.48,4.62-2.14,1.12-4.47,1.68-6.99,1.68-2.84,0-5.48-.72-7.93-2.16-2.41-1.48-4.31-3.48-5.71-6-1.44-2.44-2.16-5.14-2.16-8.1Z"/>
  <path class="st0" d="M122.16,49.65c-2.84,0-5.48-.72-7.93-2.16-2.41-1.48-4.31-3.48-5.71-6-1.44-2.44-2.16-5.14-2.16-8.1s.7-5.62,2.1-8.1c1.44-2.52,3.38-4.52,5.83-6,2.41-1.44,5.03-2.16,7.87-2.16s5.42.74,7.87,2.22c2.45,1.44,4.39,3.4,5.83,5.88,1.4,2.52,2.1,5.24,2.1,8.16s-.72,5.64-2.16,8.16c-1.4,2.48-3.3,4.44-5.71,5.88-2.41,1.48-5.05,2.22-7.92,2.22ZM122.16,42.39c1.59,0,3.05-.4,4.37-1.2,1.36-.8,2.43-1.9,3.21-3.3.78-1.4,1.17-2.9,1.17-4.5s-.39-3.14-1.17-4.5c-.74-1.4-1.79-2.5-3.15-3.3-1.36-.8-2.84-1.2-4.43-1.2s-3.07.4-4.43,1.2c-1.32.76-2.37,1.84-3.15,3.24s-1.17,2.92-1.17,4.56.39,3.16,1.17,4.56c.78,1.36,1.85,2.44,3.21,3.24,1.36.8,2.82,1.2,4.37,1.2Z"/>
  <path class="st0" d="M162.27,31.47c0-2.32-.78-4.14-2.33-5.46-1.56-1.36-3.44-2.04-5.65-2.04s-4.16.68-5.71,2.04c-1.55,1.32-2.33,3.14-2.33,5.46v18.18h-6.53v-18.18c0-2.8.66-5.28,1.98-7.44,1.36-2.2,3.19-3.9,5.48-5.1,2.25-1.16,4.62-1.74,7.11-1.74s4.95.6,7.17,1.8c2.21,1.16,4.02,2.8,5.42,4.92,1.36,2.24,2.04,4.76,2.04,7.56l-.12,18.18h-6.53v-18.18Z"/>
  <path class="st0" d="M170.67,33.39c0-2.92.7-5.62,2.1-8.1,1.44-2.52,3.38-4.52,5.83-6,2.41-1.44,5.03-2.16,7.87-2.16,2.45,0,4.76.56,6.93,1.68,2.18,1.12,4.02,2.66,5.54,4.62,1.48,2,2.47,4.2,2.97,6.6l-6.88-.06c-.66-1.8-1.77-3.26-3.32-4.38-1.55-1.12-3.3-1.68-5.25-1.68-1.63,0-3.17.44-4.6,1.32-1.4.84-2.51,1.98-3.32,3.42-.85,1.4-1.28,2.98-1.28,4.74s.41,3.26,1.22,4.74c.85,1.44,1.98,2.58,3.38,3.42,1.36.88,2.89,1.32,4.6,1.32,1.94,0,3.69-.56,5.25-1.68,1.59-1.16,2.72-2.64,3.38-4.44h6.82c-.5,2.44-1.5,4.64-2.97,6.6-1.48,1.96-3.3,3.5-5.48,4.62-2.14,1.12-4.47,1.68-6.99,1.68-2.84,0-5.48-.72-7.93-2.16-2.41-1.48-4.31-3.48-5.71-6-1.44-2.44-2.16-5.14-2.16-8.1Z"/>
  <path class="st0" d="M219.48,49.65c-2.84,0-5.48-.72-7.93-2.16-2.41-1.48-4.31-3.48-5.71-6-1.44-2.44-2.16-5.14-2.16-8.1s.7-5.62,2.1-8.1c1.44-2.52,3.38-4.52,5.83-6,2.41-1.44,5.03-2.16,7.87-2.16s5.42.74,7.87,2.22c2.45,1.44,4.39,3.4,5.83,5.88,1.4,2.52,2.1,5.24,2.1,8.16s-.72,5.64-2.16,8.16c-1.4,2.48-3.3,4.44-5.71,5.88-2.41,1.48-5.05,2.22-7.93,2.22ZM219.48,42.39c1.59,0,3.05-.4,4.37-1.2,1.36-.8,2.43-1.9,3.21-3.3.78-1.4,1.17-2.9,1.17-4.5s-.39-3.14-1.17-4.5c-.74-1.4-1.79-2.5-3.15-3.3-1.36-.8-2.84-1.2-4.43-1.2s-3.07.4-4.43,1.2c-1.32.76-2.37,1.84-3.15,3.24-.78,1.4-1.17,2.92-1.17,4.56s.39,3.16,1.17,4.56c.78,1.36,1.85,2.44,3.21,3.24s2.82,1.2,4.37,1.2Z"/>
  <path class="st0" d="M254.34,24.27c-.7-.08-1.15-.12-1.34-.12-1.63,0-3.17.44-4.6,1.32-1.4.84-2.51,1.98-3.32,3.42-.86,1.4-1.28,2.98-1.28,4.74l.12,16.14h-6.82l-.06-17.22c0-2.84.7-5.46,2.1-7.86,1.44-2.44,3.4-4.38,5.89-5.82,2.41-1.4,5.01-2.1,7.81-2.1l1.51.12v7.38Z"/>
  <path class="st0" d="M269.56,49.65c-2.84,0-5.48-.72-7.93-2.16-2.41-1.48-4.31-3.48-5.71-6-1.44-2.44-2.16-5.14-2.16-8.1s.7-5.62,2.1-8.1c1.44-2.52,3.38-4.52,5.83-6,2.41-1.44,5.03-2.16,7.87-2.16s5.42.74,7.87,2.22c2.45,1.44,4.39,3.4,5.83,5.88,1.4,2.52,2.1,5.24,2.1,8.16s-.72,5.64-2.16,8.16c-1.4,2.48-3.3,4.44-5.71,5.88-2.41,1.48-5.05,2.22-7.93,2.22ZM269.56,42.39c1.59,0,3.05-.4,4.37-1.2,1.36-.8,2.43-1.9,3.21-3.3.78-1.4,1.17-2.9,1.17-4.5s-.39-3.14-1.17-4.5c-.74-1.4-1.79-2.5-3.15-3.3-1.36-.8-2.84-1.2-4.43-1.2s-3.07.4-4.43,1.2c-1.32.76-2.37,1.84-3.15,3.24s-1.17,2.92-1.17,4.56.39,3.16,1.17,4.56c.78,1.36,1.85,2.44,3.2,3.24,1.36.8,2.82,1.2,4.37,1.2Z"/>
  <g>
    <path class="st0" d="M39.33,1.12c-2.22-.48-4.51-.74-6.87-.74s-4.65.26-6.86.73c2.26-.21,4.55-.32,6.86-.32s4.61.12,6.87.33Z"/>
    <path class="st0" d="M32.45,62.73c2.42,0,4.68.7,6.6,1.89.84-.17,1.67-.39,2.49-.63-2.49-2-5.64-3.21-9.09-3.21-3.44,0-6.6,1.2-9.09,3.21.81.24,1.63.45,2.47.62,1.92-1.19,4.19-1.88,6.62-1.88Z"/>
    <path class="st0" d="M18.95,61.79l.33-.32c3.43-3.27,8.07-5.27,13.18-5.27,5.27,0,10.05,2.14,13.5,5.59l.32.33s.04.04.05.06c.64-.31,1.27-.63,1.89-.98-.15-.17-.29-.35-.45-.52l-.35-.36c-3.83-3.83-9.12-6.2-14.97-6.2-5.66,0-10.81,2.22-14.61,5.85l-.36.36c-.28.28-.54.58-.8.88.62.35,1.26.68,1.91.98.12-.13.23-.27.36-.4Z"/>
    <path class="st0" d="M14.33,57.16c4.64-4.64,11.05-7.51,18.13-7.51,7.08,0,13.49,2.87,18.13,7.51.5.5.98,1.03,1.43,1.57.59-.44,1.15-.91,1.71-1.39-.51-.6-1.03-1.18-1.58-1.73-5.04-5.04-12-8.15-19.68-8.15-7.69,0-14.65,3.12-19.68,8.15-.55.55-1.08,1.13-1.58,1.73.55.48,1.12.95,1.71,1.39.46-.54.93-1.07,1.43-1.57Z"/>
    <path class="st0" d="M9.71,52.54l.55-.54c5.77-5.5,13.59-8.88,22.2-8.88,8.88,0,16.93,3.6,22.75,9.42l.54.55c.37.38.72.78,1.07,1.18.52-.59,1.02-1.2,1.5-1.83-.29-.33-.58-.65-.88-.96l-.58-.59c-6.24-6.24-14.87-10.11-24.4-10.11-9.23,0-17.61,3.62-23.8,9.53l-.59.58c-.5.5-.98,1.03-1.45,1.56.48.63.98,1.24,1.5,1.83.52-.6,1.05-1.18,1.6-1.74Z"/>
    <path class="st0" d="M5.08,47.92l.67-.65c6.95-6.62,16.35-10.69,26.71-10.69,10.69,0,20.37,4.33,27.37,11.34l.65.67c.07.08.15.16.22.24.43-.75.83-1.53,1.2-2.32l-.32-.33c-7.45-7.45-17.74-12.06-29.11-12.06-11.01,0-21.02,4.32-28.41,11.37l-.71.69c-.11.11-.21.23-.32.34.37.79.77,1.56,1.19,2.31.29-.31.57-.61.87-.91Z"/>
    <path class="st0" d="M32.45,30.05c12.01,0,22.92,4.69,31.03,12.33.29-.93.53-1.88.73-2.84-8.45-7.51-19.57-12.08-31.76-12.08-12.19,0-23.31,4.57-31.76,12.08.2.96.45,1.91.73,2.84,8.1-7.64,19.02-12.32,31.03-12.32Z"/>
    <path class="st0" d="M.07,34.89c8.87-7.12,20.13-11.38,32.38-11.38,12.26,0,23.51,4.27,32.38,11.39.04-.68.07-1.37.07-2.06,0-.45-.02-.91-.03-1.35-9.06-6.72-20.27-10.69-32.42-10.69C20.31,20.79,9.1,24.77.03,31.48c-.02.45-.03.9-.03,1.35,0,.69.03,1.38.07,2.06Z"/>
    <path class="st0" d="M32.45,16.97c11.74,0,22.67,3.48,31.82,9.45-.27-1.37-.64-2.71-1.08-4.01-9.03-5.26-19.53-8.29-30.73-8.29-11.21,0-21.7,3.03-30.73,8.29-.44,1.3-.81,2.64-1.08,4.01,9.15-5.97,20.08-9.45,31.82-9.45Z"/>
    <path class="st0" d="M32.45,10.44c10.14,0,19.73,2.33,28.28,6.48-.92-1.64-1.98-3.19-3.17-4.64-7.77-3.1-16.24-4.82-25.11-4.82s-17.34,1.72-25.11,4.82c-1.19,1.45-2.25,3.01-3.18,4.65,8.55-4.15,18.14-6.49,28.28-6.49Z"/>
    <path class="st0" d="M32.45,3.9c6.53,0,12.86.89,18.87,2.54-3.54-2.53-7.6-4.37-11.99-5.32-2.27-.21-4.56-.33-6.87-.33s-4.6.12-6.86.32c-4.4.95-8.47,2.79-12.01,5.33,6.01-1.64,12.34-2.54,18.87-2.54Z"/>
  </g>
</svg>