<?xml version="1.0" encoding="UTF-8"?>
<svg id="Layer_1" xmlns="http://www.w3.org/2000/svg" version="1.1" viewBox="0 0 103 16">
  <!-- Generator: Adobe Illustrator 29.5.1, SVG Export Plug-In . SVG Version: 2.1.0 Build 141)  -->
  <defs>
    <style>
      .st0 {
        fill: #051d32;
      }
    </style>
  </defs>
  <path class="st0" d="M23.7,15.9c-1.4,0-2.7-.3-3.8-1-1.2-.7-2.1-1.7-2.8-2.9-.7-1.2-1-2.5-1-3.9s.3-2.7,1-3.9c.7-1.2,1.6-2.2,2.8-2.9,1.2-.7,2.4-1,3.8-1s2.6.4,3.8,1.1c1.2.7,2.1,1.6,2.8,2.9.7,1.2,1,2.5,1,4s-.3,2.7-1,4c-.7,1.2-1.6,2.2-2.8,2.9-1.2.7-2.4,1.1-3.8,1.1v-.4ZM23.7,12.4c.8,0,1.5-.2,2.1-.6.7-.4,1.2-.9,1.6-1.6.4-.7.6-1.4.6-2.2s-.2-1.5-.6-2.2-.9-1.2-1.5-1.6c-.7-.4-1.4-.6-2.1-.6s-1.5.2-2.1.6c-.6.4-1.1.9-1.5,1.6s-.6,1.4-.6,2.2.2,1.5.6,2.2.9,1.2,1.6,1.6c.7.4,1.4.6,2.1.6h-.2Z"/>
  <g>
    <path class="st0" d="M.1,8c0-1.4.3-2.7,1-3.9.7-1.2,1.6-2.2,2.8-2.9,1.2-.7,2.5-1,3.9-1s2.3.3,3.4.8,1.9,1.3,2.7,2.2c.7,1,1.2,2,1.4,3.2h-3.3c-.3-.9-.9-1.6-1.6-2.2-.8-.5-1.6-.8-2.5-.8s-1.5.2-2.2.6-1.2,1-1.6,1.7-.6,1.4-.6,2.3.2,1.6.6,2.3c.4.7,1,1.3,1.6,1.7.7.4,1.4.6,2.2.6s1.8-.3,2.5-.8c.8-.6,1.3-1.3,1.6-2.2h3.3c-.2,1.2-.7,2.2-1.4,3.2s-1.6,1.7-2.7,2.2c-1,.5-2.2.8-3.4.8s-2.7-.3-3.8-1c-1.2-.7-2.1-1.7-2.8-2.9-.7-1.2-1-2.5-1-3.9h-.1Z"/>
    <path class="st0" d="M95.2,15.9c-1.4,0-2.7-.3-3.8-1-1.2-.7-2.1-1.7-2.8-2.9-.7-1.2-1-2.5-1-3.9s.3-2.7,1-3.9c.7-1.2,1.6-2.2,2.8-2.9,1.2-.7,2.4-1,3.8-1s2.6.4,3.8,1.1c1.2.7,2.1,1.6,2.8,2.9.7,1.2,1,2.5,1,4s-.3,2.7-1,4c-.7,1.2-1.6,2.2-2.8,2.9-1.2.7-2.4,1.1-3.8,1.1v-.4ZM95.2,12.4c.8,0,1.5-.2,2.1-.6.7-.4,1.2-.9,1.6-1.6.4-.7.6-1.4.6-2.2s-.2-1.5-.6-2.2-.9-1.2-1.5-1.6c-.7-.4-1.4-.6-2.1-.6s-1.5.2-2.1.6c-.6.4-1.1.9-1.5,1.6s-.6,1.4-.6,2.2.2,1.5.6,2.2.9,1.2,1.6,1.6c.7.4,1.4.6,2.1.6h-.2Z"/>
    <path class="st0" d="M47.3,8.1c0-1.4.3-2.7,1-3.9.7-1.2,1.6-2.2,2.8-2.9,1.2-.7,2.4-1,3.8-1s2.3.3,3.4.8c1.1.5,1.9,1.3,2.7,2.2.7,1,1.2,2,1.4,3.2h-3.3c-.3-.9-.9-1.6-1.6-2.2-.8-.5-1.6-.8-2.5-.8s-1.5.2-2.2.6-1.2,1-1.6,1.7c-.4.7-.6,1.4-.6,2.3s.2,1.6.6,2.3c.4.7,1,1.3,1.6,1.7.7.4,1.4.6,2.2.6s1.8-.3,2.5-.8c.8-.6,1.3-1.3,1.6-2.2h3.3c-.2,1.2-.7,2.2-1.4,3.2s-1.6,1.7-2.7,2.2c-1,.5-2.2.8-3.4.8s-2.7-.3-3.8-1c-1.2-.7-2.1-1.7-2.8-2.9-.7-1.2-1-2.5-1-3.9Z"/>
    <path class="st0" d="M70.9,15.9c-1.4,0-2.7-.3-3.8-1-1.2-.7-2.1-1.7-2.8-2.9-.7-1.2-1-2.5-1-3.9s.3-2.7,1-3.9c.7-1.2,1.6-2.2,2.8-2.9,1.2-.7,2.4-1,3.8-1s2.6.4,3.8,1.1c1.2.7,2.1,1.6,2.8,2.9.7,1.2,1,2.5,1,4s-.3,2.7-1,4c-.7,1.2-1.6,2.2-2.8,2.9-1.2.7-2.4,1.1-3.8,1.1v-.4ZM70.9,12.4c.8,0,1.5-.2,2.1-.6.7-.4,1.2-.9,1.6-1.6.4-.7.6-1.4.6-2.2s-.2-1.5-.6-2.2-.9-1.2-1.5-1.6c-.7-.4-1.4-.6-2.1-.6s-1.5.2-2.1.6c-.6.4-1.1.9-1.5,1.6s-.6,1.4-.6,2.2.2,1.5.6,2.2.9,1.2,1.6,1.6c.7.4,1.4.6,2.1.6h-.2Z"/>
    <path class="st0" d="M43.2,7.1c0-1.1-.4-2-1.1-2.6-.8-.7-1.7-1-2.7-1s-2,.3-2.8,1c-.8.6-1.1,1.5-1.1,2.6v8.8h-3.2V7.1c0-1.4.3-2.6,1-3.6.7-1.1,1.5-1.9,2.7-2.5,1.1-.6,2.2-.8,3.4-.8s2.4.3,3.5.9c1.1.6,1.9,1.4,2.6,2.4.7,1.1,1,2.3,1,3.7v8.8h-3.2V7.1h-.1Z"/>
    <path class="st0" d="M87.8,3.6h-.6c-.8,0-1.5.2-2.2.6-.7.4-1.2,1-1.6,1.7s-.6,1.4-.6,2.3v7.8h-3.2V7.7c0-1.4.3-2.6,1-3.8s1.6-2.1,2.9-2.8c1.2-.7,2.4-1,3.8-1h.7v3.6l-.2-.1Z"/>
  </g>
</svg>