<svg width="1600" height="900" viewBox="0 0 1600 900" fill="none" xmlns="http://www.w3.org/2000/svg">
<path d="M959.977 219.34C932.12 202.391 902.249 194 870.364 194C837.976 194 808.105 202.223 780.584 218.669C752.727 235.618 730.575 258.273 714.13 287.137C704.9 303.582 698.691 320.867 694.831 338.991C706.075 336.81 717.486 335.299 729.401 335.299C746.014 335.299 761.957 337.816 777.396 342.347C779.242 337.313 781.423 332.279 784.108 327.58C793.002 311.637 804.917 299.219 820.02 290.661C835.459 281.599 852.408 276.9 870.532 276.9C888.656 276.9 905.605 281.431 921.044 290.661C936.483 299.723 948.566 312.309 956.956 328.251C965.85 343.69 970.214 360.807 970.214 379.602C970.214 397.894 965.85 415.011 956.956 430.953C948.062 446.895 935.98 459.481 920.373 468.543C915.171 471.732 909.633 474.081 903.927 476.263C904.431 478.277 905.102 480.29 905.605 482.472L871.539 482.136C871.539 482.136 870.868 482.136 870.532 482.136C870.029 482.136 869.693 482.136 869.19 482.136L827.068 481.801C825.39 477.27 823.377 473.074 821.195 468.879C821.027 468.879 820.692 468.711 820.524 468.543C805.085 459.481 792.834 447.063 783.94 431.624C783.269 430.282 782.598 428.939 781.927 427.429C765.984 417.696 748.532 412.661 729.233 412.661C717.15 412.661 705.739 415.011 694.663 419.206C698.691 437.834 705.068 455.454 714.801 471.9C730.743 500.596 752.391 523.419 779.913 540.368C795.016 549.262 810.958 555.471 827.404 559.666C827.404 559.499 827.572 559.331 827.572 559.163H905.27C905.27 559.163 904.934 560.673 904.766 561.344C924.4 557.485 943.196 550.437 960.648 539.696C988.17 523.251 1009.82 500.932 1025.76 472.739C1042.21 444.043 1050.26 412.997 1050.26 379.77C1050.26 346.543 1042.37 315.497 1026.26 286.801C1009.82 258.608 987.666 236.121 959.809 219.843L959.977 219.34Z" fill="white"/>
<path d="M905.268 482.305C904.765 480.124 904.093 478.11 903.59 476.096C893.353 479.788 882.613 481.97 871.202 481.97L905.268 482.305Z" fill="white"/>
<path d="M827.57 558.827C827.57 558.827 827.403 559.163 827.403 559.331C841.331 562.687 855.595 564.701 870.363 564.701C882.278 564.701 893.689 563.19 904.765 561.009C904.765 560.337 905.268 559.498 905.268 558.827H827.57Z" fill="white"/>
<path d="M826.899 481.633L869.021 481.968C852.071 481.8 836.129 477.437 821.194 468.711C823.375 472.906 825.389 477.102 827.067 481.633H826.899Z" fill="white"/>
<path d="M781.925 427.262C784.274 428.773 786.791 429.947 788.973 431.626C802.734 441.527 813.474 453.945 821.025 468.712C835.961 477.271 851.903 481.802 868.852 481.97H871.202C882.613 481.97 893.353 479.788 903.59 476.096C897.548 451.26 886.808 428.101 871.37 407.125C854.085 384.806 833.108 367.185 808.272 354.431C798.203 349.229 787.798 345.369 777.226 342.349C772.863 354.096 770.513 366.514 770.513 379.603C770.513 396.72 774.373 412.663 781.925 427.43V427.262Z" fill="white"/>
<path d="M827.235 559.498C819.684 579.804 806.93 596.417 788.974 609.507C771.186 622.261 751.383 628.638 729.232 628.638C709.766 628.638 692.313 623.603 676.706 613.535C660.764 603.969 647.842 590.88 638.109 574.602C628.879 557.653 624.181 539.696 624.181 520.566C624.181 500.428 629.047 482.472 638.78 466.53C648.01 450.084 660.764 437.162 676.706 427.597C682.58 424.073 688.453 421.388 694.495 419.038C691.81 406.284 690.131 393.195 690.131 379.434C690.131 365.506 691.81 352.081 694.662 338.823C675.364 342.683 656.904 349.396 639.452 359.8C611.595 376.749 589.443 399.404 572.997 428.268C557.055 456.461 549 487.338 549 520.566C549 554.296 557.223 585.174 573.669 612.863C589.611 641.559 611.259 664.382 638.78 681.331C666.638 697.777 696.844 706 729.064 706C757.928 706 784.443 699.623 808.776 686.869C833.612 674.115 854.421 656.495 871.203 634.176C887.648 612.36 898.556 588.027 904.43 561.177C893.186 563.358 881.775 564.868 870.028 564.868C855.26 564.868 840.996 562.855 827.068 559.498H827.235Z" fill="white"/>
<path d="M694.663 419.039C705.739 414.843 717.318 412.494 729.233 412.494C748.531 412.494 765.984 417.696 781.926 427.262C774.542 412.494 770.515 396.552 770.515 379.435C770.515 366.345 772.864 353.927 777.227 342.18C761.789 337.649 745.846 335.132 729.233 335.132C717.318 335.132 705.907 336.642 694.663 338.824C691.81 351.913 690.132 365.338 690.132 379.435C690.132 393.195 691.81 406.285 694.495 419.039H694.663Z" fill="white"/>
</svg>
