<?xml version="1.0" encoding="UTF-8"?>
<svg id="Layer_1" xmlns="http://www.w3.org/2000/svg" version="1.1" viewBox="0 0 256 256">
  <!-- Generator: Adobe Illustrator 29.5.1, SVG Export Plug-In . SVG Version: 2.1.0 Build 141)  -->
  <defs>
    <style>
      .st0 {
        fill: #fff;
      }

      .st1 {
        fill: #051d32;
      }
    </style>
  </defs>
  <rect class="st1" width="256" height="256"/>
  <g>
    <path class="st0" d="M147.04,40.07c-6.14-1.34-12.52-2.07-19.07-2.07s-12.89.72-19.02,2.05c6.27-.58,12.61-.91,19.02-.91s12.78.34,19.07.92h0Z"/>
    <path class="st0" d="M128,212.71c6.72,0,12.98,1.95,18.3,5.29,2.34-.49,4.63-1.09,6.9-1.75-6.9-5.61-15.66-8.99-25.2-8.99s-18.31,3.38-25.2,8.99c2.25.66,4.53,1.26,6.85,1.74,5.33-3.35,11.61-5.28,18.35-5.28h0Z"/>
    <path class="st0" d="M90.54,210.07l.91-.9c9.5-9.15,22.37-14.77,36.54-14.77s27.86,5.98,37.45,15.67l.89.92c.06.06.1.12.15.18,1.79-.86,3.53-1.77,5.25-2.74-.42-.48-.81-.98-1.24-1.44l-.98-1.02c-10.63-10.74-25.31-17.37-41.51-17.37s-29.97,6.23-40.5,16.38l-1.01,1c-.78.79-1.48,1.64-2.22,2.47,1.73.97,3.49,1.89,5.28,2.76.34-.37.65-.76,1-1.11h-.01Z"/>
    <path class="st0" d="M77.73,197.12c12.87-13,30.64-21.04,50.27-21.04s37.4,8.04,50.27,21.04c1.39,1.41,2.71,2.88,3.98,4.39,1.63-1.24,3.2-2.55,4.74-3.9-1.4-1.67-2.86-3.3-4.39-4.85-13.96-14.11-33.27-22.84-54.59-22.84s-40.61,8.73-54.59,22.84c-1.54,1.55-2.99,3.18-4.39,4.85,1.54,1.35,3.11,2.66,4.74,3.9,1.27-1.51,2.59-2.99,3.98-4.39h-.01Z"/>
    <path class="st0" d="M64.91,184.16l1.53-1.51c16.01-15.43,37.69-24.89,61.55-24.89s46.94,10.09,63.08,26.4l1.5,1.55c1.02,1.08,2,2.18,2.96,3.3,1.44-1.65,2.83-3.35,4.15-5.11-.8-.91-1.6-1.82-2.44-2.7l-1.6-1.66c-17.31-17.49-41.24-28.31-67.66-28.31s-48.85,10.16-66.01,26.7l-1.64,1.62c-1.39,1.41-2.73,2.88-4.04,4.37,1.32,1.76,2.72,3.47,4.16,5.13,1.43-1.67,2.9-3.3,4.45-4.87h0Z"/>
    <path class="st0" d="M52.1,171.21l1.84-1.81c19.26-18.56,45.34-29.95,74.06-29.95s56.47,12.14,75.9,31.77l1.8,1.86c.21.22.4.45.61.68,1.19-2.12,2.3-4.28,3.31-6.49l-.9-.92c-20.66-20.88-49.2-33.79-80.72-33.79s-58.28,12.12-78.77,31.86l-1.96,1.93c-.31.31-.58.63-.88.94,1.02,2.21,2.12,4.37,3.31,6.48.79-.86,1.58-1.72,2.4-2.55h0Z"/>
    <path class="st0" d="M128,121.12c33.32,0,63.57,13.14,86.04,34.55.79-2.61,1.47-5.27,2.03-7.97-23.43-21.04-54.26-33.84-88.07-33.84s-64.65,12.8-88.07,33.84c.56,2.7,1.24,5.35,2.02,7.95,22.47-21.4,52.74-34.53,86.04-34.53Z"/>
    <path class="st0" d="M38.2,134.7c24.6-19.95,55.81-31.89,89.8-31.89s65.2,11.96,89.79,31.91c.12-1.91.2-3.83.2-5.77,0-1.27-.04-2.54-.1-3.8-25.13-18.82-56.22-29.96-89.9-29.96s-64.78,11.15-89.91,29.97c-.05,1.26-.1,2.52-.1,3.79,0,1.93.08,3.85.2,5.76h0Z"/>
    <path class="st0" d="M127.99,84.49c32.56,0,62.85,9.76,88.24,26.49-.77-3.85-1.78-7.59-3.01-11.25-25.05-14.74-54.15-23.23-85.22-23.23s-60.18,8.49-85.22,23.23c-1.22,3.65-2.24,7.39-3.01,11.23,25.38-16.73,55.67-26.47,88.23-26.47h0Z"/>
    <path class="st0" d="M128.01,66.17c28.11,0,54.71,6.52,78.41,18.15-2.56-4.59-5.5-8.94-8.78-12.99-21.54-8.68-45.03-13.51-69.63-13.51s-48.08,4.82-69.62,13.49c-3.3,4.06-6.24,8.43-8.81,13.04,23.71-11.63,50.31-18.18,78.43-18.18Z"/>
    <path class="st0" d="M128.01,47.86c18.12,0,35.65,2.51,52.32,7.12-9.8-7.09-21.07-12.25-33.26-14.91-6.28-.58-12.63-.92-19.07-.92s-12.75.33-19.02.91c-12.21,2.66-23.49,7.82-33.31,14.93,16.68-4.61,34.21-7.12,52.33-7.12h0Z"/>
  </g>
</svg>