<?xml version="1.0" encoding="UTF-8"?>
<svg id="Layer_1" xmlns="http://www.w3.org/2000/svg" version="1.1" viewBox="0 0 258.68 256">
  <!-- Generator: Adobe Illustrator 29.5.1, SVG Export Plug-In . SVG Version: 2.1.0 Build 141)  -->
  <defs>
    <style>
      .st0 {
        fill: #fff;
      }
    </style>
  </defs>
  <path class="st0" d="M156.74,2.94c-8.83-1.91-17.99-2.94-27.4-2.94s-18.53,1.02-27.34,2.92c9.01-.82,18.12-1.3,27.34-1.3s18.37.48,27.4,1.31Z"/>
  <path class="st0" d="M129.34,248.48c9.66,0,18.65,2.78,26.3,7.52,3.36-.69,6.65-1.55,9.91-2.49-9.91-7.98-22.5-12.78-36.21-12.78-13.72,0-26.31,4.8-36.22,12.78,3.23.94,6.51,1.79,9.84,2.48,7.66-4.76,16.69-7.51,26.37-7.51Z"/>
  <path class="st0" d="M75.52,244.72l1.31-1.28c13.66-13.02,32.15-21.01,52.51-21.01,21.02,0,40.04,8.51,53.82,22.29l1.28,1.31c.08.08.14.17.22.25,2.57-1.22,5.08-2.52,7.55-3.9-.6-.68-1.16-1.4-1.78-2.05l-1.41-1.45c-15.27-15.27-36.37-24.71-59.66-24.71-22.57,0-43.07,8.86-58.21,23.3l-1.45,1.42c-1.12,1.12-2.13,2.33-3.19,3.51,2.48,1.38,5.01,2.69,7.59,3.92.49-.52.93-1.08,1.44-1.58Z"/>
  <path class="st0" d="M57.1,226.3c18.49-18.49,44.03-29.92,72.24-29.92,28.21,0,53.75,11.43,72.24,29.92,2,2,3.89,4.09,5.72,6.24,2.34-1.77,4.6-3.63,6.81-5.55-2.01-2.38-4.11-4.7-6.31-6.9-20.07-20.07-47.81-32.49-78.45-32.49-30.63,0-58.37,12.42-78.45,32.49-2.21,2.21-4.3,4.52-6.31,6.9,2.21,1.92,4.47,3.78,6.81,5.55,1.83-2.15,3.72-4.25,5.72-6.24Z"/>
  <path class="st0" d="M38.68,207.87l2.2-2.15c23.01-21.94,54.16-35.4,88.46-35.4,35.41,0,67.46,14.35,90.66,37.55l2.15,2.2c1.46,1.53,2.87,3.1,4.26,4.7,2.07-2.35,4.07-4.77,5.97-7.27-1.15-1.3-2.3-2.59-3.5-3.84l-2.3-2.36c-24.88-24.88-59.27-40.27-97.24-40.27-36.78,0-70.2,14.45-94.87,37.97l-2.36,2.3c-2,2-3.92,4.09-5.8,6.21,1.9,2.51,3.91,4.93,5.98,7.29,2.05-2.38,4.17-4.7,6.39-6.92Z"/>
  <path class="st0" d="M20.26,189.45l2.65-2.58c27.68-26.39,65.16-42.6,106.43-42.6,42.6,0,81.16,17.26,109.08,45.18l2.58,2.65c.3.31.58.64.87.96,1.71-3.01,3.3-6.08,4.76-9.23l-1.29-1.31c-29.69-29.69-70.71-48.06-116.01-48.06-43.89,0-83.76,17.24-113.2,45.31l-2.81,2.75c-.44.44-.84.9-1.27,1.34,1.46,3.15,3.05,6.22,4.76,9.22,1.14-1.22,2.27-2.44,3.45-3.62Z"/>
  <path class="st0" d="M129.34,118.22c47.88,0,91.36,18.69,123.65,49.14,1.14-3.71,2.11-7.49,2.92-11.34-33.67-29.92-77.98-48.13-126.57-48.13-48.59,0-92.91,18.21-126.57,48.13.8,3.84,1.78,7.61,2.91,11.31,32.29-30.44,75.79-49.11,123.66-49.11Z"/>
  <path class="st0" d="M.29,137.53c35.35-28.37,80.21-45.36,129.06-45.36,48.85,0,93.71,17.01,129.05,45.38.17-2.72.29-5.45.29-8.21,0-1.81-.06-3.61-.14-5.4-36.11-26.77-80.8-42.61-129.2-42.61-48.4,0-93.1,15.86-129.21,42.62-.07,1.79-.14,3.58-.14,5.39,0,2.75.12,5.48.29,8.19Z"/>
  <path class="st0" d="M129.34,66.12c46.8,0,90.33,13.88,126.81,37.68-1.1-5.47-2.56-10.8-4.32-16-36-20.97-77.82-33.04-122.48-33.04-44.66,0-86.49,12.07-122.48,33.04-1.76,5.19-3.22,10.51-4.32,15.97,36.47-23.79,80.01-37.64,126.8-37.64Z"/>
  <path class="st0" d="M129.34,40.07c40.4,0,78.63,9.28,112.69,25.81-3.68-6.53-7.9-12.71-12.62-18.47-30.96-12.35-64.71-19.21-100.07-19.21s-69.1,6.85-100.06,19.19c-4.74,5.78-8.97,11.99-12.66,18.54,34.07-16.54,72.3-25.86,112.72-25.86Z"/>
  <path class="st0" d="M129.34,14.02c26.04,0,51.23,3.57,75.19,10.12-14.09-10.09-30.28-17.42-47.8-21.2-9.03-.83-18.15-1.31-27.4-1.31s-18.33.47-27.34,1.3c-17.55,3.78-33.76,11.12-47.87,21.23,23.97-6.55,49.16-10.13,75.21-10.13Z"/>
</svg>