<svg width="154" height="25" viewBox="0 0 154 25" fill="none" xmlns="http://www.w3.org/2000/svg">
<g clip-path="url(#clip0_98_15)">
<path d="M0.149536 12.4998C0.149536 10.3998 0.59808 8.44981 1.64468 6.6498C2.69128 4.8498 4.03692 3.3498 5.83109 2.2998C7.62526 1.2498 9.56895 0.799805 11.6622 0.799805C13.7554 0.799805 15.101 1.2498 16.7457 1.9998C18.3903 2.7498 19.5864 3.9498 20.7825 5.29981C21.8291 6.79981 22.5767 8.29981 22.8758 10.0998H17.9418C17.4932 8.74981 16.5961 7.6998 15.5495 6.7998C14.3534 6.0498 13.1573 5.59981 11.8117 5.59981C10.466 5.59981 9.56895 5.89981 8.52235 6.49981C7.47575 7.09981 6.72818 7.99981 6.13012 9.04981C5.53206 10.0998 5.23303 11.1498 5.23303 12.4998C5.23303 13.8498 5.53206 14.8998 6.13012 15.9498C6.72818 16.9998 7.62526 17.8998 8.52235 18.4998C9.56895 19.0998 10.6156 19.3998 11.8117 19.3998C13.0078 19.3998 14.5029 18.9498 15.5495 18.1998C16.7457 17.2998 17.4932 16.2498 17.9418 14.8998H22.8758C22.5767 16.6998 21.8291 18.1998 20.7825 19.6998C19.7359 21.1998 18.3903 22.2498 16.7457 22.9998C15.2505 23.7498 13.4563 24.1998 11.6622 24.1998C9.86798 24.1998 7.62526 23.7498 5.9806 22.6998C4.18643 21.6498 2.8408 20.1498 1.7942 18.3498C0.747594 16.5498 0.299051 14.5998 0.299051 12.4998H0.149536Z" fill="white"/>
<path d="M64.5903 11.1498C64.5903 9.4998 63.9922 8.14981 62.9456 7.2498C61.7495 6.1998 60.4039 5.7498 58.9088 5.7498C57.4136 5.7498 55.9185 6.1998 54.7223 7.2498C53.5262 8.14981 53.0777 9.4998 53.0777 11.1498V24.3498H48.2932V11.1498C48.2932 9.0498 48.7418 7.2498 49.7884 5.7498C50.835 4.0998 52.0311 2.8998 53.8253 1.9998C55.4699 1.0998 57.1146 0.799805 58.9088 0.799805C60.7029 0.799805 62.4971 1.2498 64.1418 2.1498C65.7864 3.0498 66.9825 4.2498 68.0291 5.7498C69.0757 7.3998 69.5243 9.1998 69.5243 11.2998V24.4998H64.7398V11.1498H64.5903Z" fill="white"/>
<path d="M70.7204 12.6502C70.7204 10.5502 71.1689 8.6002 72.2155 6.8002C73.2621 5.0002 74.6078 3.5002 76.4019 2.4502C78.1961 1.4002 79.9903 0.950195 82.0835 0.950195C84.1767 0.950195 85.5223 1.4002 87.167 2.1502C88.8117 2.9002 90.0078 4.1002 91.2039 5.4502C92.2505 6.9502 92.9981 8.45019 93.2971 10.2502H88.3631C87.9146 8.9002 87.0175 7.8502 85.9709 6.9502C84.7748 6.2002 83.5787 5.7502 82.233 5.7502C80.8874 5.7502 79.9903 6.0502 78.9437 6.6502C77.8971 7.2502 77.1495 8.1502 76.5515 9.2002C75.9534 10.2502 75.6544 11.3002 75.6544 12.6502C75.6544 14.0002 75.9534 15.0502 76.5515 16.1002C77.1495 17.1502 78.0466 18.0502 78.9437 18.6502C79.9903 19.2502 81.0369 19.5502 82.233 19.5502C83.4291 19.5502 84.9243 19.1002 85.9709 18.3502C87.167 17.4502 87.9146 16.4002 88.3631 15.0502H93.2971C92.9981 16.8502 92.2505 18.3502 91.2039 19.8502C90.1573 21.3502 88.8117 22.4002 87.167 23.1502C85.6719 23.9002 83.8777 24.3502 82.0835 24.3502C80.2893 24.3502 78.0466 23.9002 76.4019 22.8502C74.6078 21.8002 73.2621 20.3002 72.2155 18.5002C71.1689 16.7002 70.7204 14.7502 70.7204 12.6502Z" fill="white"/>
<path d="M106.006 24.3502C103.913 24.3502 101.969 23.9002 100.324 22.8502C98.5301 21.8002 97.1845 20.3002 96.1379 18.5002C95.0912 16.7002 94.6427 14.7502 94.6427 12.6502C94.6427 10.5502 95.0912 8.6002 96.1379 6.8002C97.1845 5.0002 98.5301 3.5002 100.324 2.4502C102.118 1.4002 103.913 0.950195 106.006 0.950195C108.099 0.950195 109.893 1.5502 111.687 2.6002C113.482 3.6502 114.827 5.0002 115.874 6.9502C116.92 8.7502 117.369 10.7002 117.369 12.9502C117.369 15.2002 116.92 17.0002 115.874 18.9502C114.827 20.7502 113.482 22.2502 111.687 23.3002C109.893 24.3502 108.099 24.9502 106.006 24.9502V24.3502ZM106.006 19.1002C107.202 19.1002 108.249 18.8002 109.146 18.2002C110.192 17.6002 110.94 16.8502 111.538 15.8002C112.136 14.7502 112.435 13.7002 112.435 12.5002C112.435 11.3002 112.136 10.2502 111.538 9.2002C110.94 8.1502 110.192 7.4002 109.295 6.8002C108.249 6.2002 107.202 5.9002 106.155 5.9002C105.109 5.9002 103.913 6.2002 103.016 6.8002C102.118 7.4002 101.371 8.1502 100.773 9.2002C100.175 10.2502 99.8757 11.3002 99.8757 12.5002C99.8757 13.7002 100.175 14.7502 100.773 15.8002C101.371 16.8502 102.118 17.6002 103.165 18.2002C104.212 18.8002 105.258 19.1002 106.305 19.1002H106.006Z" fill="white"/>
<path d="M131.274 5.9C130.825 5.9 130.377 5.9 130.377 5.9C129.181 5.9 128.134 6.2 127.087 6.8C126.041 7.4 125.293 8.3 124.695 9.35C124.097 10.4 123.798 11.45 123.798 12.8V24.5H119.014V12.05C119.014 9.95 119.462 8.15 120.509 6.35C121.555 4.55 122.901 3.2 124.845 2.15C126.34 0.95 128.134 0.5 130.227 0.5H131.274V5.9Z" fill="white"/>
<path d="M142.338 24.3502C140.245 24.3502 138.301 23.9002 136.656 22.8502C134.862 21.8002 133.516 20.3002 132.47 18.5002C131.423 16.7002 130.975 14.7502 130.975 12.6502C130.975 10.5502 131.423 8.6002 132.47 6.8002C133.516 5.0002 134.862 3.5002 136.656 2.4502C138.45 1.4002 140.245 0.950195 142.338 0.950195C144.431 0.950195 146.225 1.5502 148.019 2.6002C149.814 3.6502 151.159 5.0002 152.206 6.9502C153.252 8.7502 153.701 10.7002 153.701 12.9502C153.701 15.2002 153.252 17.0002 152.206 18.9502C151.159 20.7502 149.814 22.2502 148.019 23.3002C146.225 24.3502 144.431 24.9502 142.338 24.9502V24.3502ZM142.338 19.1002C143.534 19.1002 144.581 18.8002 145.478 18.2002C146.524 17.6002 147.272 16.8502 147.87 15.8002C148.468 14.7502 148.767 13.7002 148.767 12.5002C148.767 11.3002 148.468 10.2502 147.87 9.2002C147.272 8.1502 146.524 7.4002 145.627 6.8002C144.581 6.2002 143.534 5.9002 142.487 5.9002C141.441 5.9002 140.245 6.2002 139.348 6.8002C138.45 7.4002 137.703 8.1502 137.105 9.2002C136.507 10.2502 136.208 11.3002 136.208 12.5002C136.208 13.7002 136.507 14.7502 137.105 15.8002C137.703 16.8502 138.45 17.6002 139.497 18.2002C140.544 18.8002 141.59 19.1002 142.637 19.1002H142.338Z" fill="white"/>
<path d="M35.4349 24.3502C33.3417 24.3502 31.3981 23.9002 29.7534 22.8502C27.9592 21.8002 26.6136 20.3002 25.567 18.5002C24.5204 16.7002 24.0718 14.7502 24.0718 12.6502C24.0718 10.5502 24.5204 8.6002 25.567 6.8002C26.6136 5.0002 27.9592 3.5002 29.7534 2.4502C31.5476 1.4002 33.3417 0.950195 35.4349 0.950195C37.5281 0.950195 39.3223 1.5502 41.1165 2.6002C42.9107 3.6502 44.2563 5.0002 45.3029 6.9502C46.3495 8.7502 46.798 10.7002 46.798 12.9502C46.798 15.2002 46.3495 17.0002 45.3029 18.9502C44.2563 20.7502 42.9107 22.2502 41.1165 23.3002C39.3223 24.3502 37.5281 24.9502 35.4349 24.9502V24.3502ZM35.4349 19.1002C36.6311 19.1002 37.6777 18.8002 38.5747 18.2002C39.6214 17.6002 40.3689 16.8502 40.967 15.8002C41.565 14.7502 41.8641 13.7002 41.8641 12.5002C41.8641 11.3002 41.565 10.2502 40.967 9.2002C40.3689 8.1502 39.6214 7.4002 38.7243 6.8002C37.6777 6.2002 36.6311 5.9002 35.5845 5.9002C34.5379 5.9002 33.3417 6.2002 32.4447 6.8002C31.5476 7.4002 30.8 8.1502 30.2019 9.2002C29.6039 10.2502 29.3048 11.3002 29.3048 12.5002C29.3048 13.7002 29.6039 14.7502 30.2019 15.8002C30.8 16.8502 31.5476 17.6002 32.5942 18.2002C33.6408 18.8002 34.6874 19.1002 35.734 19.1002H35.4349Z" fill="white"/>
</g>
<defs>
<clipPath id="clip0_98_15">
<rect width="154" height="24" fill="white" transform="translate(0 0.5)"/>
</clipPath>
</defs>
</svg>
