<svg width="82" height="40" viewBox="0 0 82 40" fill="none" xmlns="http://www.w3.org/2000/svg">
<path d="M53.2586 19.0185V18.6914C52.7025 18.6914 52.4408 18.6914 52.0973 18.6914C51.7538 18.6914 51.4348 18.6914 50.9441 18.6914L48.3445 25.0122L45.7203 18.6914C45.2296 18.6914 45.0415 18.6914 44.5345 18.6914C44.0274 18.6914 43.7984 18.6914 43.3568 18.6914V19.0185H43.8802C44.3463 19.0185 44.4118 19.0594 44.4118 19.3457V27.0884H44.8125V19.7301L47.6902 26.6386H48.0664L50.9441 19.7301V25.8056C50.9441 26.9097 51.2958 27.2041 52.0645 27.2041H52.1954V19.355C52.1954 19.0443 52.3017 19.0443 52.727 19.0279L53.2586 19.0185Z" fill="#F9F4ED"/>
<path d="M56.1527 27.1946V21.4708C56.1527 21.3645 56.1527 21.3481 56.0054 21.3481C55.8582 21.3481 54.9504 21.4217 54.108 21.4217V21.7244H54.8196C54.975 21.7244 55.0077 21.7898 55.0077 21.937V25.9678C55.0077 26.6794 55.2694 27.1701 55.94 27.1701L56.1527 27.1946Z" fill="#F9F4ED"/>
<path d="M74.3125 27.2031V22.8942C74.2809 21.956 73.4946 21.2199 72.5553 21.2515C72.5191 21.2526 72.484 21.255 72.4478 21.2585C71.6136 21.2269 70.8506 21.7258 70.5422 22.5016V21.4957C70.5422 21.3975 70.5422 21.373 70.3868 21.373C70.2314 21.373 69.3318 21.4466 68.4894 21.4466V21.7492H69.2091C69.3563 21.7492 69.3972 21.8064 69.3972 21.9618V27.0722H70.5422V23.6302C70.4604 22.6804 71.1486 21.8368 72.0961 21.7247C72.734 21.7247 73.1757 22.109 73.1757 23.025V26.0009C73.1757 26.7124 73.4374 27.2031 74.0998 27.2031H74.3125Z" fill="#F9F4ED"/>
<path d="M60.069 25.9935V18.7578C60.069 18.6515 60.069 18.627 59.9136 18.627C59.7582 18.627 58.8667 18.7006 58.0244 18.7006V19.0032H58.7359C58.8913 19.0032 58.9322 19.0604 58.9322 19.2158V27.1794H59.1366C59.8073 27.1794 60.069 26.6886 60.069 25.9771" fill="#F9F4ED"/>
<path fill-rule="evenodd" clip-rule="evenodd" d="M65.6211 25.151C65.6211 25.9689 65.1058 26.8931 64.3207 26.8931C63.5355 26.8931 63.2002 26.5577 63.2002 25.6663C63.2002 24.7748 63.879 24.1533 65.1631 24.096H65.4329C65.6129 24.096 65.6211 24.096 65.6211 24.2841V25.151ZM66.8151 27.1945C66.8151 26.9164 66.7415 26.3276 66.7415 25.9923V22.6811C66.7415 21.7406 65.8501 21.209 64.7459 21.209C63.2902 21.209 62.3917 22.0268 62.3917 22.3867C62.3917 22.7465 62.6043 22.8692 62.8906 22.8692C63.7084 22.8692 63.4058 21.5361 64.5999 21.5361C65.0965 21.4707 65.5533 21.82 65.6187 22.3166C65.6281 22.3855 65.6292 22.4556 65.6222 22.5246V23.5796C65.6222 23.7595 65.6222 23.7677 65.4341 23.7677H65.0824C63.3159 23.8249 61.9594 24.5855 61.9594 25.6569C61.9594 26.7283 62.6791 27.2109 64.1992 27.2109C64.8499 27.226 65.4329 26.8148 65.6386 26.1967C65.704 26.9491 66.0802 27.1781 66.6282 27.1781L66.8151 27.1945Z" fill="#F9F4ED"/>
<path fill-rule="evenodd" clip-rule="evenodd" d="M80.5761 24.1454C80.5761 25.8629 80.3062 26.8922 78.9976 26.8922C77.6891 26.8922 77.4192 25.8617 77.4192 24.1454C77.4192 22.7141 77.6645 21.5539 78.9976 21.5539C80.3307 21.5539 80.5761 22.7141 80.5761 24.1454ZM81.8671 24.1454C81.8987 22.5564 80.6357 21.242 79.0467 21.2104C79.0304 21.2104 79.014 21.2104 78.9976 21.2104C77.397 21.2326 76.1141 22.5447 76.1281 24.1454C75.9587 25.7262 77.1026 27.1446 78.6833 27.314C80.2641 27.4834 81.6825 26.3396 81.8519 24.7588C81.8741 24.5555 81.8741 24.3498 81.8519 24.1465" fill="#F9F4ED"/>
<path fill-rule="evenodd" clip-rule="evenodd" d="M79.3738 14.7585C79.3738 15.4864 79.1284 15.9935 78.6459 15.9935C78.1634 15.9935 77.918 15.4701 77.918 14.7585C77.918 14.047 78.0489 13.589 78.6459 13.589C79.2429 13.5902 79.3738 14.1697 79.3738 14.7585ZM79.8972 16.1652V12.2653C79.8972 12.2244 79.8972 12.208 79.8318 12.208C79.7664 12.208 79.3411 12.208 78.9567 12.208V12.3552H79.2838C79.3493 12.3552 79.3738 12.3552 79.3738 12.4534V13.901C79.2348 13.6089 78.9368 13.4266 78.6132 13.4348C77.8806 13.4523 77.3 14.0587 77.3128 14.7924C77.2228 15.4818 77.7077 16.1138 78.3982 16.205C78.4555 16.212 78.5139 16.2167 78.5723 16.2155C78.945 16.2318 79.2815 15.9923 79.3902 15.6348C79.3902 15.9865 79.5047 16.1991 79.8236 16.1991L79.8972 16.1652Z" fill="#F9F4ED"/>
<path fill-rule="evenodd" clip-rule="evenodd" d="M81.5236 16.1655V13.525C81.5236 13.4841 81.5236 13.4678 81.45 13.4678C81.3764 13.4678 80.9675 13.4678 80.5749 13.4678V13.6068H80.9102C80.9756 13.6068 81.0002 13.6068 81.0002 13.705V15.5697C81.0002 15.8968 81.1147 16.1258 81.4255 16.1258L81.5236 16.1655Z" fill="#F9F4ED"/>
<path d="M47.8701 15.4541V15.0452C47.4332 15.6434 46.7392 16.0009 45.9972 16.0102C44.8195 16.0102 44.4188 15.2415 44.4188 13.2716C44.4188 11.5868 44.8114 10.672 46.0545 10.672C46.8466 10.5657 47.5745 11.1218 47.6809 11.914C47.6844 11.9408 47.6879 11.9689 47.689 11.9969H47.9099C47.9099 11.8252 47.9099 11.5635 47.9099 11.3672C47.9099 11.1709 47.9099 10.9419 47.9099 10.7374C47.3175 10.568 46.7088 10.4617 46.0942 10.4185C44.649 10.4301 43.4876 11.6114 43.4993 13.0566C43.5005 13.1291 43.504 13.2003 43.5098 13.2716C43.5098 15.308 44.6057 16.2965 46.0358 16.2965C46.7508 16.321 47.439 16.0196 47.9087 15.4786" fill="#F9F4ED"/>
<path fill-rule="evenodd" clip-rule="evenodd" d="M51.8928 14.2024C51.8928 15.3719 51.7129 16.0671 50.8214 16.0671C49.93 16.0671 49.75 15.3719 49.75 14.2024C49.75 13.2292 49.9218 12.444 50.8214 12.444C51.7211 12.4452 51.8928 13.263 51.8928 14.2024ZM52.7761 14.2024C52.7983 13.1228 51.9419 12.2302 50.8635 12.208C50.8495 12.208 50.8355 12.208 50.8226 12.208C49.7349 12.2255 48.8644 13.1147 48.8679 14.2036C48.7686 15.2831 49.5643 16.2377 50.6427 16.337C51.7211 16.4363 52.6768 15.6407 52.7761 14.5623C52.7866 14.4419 52.7866 14.3216 52.7761 14.2024Z" fill="#F9F4ED"/>
<path d="M59.9136 16.2799V13.3368C59.9159 12.7141 59.4124 12.207 58.7885 12.2047C58.7569 12.2047 58.7266 12.2058 58.695 12.2082C58.1482 12.2 57.6517 12.5236 57.4355 13.026C57.279 12.5038 56.7777 12.1626 56.2333 12.2082C55.69 12.1977 55.1958 12.5225 54.9901 13.026V12.3636C54.9901 12.2981 54.9901 12.2818 54.892 12.2818C54.7939 12.2818 54.1723 12.3308 53.5998 12.3308V12.5353H54.0823C54.1886 12.5353 54.2132 12.5353 54.2132 12.6825V16.1572H55.031V13.8439C55.031 13.1814 55.4972 12.5517 56.037 12.5517C56.5768 12.5517 56.7158 12.8134 56.7158 13.435V15.455C56.7158 15.9458 56.8957 16.2729 57.3456 16.2729H57.4928V13.8205C57.4928 13.1662 57.9508 12.5283 58.4987 12.5283C58.924 12.5283 59.1775 12.79 59.1775 13.4116V15.4562C59.1775 15.9469 59.3575 16.2741 59.8073 16.2741L59.9136 16.2799Z" fill="#F9F4ED"/>
<path d="M64.9749 16.2799V12.3635H64.1571V14.6605C64.2202 15.3008 63.7645 15.8756 63.1266 15.9609C62.7013 15.9609 62.4232 15.691 62.4232 15.0694V12.3962C62.4232 12.3308 62.4232 12.3145 62.3169 12.3145C62.2106 12.3145 61.6054 12.3635 61.0329 12.3635V12.568H61.5154C61.6218 12.568 61.6463 12.568 61.6463 12.7152V15.1676C61.6475 15.7903 62.1534 16.2951 62.7773 16.2939C62.8146 16.2939 62.852 16.2916 62.8894 16.288C63.4432 16.3138 63.9515 15.9854 64.1571 15.4702C64.1571 15.9609 64.337 16.288 64.7868 16.288L64.9749 16.2799Z" fill="#F9F4ED"/>
<path d="M70.0363 16.2802V13.3371C70.0258 12.7003 69.5012 12.1933 68.8644 12.2038C68.8329 12.2038 68.8002 12.2061 68.7686 12.2096C68.2078 12.1874 67.6914 12.5122 67.4682 13.0275V12.365C67.4682 12.2996 67.4682 12.2832 67.3701 12.2832C67.2719 12.2832 66.6504 12.3323 66.0779 12.3323V12.5368H66.6095C66.7076 12.5368 66.7403 12.5368 66.7403 12.684V16.1587H67.5091V13.8453C67.4601 13.2027 67.9239 12.6349 68.5641 12.5531C69.0058 12.5531 69.3002 12.8148 69.3002 13.4364V15.4565C69.3002 15.9472 69.4801 16.2743 69.93 16.2743L70.0363 16.2802Z" fill="#F9F4ED"/>
<path fill-rule="evenodd" clip-rule="evenodd" d="M74.0753 13.9013C74.0753 14.024 74.0753 14.0404 73.9445 14.0404H72.4314C72.3006 14.0404 72.3006 14.0404 72.3006 13.9177C72.3006 13.0998 72.5786 12.4374 73.2248 12.4374C73.8709 12.4374 74.0426 13.0917 74.0426 13.9013M74.9014 14.0731C74.9341 13.0881 74.1758 12.2574 73.192 12.2002C72.1522 12.2703 71.3554 13.1536 71.3928 14.1958C71.2526 15.2017 71.9547 16.1317 72.9607 16.2719C73.0565 16.2848 73.1523 16.2906 73.2481 16.2895C73.8288 16.3268 74.3943 16.0978 74.7857 15.6679V15.308C74.4469 15.7824 73.8966 16.0605 73.3135 16.0523C72.4957 16.0523 72.2667 15.3898 72.2667 14.4166C72.2667 14.2857 72.2667 14.2775 72.4139 14.2775H74.7845C74.8605 14.2764 74.9014 14.2273 74.9014 14.0731Z" fill="#F9F4ED"/>
<path fill-rule="evenodd" clip-rule="evenodd" d="M19.507 29.362C20.7501 28.6014 22.2947 28.5441 23.7505 28.2824C25.6608 28.1457 27.1434 26.5591 27.1516 24.6441V8.99512H11.8706V24.6441C11.8788 26.5603 13.3614 28.1457 15.2717 28.2824C16.7275 28.5032 18.2721 28.6014 19.507 29.362Z" fill="#F9F4ED"/>
<path d="M27.2416 16.3536H21.6907V8.77441H17.3327V16.3536H11.6825V20.7116H17.3327V28.8141L19.507 29.5911L21.6907 28.8141V20.7116H27.2416V16.3536Z" fill="#051D32"/>
<path d="M8.3632 6.72153C8.89364 7.75203 8.81185 8.99166 8.15056 9.9427C7.90754 10.3177 7.60961 10.6531 7.26728 10.9405C6.58846 11.4709 6.03115 12.1404 5.63157 12.9033C5.79281 12.1836 6.02531 11.4826 6.32675 10.8096C6.69829 10.0584 7.12707 9.33632 7.61077 8.65166C7.69373 8.50211 7.72878 8.33037 7.70892 8.16095C7.67737 8.14576 7.64232 8.14576 7.61077 8.16095C7.33037 8.39696 7.08501 8.6727 6.88289 8.97881C6.50667 9.49639 6.17369 10.0432 5.88511 10.6145C5.58484 11.2431 5.33831 11.8974 5.14904 12.5692V12.6673C5.09179 12.103 4.8219 11.6286 4.74829 11.0725C4.96794 9.79899 5.66662 8.65751 6.70296 7.88405C7.19601 7.49966 7.59208 7.00428 7.85613 6.43645C7.85613 6.37102 7.98699 6.37102 8.06059 6.3792C8.18911 6.46449 8.29427 6.5825 8.3632 6.72153Z" fill="#F9F4ED"/>
<path d="M4.32419 8.99501C4.3978 9.09315 4.32419 9.20765 4.32419 9.32215C4.01224 10.3994 4.06481 11.5479 4.4714 12.5924C4.67236 13.3647 4.69573 14.1732 4.53683 14.9548H4.4714C4.4714 14.9548 4.31601 14.7176 4.25876 14.5786C3.7587 13.8063 3.4374 12.9312 3.31823 12.0199C3.26916 11.6191 3.38366 11.202 3.31823 10.8504C3.30888 10.8106 3.28552 10.7756 3.2528 10.7522C3.12195 10.7522 3.11377 10.8913 3.04016 10.9567C2.56581 12.3389 3.19555 13.6953 3.85801 14.8076C4.02392 15.0833 4.16646 15.3743 4.2833 15.6745C4.70508 16.552 4.88617 17.5252 4.80672 18.4949C4.79153 18.6795 4.74947 18.8618 4.68405 19.0347C4.53333 18.6445 4.27629 18.3033 3.9398 18.0533L3.75987 17.9879C3.71898 17.524 3.62551 17.066 3.4818 16.6221C3.23645 15.657 2.66395 14.8964 2.30409 13.957C2.30409 13.957 2.30409 13.908 2.30409 13.8752C1.99798 13.1298 1.89984 12.3167 2.01785 11.521C2.20829 10.4683 2.84271 9.54764 3.75987 8.99501C3.91526 8.94593 4.18516 8.74147 4.32419 8.99501Z" fill="#F9F4ED"/>
<path d="M8.88664 11.0225C9.23247 12.2306 9.00231 13.5298 8.26507 14.5463C7.64935 15.2695 6.97053 15.9378 6.2368 16.5419C5.89797 16.855 5.60354 17.2125 5.36169 17.6051C5.36169 17.6051 5.36169 17.4661 5.36169 17.3924C5.33482 17.0852 5.27757 16.7814 5.18995 16.4846C5.26823 16.3923 5.3395 16.2942 5.40259 16.1902C6.05687 15.3151 7.03829 14.7835 7.6178 13.8605C7.90288 13.4773 8.1015 13.0368 8.19847 12.5683C8.19847 12.4947 8.19848 12.3965 8.12487 12.3638C8.05126 12.3311 7.89587 12.5274 7.8059 12.6337C7.35492 13.4434 6.7427 14.1538 6.00663 14.7192C5.61056 15.0534 5.26355 15.4413 4.97614 15.8724C4.97614 15.7334 4.97614 15.5862 4.97614 15.4471C5.29627 13.9072 6.21343 12.5578 7.52667 11.6944C7.89119 11.4011 8.17394 11.0179 8.34452 10.5821C8.34452 10.533 8.40995 10.4839 8.47538 10.4921C8.72891 10.4921 8.8107 10.8111 8.90066 11.0237" fill="#F9F4ED"/>
<path d="M1.92786 14.4235C1.98745 14.5099 2.01899 14.6127 2.01782 14.7179C2.09026 15.4808 2.28655 16.2262 2.5985 16.9249C2.63005 16.9658 2.65224 17.0137 2.66393 17.064C3.0787 17.7428 3.44556 18.4508 3.75985 19.181C3.84164 19.3691 3.88253 19.5572 3.94796 19.7453C4.07531 20.1145 4.15242 20.5001 4.17695 20.8903C3.55305 20.3295 2.98406 19.7103 2.47582 19.042C2.10195 18.4753 1.84841 17.8386 1.73158 17.1691C1.70704 16.9623 1.66848 16.7578 1.61708 16.5557C1.60539 16.4739 1.56099 16.4003 1.4944 16.3513C1.35536 16.3513 1.36354 16.5557 1.32265 16.6702C1.27708 17.2509 1.34952 17.8351 1.53529 18.3877C1.60072 18.494 1.61708 18.6249 1.6825 18.7394C2.0482 19.5304 2.58798 20.229 3.26096 20.784C3.69325 21.1953 4.07414 21.6568 4.39777 22.158C4.20149 22.5494 4.04026 22.9572 3.91524 23.3766C3.75985 23.1149 3.5881 22.8532 3.41635 22.5997C2.85904 21.8729 2.24682 21.1894 1.58436 20.555C0.814413 19.6402 0.393803 18.4812 0.398476 17.2848C0.411328 16.2473 0.816749 15.2542 1.53529 14.5052C1.62525 14.3826 1.81336 14.2762 1.94422 14.3907" fill="#F9F4ED"/>
<path d="M8.5104 15.8871C8.63308 16.0425 8.5104 16.2306 8.46133 16.3942C8.15055 17.2121 8.33048 18.1935 8.01969 19.002C7.57221 20.1213 6.9448 21.1588 6.16317 22.0759C6.10592 22.2068 5.99142 22.3213 5.92599 22.4685C5.56613 23.1006 5.34765 23.8039 5.28806 24.5295C5.0801 24.1883 4.75412 23.936 4.37207 23.818C4.37207 23.7689 4.37207 23.728 4.37207 23.6789C4.65715 22.7162 5.12333 21.8177 5.74606 21.0303C6.60598 20.1201 7.19249 18.9868 7.43902 17.76C7.43902 17.621 7.43902 17.4656 7.34905 17.392C7.25909 17.3184 7.12005 17.621 7.0628 17.76C6.9226 18.1795 6.74735 18.5872 6.53938 18.9786C6.33492 19.2812 6.16317 19.6002 5.94235 19.8946C5.57431 20.4344 5.12449 20.9169 4.7401 21.4649H4.69921C4.65598 19.5581 5.51005 17.7425 7.00439 16.5589C7.33153 16.2797 7.69138 16.0402 8.07577 15.8474C8.20429 15.782 8.35618 15.782 8.4847 15.8474" fill="#F9F4ED"/>
<path d="M1.57616 21.3658C2.05169 22.3835 2.79126 23.2562 3.71777 23.8918C4.53796 24.5414 5.18406 25.3838 5.59883 26.3442C5.59883 26.3442 5.51704 26.3442 5.47615 26.3442C4.05075 25.8278 2.83565 24.8569 2.0178 23.581C1.91966 23.4502 1.87059 23.2948 1.69884 23.2621C1.52709 23.2294 1.63341 23.4584 1.64977 23.5565C1.90798 24.372 2.4314 25.0777 3.13826 25.5602C4.04608 26.329 5.24832 26.6153 6.19586 27.3432C6.81042 27.7696 7.32216 28.3281 7.69253 28.9789C7.69253 28.9789 7.69253 28.9789 7.63528 28.9789C7.47405 28.8982 7.30464 28.8375 7.12821 28.7989C6.88753 28.73 6.63283 28.73 6.39215 28.7989C5.96803 28.3573 5.47732 27.9846 4.93637 27.6948C4.67582 27.5359 4.40243 27.3992 4.11852 27.2859C3.56121 27.0405 3.03661 26.7274 2.55642 26.3536C1.22799 25.3651 0.588897 23.7002 0.912533 22.0774C0.9359 21.7853 1.03521 21.5037 1.19878 21.2595C1.2572 21.228 1.32847 21.228 1.38689 21.2595C1.46049 21.2595 1.49321 21.3658 1.54228 21.4312" fill="#F9F4ED"/>
<path d="M8.37134 21.366C8.78027 22.6909 8.64474 24.1233 7.99513 25.3477C7.61074 26.0745 7.43081 26.89 7.4717 27.7102C7.37707 27.6436 7.28944 27.5665 7.20999 27.4812C7.00553 27.3094 6.78471 27.1131 6.54753 26.9496C6.5966 26.8678 6.54753 26.7615 6.60478 26.6715C6.65268 26.3899 6.73447 26.1154 6.85014 25.8536C6.88168 25.7298 6.92491 25.6095 6.98099 25.4938C7.15274 25.0767 7.38992 24.6759 7.54531 24.2343C7.80469 23.7074 7.90166 23.115 7.82338 22.5332C7.82338 22.5332 7.82338 22.4841 7.75795 22.4677C7.69253 22.4514 7.61892 22.5741 7.56985 22.6477C7.43899 23.1652 7.25789 23.6688 7.03006 24.1525C6.63633 24.8161 6.34424 25.5358 6.16314 26.2859C6.16314 26.2859 6.16314 26.2859 6.11407 26.2205C5.97387 25.7952 5.89909 25.3512 5.89325 24.9038C5.90844 23.9691 6.2496 23.0706 6.85832 22.3614C7.24504 21.8812 7.52428 21.3239 7.67617 20.7257C7.70654 20.6661 7.75912 20.6217 7.82338 20.603C8.1587 20.6766 8.28956 21.0692 8.40406 21.3555" fill="#F9F4ED"/>
<path d="M3.52266 27.669C4.22017 28.2999 5.03335 28.7883 5.9178 29.1084C6.2204 29.2288 6.51483 29.369 6.80108 29.5255C6.87702 29.5582 6.95063 29.5968 7.0219 29.64C7.44134 29.8901 7.83508 30.181 8.19961 30.5069C8.26503 30.5969 8.37135 30.6787 8.4286 30.7768C8.15053 30.7768 7.86428 30.6951 7.61075 30.6869C7.54532 30.6951 7.4799 30.6951 7.41447 30.6869C6.36995 30.556 5.39203 30.1015 4.61858 29.3865C4.51226 29.3211 4.40594 29.2147 4.2669 29.2475C4.12787 29.2802 4.2669 29.501 4.35687 29.6237C5.12565 30.5233 6.21222 31.0911 7.38993 31.2103C8.03603 31.2781 8.67396 31.4066 9.29553 31.5947C9.3446 31.5947 9.29553 31.6847 9.3446 31.7255C9.45442 32.0901 9.60047 32.4429 9.77806 32.7806C9.72899 32.7806 9.67992 32.7806 9.63085 32.7397C8.7943 32.4499 7.93205 32.2443 7.05578 32.1263C6.69476 32.0539 6.33957 31.9557 5.99257 31.8319C4.96324 31.4323 4.09983 30.6986 3.54018 29.7463C3.26562 29.2416 3.09854 28.6843 3.04947 28.1106C3.04947 27.898 3.00858 27.6199 3.19668 27.4972C3.38479 27.3746 3.4584 27.5954 3.54018 27.6772" fill="#F9F4ED"/>
<path d="M9.2944 25.2247C9.35866 25.4549 9.40306 25.6897 9.42525 25.9281C9.58882 26.6559 10.0714 27.253 10.2022 27.9972C10.4557 29.1013 10.4966 30.2615 10.7992 31.3329C10.9792 31.9194 11.2561 32.4721 11.6171 32.9686C11.3542 32.8763 11.0785 32.8296 10.7992 32.8296C10.6953 32.8401 10.5936 32.8658 10.4966 32.9032C9.80614 31.6881 9.45563 30.3106 9.4825 28.9132C9.41708 28.3349 9.31426 27.7612 9.17172 27.1957C9.14952 27.0906 9.0911 26.9948 9.00815 26.9258C8.87729 26.9258 8.89365 27.0485 8.84458 27.1221C8.85626 27.8115 8.91468 28.5008 9.01633 29.1831C9.07358 29.7065 9.01633 30.2463 9.13083 30.7534C9.09695 30.7429 9.07241 30.7148 9.0654 30.6798C8.96375 30.5805 8.87379 30.4706 8.79551 30.3526C8.19497 29.4799 7.92742 28.4213 8.04308 27.3687C8.09215 26.9586 8.18796 26.5555 8.32933 26.1664C8.32933 26.1664 8.32933 26.0928 8.32933 26.0519C8.48356 25.7446 8.69036 25.4677 8.94272 25.2341C9.02451 25.1768 9.20443 25.1359 9.2535 25.2341" fill="#F9F4ED"/>
<path d="M8.16693 32.9677C8.89131 33.2166 9.64957 33.3486 10.4149 33.3603C11.235 33.4362 12.0213 33.7178 12.7037 34.1781C11.4851 34.08 10.1777 34.4071 9.07357 33.9409C8.97543 33.9409 8.85275 33.8428 8.74643 33.9409C8.64011 34.0391 8.74643 33.9409 8.74643 34.0145C8.88547 34.1851 9.06539 34.3172 9.26986 34.3989C10.0573 34.6688 10.895 34.7611 11.7222 34.6688C12.9455 34.6163 14.163 34.8604 15.2706 35.3804C14.7483 35.482 14.2377 35.6421 13.7494 35.8547C13.0799 35.6958 12.3929 35.6269 11.7047 35.6503C11.582 35.6584 11.4594 35.6584 11.3367 35.6503C11.0586 35.6503 10.7887 35.6012 10.5188 35.5848C10.2408 35.5381 9.96737 35.468 9.70098 35.3722C8.6074 35.0123 7.71711 34.2073 7.24859 33.157C7.16915 33.0214 7.1376 32.8625 7.15863 32.7072C7.18433 32.6639 7.22523 32.6324 7.27313 32.6172C7.58391 32.7013 7.88301 32.8217 8.16459 32.977" fill="#F9F4ED"/>
<path d="M11.6416 29.5259C12.6896 29.8285 13.5414 30.5937 13.955 31.6032C14.5263 32.9188 15.4318 34.0626 16.5791 34.9225C16.648 34.9459 16.7111 34.9821 16.7672 35.0288C16.7672 35.0779 16.6691 35.0861 16.6036 35.0861C15.4785 35.1305 14.4398 34.482 13.9877 33.4504C13.6687 32.8697 13.4234 32.2563 13.0799 31.7002C12.8894 31.3754 12.63 31.0961 12.3193 30.8823C12.276 30.8823 12.2375 30.908 12.2211 30.9477C12.2211 31.1195 12.3274 31.2585 12.3847 31.4057C12.9735 32.2236 13.2025 33.3113 13.8241 34.1117C12.8929 33.8266 12.1522 33.1162 11.8286 32.1979C11.6288 31.3578 11.3554 30.5365 11.0107 29.7455C11.0107 29.6719 10.9616 29.5738 11.0107 29.5083C11.1883 29.4347 11.3881 29.4347 11.5668 29.5083L11.6416 29.5259Z" fill="#F9F4ED"/>
<path d="M30.9126 29.5093C30.9208 29.3539 30.9208 29.1985 30.9126 29.0431C30.9909 29.0536 31.068 29.0232 31.117 28.9613C31.4933 28.4706 31.2397 27.7263 31.5505 27.2111C31.6089 27.058 31.755 26.9576 31.9185 26.9576C32.1405 27.0487 32.3181 27.2251 32.4093 27.4483C32.4093 27.5546 32.4992 27.6773 32.6137 27.7018M32.671 27.7018C33.0308 27.5055 33.0963 27.0884 33.2189 26.7367C33.2879 26.4528 33.3895 26.1794 33.5215 25.9189C33.6033 25.7542 33.7482 25.628 33.9223 25.5672C33.9223 25.5672 34.0041 25.5672 34.0286 25.5672C34.2039 25.6502 34.3102 25.8313 34.2985 26.0252C34.3172 26.0883 34.3616 26.142 34.4212 26.1724C34.6338 26.1724 34.7483 26.0007 34.8873 25.878C35.107 25.3546 35.5428 24.9527 36.0814 24.7739C36.2485 24.7447 36.4167 24.8183 36.5067 24.962C36.7521 25.4118 36.5067 25.8862 36.3349 26.3033C36.2987 26.4213 36.3139 26.5486 36.3758 26.655C36.5067 26.655 36.6621 26.655 36.8011 26.704C36.9028 26.7449 36.9729 26.8396 36.9811 26.9494C36.932 27.4401 36.4658 27.7672 36.1632 27.9717C35.8606 28.1762 35.5498 28.2743 35.3453 28.5851C35.3418 28.6283 35.3418 28.6727 35.3453 28.716C35.4026 28.7896 35.4844 28.7732 35.5498 28.8059C35.704 28.8094 35.8396 28.9064 35.8933 29.0513C35.9342 29.3457 35.6398 29.4847 35.468 29.6401C35.0626 29.8352 34.6373 29.9883 34.2004 30.0981C33.9877 30.1729 33.7961 30.2991 33.6442 30.4662C33.6442 30.507 33.5951 30.5807 33.6442 30.6215C33.6933 30.6624 33.9959 30.6706 34.1513 30.7606C34.3242 30.7804 34.4656 30.909 34.503 31.0795C34.4621 31.423 34.1022 31.5703 33.8323 31.6848C33.7868 31.6766 33.7388 31.6766 33.6933 31.6848C33.5835 31.7175 33.4713 31.742 33.358 31.7584C33.1325 31.7864 32.9046 31.7864 32.6791 31.7584C32.8602 31.3272 32.7913 30.8318 32.4992 30.4662L32.2702 30.3844C32.7364 29.9918 33.178 29.5665 33.6115 29.1412C33.6115 29.1412 33.6606 29.084 33.6851 29.0513L34.413 28.2334C34.5193 28.1189 34.5929 27.9962 34.6829 27.8899C34.7728 27.7836 34.9528 27.5055 35.1 27.2929C35.1 27.2929 35.1 27.2356 35.1491 27.2193C35.308 26.9938 35.4271 26.7414 35.5007 26.475C35.5007 26.475 35.5007 26.4014 35.5007 26.3769C35.4715 26.3547 35.4318 26.3547 35.4026 26.3769C35.2414 26.4715 35.1035 26.6036 35.0018 26.7613C33.9398 28.0418 32.7504 29.2113 31.4535 30.2523C31.3788 30.2652 31.3052 30.2816 31.2327 30.3014C31.0948 30.3248 30.9605 30.3633 30.832 30.4159C30.7502 30.1717 30.7502 29.9077 30.832 29.6635L32.671 27.7018Z" fill="#F9F4ED"/>
<path d="M33.0881 16.2634C33.3416 16.1652 33.816 16.5742 33.8405 16.0835C33.865 15.5927 33.2516 15.102 33.0717 14.5786C32.9712 14.3788 32.9362 14.1533 32.9736 13.9325C32.9969 13.8601 33.0425 13.797 33.1044 13.7526C33.2329 13.7023 33.3767 13.7023 33.5052 13.7526C33.5963 13.7946 33.7003 13.7946 33.7914 13.7526C33.8475 13.7152 33.8767 13.6474 33.865 13.5808C33.7564 13.2911 33.6103 13.0165 33.4316 12.763C33.3007 12.4604 33.0962 12.1005 33.2844 11.7652C33.2844 11.7079 33.3416 11.6916 33.407 11.6752C33.5075 11.6378 33.6173 11.6378 33.7178 11.6752C33.8405 11.7325 34.0122 11.8306 34.1676 11.5934C34.4048 11.1927 34.1676 10.6693 34.2249 10.2031C34.2401 9.92736 34.3943 9.6785 34.6338 9.54063C34.7343 9.51843 34.8394 9.53596 34.9282 9.5897C35.4026 9.87595 35.4598 10.473 35.8115 10.8737C35.8664 10.9368 35.9412 10.9765 36.0242 10.9882C36.1877 10.8983 36.2859 10.6938 36.4903 10.6774C36.613 10.6763 36.7252 10.7464 36.7766 10.8574C37.0874 11.5934 36.6457 12.3132 36.703 13.0644C36.7088 13.1661 36.7602 13.2584 36.842 13.3179C36.9402 13.3179 37.0138 13.3179 37.0874 13.2362C37.1855 13.0796 37.3596 12.9861 37.5454 12.9908C37.6412 13.0142 37.7136 13.0913 37.7335 13.1871C37.8398 13.8741 37.3573 14.373 37.1283 14.9536C37.1283 15.0763 37.0547 15.2317 37.1283 15.3299C37.1937 15.3871 37.2848 15.4035 37.3654 15.3708C37.5033 15.2679 37.6867 15.2516 37.8398 15.3299C38.0115 15.4934 37.9298 15.7879 37.8398 15.976C37.7755 16.1302 37.6937 16.2751 37.5944 16.4094C37.2638 16.233 36.8619 16.2575 36.5558 16.4749C36.0873 16.8546 35.8068 17.4177 35.787 18.0206C35.6526 17.9493 35.5101 17.8968 35.3617 17.8652C35.4435 17.3909 35.4844 16.8838 35.5662 16.3849C35.5498 16.3662 35.5498 16.3382 35.5662 16.3195C35.5662 15.8942 35.6316 15.4198 35.6398 14.97C35.6444 14.0622 35.565 13.1567 35.4026 12.2641C35.2963 12.0269 35.2963 11.7161 35.0427 11.5771C34.961 11.5771 34.9528 11.6834 34.9282 11.7488C34.9306 12.0643 34.961 12.3786 35.0182 12.6894C35.1257 13.8519 35.107 15.0226 34.961 16.1804C34.9037 16.4421 34.8955 16.7366 34.8301 16.9983C34.6829 18.0288 34.4784 19.0184 34.2658 20.0232C34.1291 19.9496 33.9795 19.9052 33.8241 19.8923C33.8241 19.8105 33.8241 19.7042 33.8241 19.6142C33.7762 18.9004 33.5671 18.2075 33.2107 17.586C33.0238 17.2717 32.9245 16.913 32.9245 16.5473C32.9374 16.4188 33.0145 16.3043 33.129 16.2447" fill="#F9F4ED"/>
<path d="M34.7226 21.2597C34.7226 21.2597 34.7226 21.2188 34.7226 21.1943C34.7331 20.9887 34.7144 20.7819 34.6653 20.5809C34.7553 20.5809 34.8698 20.7118 34.9925 20.6463C35.0381 20.6066 35.0673 20.5505 35.0743 20.4909C35.1152 20.3379 35.1152 20.1778 35.0743 20.0248C34.9458 19.6813 34.8733 19.3202 34.8616 18.9534C34.8453 18.7583 34.9528 18.5748 35.1315 18.4954C35.426 18.4545 35.5568 18.6835 35.7531 18.8471C35.8173 18.8786 35.8933 18.8786 35.9576 18.8471C36.1702 18.6251 36.2975 18.3365 36.3174 18.0292C36.3863 17.6039 36.6107 17.2195 36.9472 16.9496C37.0792 16.8749 37.2404 16.8749 37.3724 16.9496C37.654 17.2441 37.7919 17.6483 37.7487 18.0537C37.7405 18.1157 37.7405 18.1799 37.7487 18.2418C37.7323 18.3692 37.7779 18.4965 37.8713 18.5853C38.0267 18.6344 38.0921 18.4627 38.223 18.4627C38.3539 18.4627 38.362 18.4627 38.4438 18.4627C38.5256 18.4627 38.6565 18.6671 38.681 18.8143C38.5875 19.4803 38.3036 20.1042 37.8631 20.6136C37.8631 20.7118 37.7732 20.8508 37.8631 20.9408C37.9531 21.0307 38.1658 20.9408 38.2966 20.9408C38.3539 20.9419 38.4099 20.9559 38.4602 20.9817C38.5583 21.0658 38.6027 21.1978 38.5747 21.3251C38.5279 21.5366 38.4205 21.7306 38.2639 21.8813C38.1716 22.0005 38.0699 22.1126 37.9613 22.2166C37.9204 22.2166 37.8795 22.2902 37.8386 22.3148C37.6178 22.5765 37.2661 22.7319 37.2007 23.0917C37.2007 23.1431 37.2287 23.1899 37.2743 23.2144C37.4624 23.2144 37.6342 23.149 37.8386 23.2144C37.9601 23.2249 38.0723 23.2833 38.1494 23.378C38.2721 23.7133 37.9613 23.975 37.7405 24.1958C37.5045 24.3617 37.2486 24.4996 36.9799 24.6047C36.7649 24.3454 36.4307 24.2145 36.0966 24.2612C35.8442 24.2986 35.607 24.4026 35.4096 24.5638C35.3605 24.3874 35.2472 24.2355 35.0906 24.1386C35.3687 23.746 35.6631 23.3207 35.9085 22.9363C36.0475 22.7482 36.1538 22.5192 36.2847 22.3393C36.4319 21.9876 36.6364 21.6686 36.7672 21.3006C36.8327 21.1043 36.9226 20.9162 36.9717 20.7118C37.1493 20.186 37.21 19.6287 37.1516 19.0761C37.1469 19.0071 37.1107 18.944 37.0535 18.9043C36.939 18.9043 36.9063 19.0515 36.8654 19.1333C36.7754 19.4359 36.7345 19.7467 36.62 20.0411C36.3408 20.9186 35.9505 21.7563 35.4587 22.5344C35.3886 22.2867 35.1818 22.1009 34.9271 22.06C34.8383 22.0437 34.746 22.0437 34.6572 22.06C34.6572 21.9783 34.7062 21.921 34.7062 21.8392C34.7436 21.6488 34.7483 21.4525 34.7226 21.2597Z" fill="#F9F4ED"/>
<path d="M30.1122 8.3411C30.2501 8.29203 30.3996 8.29203 30.5375 8.3411C30.5854 8.35746 30.6368 8.35746 30.6847 8.3411C30.9219 8.28385 30.9628 7.97307 30.8974 7.8095C30.7665 7.48236 30.3003 7.13068 30.3658 6.7054C30.3868 6.55117 30.4908 6.41915 30.6356 6.3619C31.1673 6.14926 31.7643 6.86897 32.1814 7.17975C32.3613 7.28607 32.5167 7.44147 32.7457 7.39239C32.9747 7.34332 32.9093 7.05707 33.0974 6.99982C33.2785 6.98697 33.4491 7.08395 33.5308 7.24518C33.7762 7.75692 33.9129 8.31306 33.9316 8.88089C33.9316 9.09353 33.9316 9.32253 33.9725 9.54335C33.8545 9.74314 33.7715 9.96162 33.7271 10.1895C33.6909 10.5224 33.7049 10.8578 33.768 11.1872C33.6617 11.1744 33.5554 11.1744 33.4491 11.1872C33.2271 10.1123 32.7995 9.09119 32.1896 8.1787C32.0587 8.03149 31.9197 7.81885 31.7152 7.80249C31.6883 7.84455 31.6883 7.89946 31.7152 7.94152C31.7187 8.01162 31.7409 8.07939 31.7806 8.13781C31.7806 8.20324 31.8297 8.24413 31.8461 8.31774C32.3566 9.27462 32.7282 10.2981 32.9502 11.359C32.9502 11.4653 32.852 11.5062 32.8193 11.6043C32.7843 11.7445 32.7574 11.8859 32.7375 12.0296C32.394 11.5225 31.4862 11.4326 31.1018 10.9173C31.0119 10.8052 30.9815 10.6556 31.02 10.5166C31.1264 10.3285 31.3717 10.4021 31.5435 10.353C31.5937 10.3238 31.6276 10.2724 31.6334 10.214C31.5037 9.94993 31.2876 9.73963 31.02 9.61695C30.5737 9.42651 30.2174 9.0725 30.0223 8.62735C29.986 8.51636 30.0293 8.39485 30.1286 8.33292" fill="#F9F4ED"/>
<path d="M30.2349 11.3987C30.3564 11.3567 30.4896 11.3567 30.6111 11.3987L30.7502 11.456C31.3086 11.8439 31.8998 12.1827 32.5167 12.4701C32.5973 12.4771 32.6768 12.4503 32.7375 12.3965C32.7913 12.6325 32.8883 12.8568 33.0238 13.059C33.046 13.066 33.0682 13.0742 33.0892 13.0835C32.8556 13.1361 32.6616 13.2973 32.5658 13.517L32.5249 13.5906C32.2947 13.2681 31.9921 13.0052 31.6416 12.8218C31.5902 12.8113 31.5388 12.844 31.5271 12.8954C31.5271 13.1735 31.7725 13.3861 31.9115 13.5906C32.352 14.232 32.6768 14.9459 32.8684 15.6995C32.7399 15.7626 32.6277 15.8549 32.5413 15.9694C32.3216 16.404 32.3216 16.9169 32.5413 17.3515C32.6476 17.5969 32.8193 17.8341 32.9175 18.0876C33.0904 18.507 33.2119 18.9463 33.2773 19.3962C33.261 19.5866 33.261 19.7782 33.2773 19.9687C33.2773 19.9687 33.2773 20.0177 33.2773 20.0259C33.2773 20.0341 33.2773 19.9523 33.2283 19.9278C32.9665 19.0363 31.5926 18.1612 31.0458 17.4754C30.6976 17.1167 30.5247 16.6236 30.5714 16.1259C30.6076 16.0032 30.721 15.9203 30.8495 15.9215C31.0002 15.9296 31.1497 15.946 31.2993 15.9705C31.3706 15.9635 31.4325 15.9203 31.4629 15.856C31.5201 15.627 31.3647 15.4471 31.2502 15.2754C31.0551 15.0802 30.8506 14.8945 30.6368 14.7192C30.6368 14.7192 30.6368 14.6701 30.5959 14.662C30.3833 14.4166 30.1379 14.2121 30.2361 13.8441C30.3179 13.6887 30.4978 13.7051 30.6368 13.6805C30.6941 13.6537 30.7361 13.6023 30.7513 13.5415C30.7513 13.108 30.4405 12.8136 30.2688 12.4783C30.1146 12.2341 30.0433 11.9479 30.0643 11.6604C30.1134 11.5705 30.1379 11.4642 30.2443 11.4069" fill="#F9F4ED"/>
<path d="M29.9896 24.8323C29.9989 24.6641 30.0211 24.4982 30.055 24.3334C30.1122 24.1535 30.1777 23.9572 30.3821 23.9082C30.5866 23.8591 30.8647 24.3825 31.0773 24.039C31.1427 23.7866 31.1264 23.5203 31.0282 23.2784C30.9628 23.0167 30.8156 22.7795 30.7502 22.5014C30.638 22.2432 30.5737 21.9652 30.5621 21.6836C30.5574 21.5399 30.6146 21.3997 30.7174 21.2992C30.8401 21.1602 31.0037 21.2992 31.1427 21.242C31.2818 21.1847 31.2327 21.1929 31.2736 21.152C31.3554 20.6858 31.0446 20.3341 31.11 19.8434C31.1053 19.5805 31.2268 19.3305 31.4372 19.1728C31.7187 19.0221 32.0681 19.1027 32.255 19.3609C32.449 19.6133 32.6137 19.8878 32.7457 20.1787C32.9256 20.5877 33.032 20.9557 33.5063 20.6204C33.6535 20.5141 33.768 20.3505 33.9807 20.3669C34.1045 20.3937 34.2027 20.4884 34.2342 20.6122C34.2891 20.9043 34.2693 21.2046 34.177 21.4873C34.1045 21.6766 34.0601 21.874 34.0461 22.0762C34.0169 22.2082 34.0169 22.3449 34.0461 22.4769C34.0461 22.5178 34.0952 22.5832 34.1524 22.5832C34.2097 22.5832 34.3569 22.4851 34.4796 22.4687C34.6046 22.4115 34.7471 22.4115 34.8721 22.4687C34.9586 22.5412 35.0018 22.6522 34.9866 22.7632C34.9294 23.3111 34.406 23.6301 34.1688 24.1126C34.1396 24.1839 34.1396 24.2622 34.1688 24.3334C34.1886 24.3708 34.2249 24.3954 34.2669 24.3989C34.2669 24.3989 34.2669 24.3989 34.316 24.3989C34.3651 24.3989 34.4469 24.3989 34.5041 24.3498C34.5613 24.3007 34.8394 24.3498 34.9212 24.5052C35.0193 24.8078 34.7903 25.0368 34.6186 25.2413C34.4422 25.0309 34.1723 24.9235 33.8989 24.955C33.1546 25.1513 32.9175 25.9283 32.7212 26.7216C32.6476 26.6071 32.5494 26.5089 32.4349 26.4353C32.9408 24.9211 33.0179 23.2971 32.6558 21.742C32.6324 21.4406 32.5155 21.1555 32.3204 20.9242C32.2749 20.9207 32.2305 20.9429 32.2059 20.9814C32.1814 21.1356 32.1814 21.2934 32.2059 21.4476C32.463 23.0681 32.3625 24.726 31.9115 26.3045C31.7561 26.3033 31.6042 26.3524 31.478 26.4435C31.0644 26.8034 30.8588 27.3466 30.9301 27.8911C30.9313 28.0453 30.8915 28.1984 30.8156 28.3327C30.4803 27.4004 29.9977 27.3022 29.687 27.5149C30.2022 26.697 30.0713 25.8792 30.0304 24.8499" fill="#F9F4ED"/>
<path d="M25.926 30.3923C26.0814 30.2124 26.3104 29.9752 26.5476 30.1061C26.7847 30.2369 26.6294 30.5722 26.8502 30.7031C27.071 30.834 27.2346 30.3923 27.3163 30.1551C27.4168 29.7439 27.5418 29.3408 27.6926 28.9447C27.8071 28.7403 27.9134 28.5194 28.1914 28.593C28.4695 28.6666 28.3632 29.141 28.6576 29.1001C28.9521 29.0592 29.2465 27.9142 29.819 28.0451C30.1052 28.1105 30.3751 28.6176 30.3833 29.28C30.3132 29.696 30.2992 30.1201 30.3424 30.5395C30.3424 30.5395 30.3915 30.605 30.3915 30.6459C30.2279 30.7931 30.048 30.9239 29.8762 31.0548C29.8201 30.9216 29.7372 30.8012 29.6309 30.7031C29.5514 30.6412 29.4673 30.5863 29.3773 30.5395C29.5339 30.2159 29.6133 29.8607 29.6063 29.5009C29.5654 29.4693 29.5082 29.4693 29.4673 29.5009C29.2547 29.6644 29.1156 30.1551 28.8866 30.5395C28.2534 30.7428 27.7521 31.23 27.529 31.8563C27.529 31.8563 27.529 31.799 27.4799 31.7827C27.3082 31.5618 27.0266 31.4567 26.752 31.5128C26.0241 31.6682 25.6479 32.4288 25.2308 33.0585C25.1163 32.7559 24.8955 32.715 24.6256 32.6169C25.2635 31.799 25.3944 30.9812 25.9096 30.4262" fill="#F9F4ED"/>
<path d="M23.3825 34.2598C23.6465 33.8099 23.99 33.4104 24.3966 33.082C24.5053 33.033 24.6303 33.033 24.7401 33.082C24.8873 33.1638 24.8955 33.54 25.1327 33.5237C25.3698 33.5073 25.8769 32.9348 26.0896 32.624C26.2578 32.3226 26.5359 32.0971 26.8665 31.9943C26.9728 31.9663 27.085 32.0083 27.1446 32.1006C27.2673 32.2887 27.1446 32.5995 27.3082 32.7549C27.4963 32.7549 27.6189 32.6241 27.7253 32.5014C27.8316 32.3787 27.9543 32.1252 28.0769 31.9779C28.0945 31.9113 28.1284 31.8494 28.1751 31.798C28.3737 31.4557 28.6903 31.1975 29.0665 31.0701C29.1939 31.0409 29.3247 31.1017 29.3855 31.2173C29.4322 31.3143 29.4556 31.4206 29.4509 31.5281C29.4509 31.5281 29.4509 31.569 29.4509 31.6017C29.4509 31.6344 29.4509 31.7326 29.5491 31.7489C29.6928 31.7735 29.84 31.7478 29.9662 31.6753C30.4978 31.4709 30.784 30.9556 31.3484 30.8575C31.589 30.771 31.8554 30.7944 32.0762 30.9229C32.2457 31.1087 32.2936 31.3762 32.1989 31.6099C32.1989 31.6099 32.1989 31.6672 32.1989 31.6835C32.0599 32.0516 31.8145 32.3623 31.651 32.714C31.651 32.7631 31.651 32.7958 31.651 32.8449C31.6346 32.95 31.6638 33.0575 31.7327 33.1393C31.79 33.1732 31.8496 33.2001 31.9127 33.2211C32.0365 33.262 32.1393 33.3508 32.1989 33.4664C32.2141 33.6674 32.0984 33.8555 31.9127 33.9326C31.3156 34.3088 30.5141 34.1698 29.8844 34.4642C29.7045 34.5215 29.4673 34.6114 29.4264 34.8159C29.3855 35.0204 29.4264 34.9468 29.5245 34.9876C29.6227 35.0285 29.8026 35.143 29.8108 35.2902C29.819 35.4375 29.5654 35.6583 29.3691 35.7401L29.1974 35.7973C28.2323 36.01 27.1855 35.6992 26.2134 35.8627C25.9681 35.8943 25.7274 35.9515 25.4937 36.0345C25.4201 36.0345 25.3628 35.9854 25.2892 35.9691C24.9048 35.7833 24.5053 35.6302 24.0952 35.5111L24.913 35.3475C24.913 35.3475 25.0112 35.3475 25.0439 35.3475C25.232 35.2657 25.4283 35.2821 25.6082 35.1921C25.7881 35.1021 25.7472 35.1349 25.8208 35.143C26.1153 35.0367 26.4097 34.9468 26.7123 34.8486L27.4647 34.5624C27.4998 34.5542 27.536 34.5542 27.571 34.5624C27.6236 34.5285 27.682 34.5028 27.7428 34.4888L28.029 34.3579C28.4193 34.1897 28.799 33.9992 29.1659 33.7854C29.2722 33.7363 29.403 33.6545 29.5175 33.5891C30.0328 33.3029 30.4884 32.9196 30.8588 32.4605C30.8915 32.4114 30.8915 32.346 30.8588 32.2969C30.7525 32.2397 30.638 32.2969 30.5398 32.346C30.0445 32.6568 29.5315 32.9372 29.0023 33.1884L28.1844 33.5973L27.9636 33.6791C27.6774 33.8099 27.3748 33.9081 27.0885 34.0226L26.4506 34.2107L26.0417 34.3415C25.1666 34.5951 23.9328 34.8895 23.2131 35.0285C22.9677 35.0776 22.7142 35.1349 22.4688 35.1676C22.8555 34.9561 23.1874 34.6605 23.4421 34.3006" fill="#F9F4ED"/>
<path fill-rule="evenodd" clip-rule="evenodd" d="M17.8713 35.2645C18.4649 35.0519 19.0175 34.7387 19.507 34.3403C20.0679 34.7878 20.7046 35.1278 21.3881 35.3463C20.8308 35.8978 20.194 36.3639 19.4989 36.7285C19.4498 36.7285 19.4416 36.7285 19.3925 36.6794C18.8294 36.3721 18.3083 35.9959 17.8386 35.5589C17.7545 35.497 17.6774 35.4257 17.6096 35.3463C17.6914 35.3463 17.7895 35.289 17.8713 35.2482" fill="#051D32"/>
<path d="M13.9713 36.4585C14.0286 36.4094 14.1104 36.4585 14.1676 36.3849C14.788 36.1909 15.4189 36.0297 16.0568 35.9023C16.3676 35.8206 16.6948 35.7388 16.9974 35.6406C17.1878 35.8463 17.3958 36.0344 17.6189 36.2049C17.3748 36.3066 17.1236 36.3884 16.8665 36.4503C16.0487 36.7202 15.1654 36.8265 14.3569 37.1046C13.7856 37.2705 13.2656 37.5766 12.8439 37.996C12.6534 38.1912 12.5039 38.4213 12.4022 38.6749C12.2223 38.4295 12.1078 38.1678 11.9279 37.9388C12.4314 37.2378 13.1488 36.7179 13.9713 36.4585Z" fill="#F9F4ED"/>
<path d="M20.742 36.6468C20.742 36.6468 20.742 36.5977 20.7992 36.6468C20.9663 36.7228 21.1392 36.7882 21.3145 36.8431C21.8297 37.0242 22.3566 37.1691 22.8929 37.2766C23.032 37.2766 23.1628 37.342 23.3019 37.3502C23.6535 37.4319 24.0297 37.5056 24.3651 37.6119C24.4305 37.6609 24.5204 37.6119 24.5777 37.7018C25.2775 37.9227 25.8524 38.4274 26.1643 39.0922V39.1658C25.9762 39.452 25.8208 39.7056 25.6409 39.9836C25.5837 39.9346 25.6409 39.8528 25.5837 39.7792C25.3465 38.7405 24.226 38.3561 23.3194 38.1435C22.1779 37.932 21.0656 37.5838 20.0082 37.1048C20.2618 36.9693 20.5048 36.8162 20.7361 36.6468" fill="#F9F4ED"/>
<path d="M21.9103 35.6246C22.7282 35.9191 23.6932 36.0008 24.5426 36.2871C25.2787 36.5021 25.961 36.8701 26.5464 37.3667C26.7088 37.5302 26.8431 37.7172 26.9471 37.9228C26.877 38.0069 26.8139 38.0981 26.759 38.1927C26.6609 38.3317 26.5791 38.5035 26.4728 38.6425C26.4728 38.6425 26.4728 38.5934 26.4728 38.5771C26.3034 38.202 26.0487 37.8714 25.7285 37.612C25.6958 37.5933 25.6654 37.5723 25.6386 37.5466C24.6139 37.0232 23.5086 36.6773 22.3683 36.5243C22.0166 36.418 21.665 36.328 21.3297 36.189C21.5341 36.0008 21.7549 35.8127 21.9594 35.6001" fill="#051D32"/>
<path d="M13.3264 38.2987C13.976 37.7951 14.7448 37.4715 15.558 37.3581C15.607 37.3581 15.6561 37.3581 15.7052 37.3581C15.7543 37.3581 15.8769 37.3581 15.9669 37.3009C16.2041 37.2355 16.4658 37.2027 16.7111 37.121C17.1832 36.9936 17.6482 36.8382 18.1015 36.6548C18.3387 36.8184 18.5758 37.0065 18.8294 37.1537C17.6937 37.6397 16.5055 37.9914 15.2892 38.2005C14.7027 38.3419 14.1594 38.6223 13.7026 39.0184C13.4491 39.2918 13.2785 39.6329 13.2119 39.9998L12.7212 39.182C12.8509 38.8443 13.0612 38.544 13.3346 38.3068" fill="#051D32"/>
<path d="M17.2264 31.8879C16.8758 31.7197 16.495 31.6251 16.1059 31.6099C16.8209 32.5784 17.6072 33.4909 18.4601 34.3403C18.681 34.2422 18.8854 34.1102 19.0654 33.9478C18.4087 33.3017 17.7953 32.6135 17.2264 31.8879Z" fill="#F9F4ED"/>
<path d="M15.2962 31.3645C14.982 31.1823 14.6209 31.097 14.2576 31.1192C15.121 32.4721 16.1024 33.7445 17.1925 34.921C17.4367 34.8439 17.6739 34.7481 17.904 34.6348C16.9448 33.6206 16.072 32.527 15.2962 31.3645Z" fill="#051D32"/>
<path d="M21.797 31.8879C22.144 31.7174 22.5226 31.6227 22.9093 31.6099C22.1943 32.5784 21.4079 33.4909 20.555 34.3403C20.3342 34.241 20.1309 34.109 19.9498 33.9478C20.61 33.304 21.2268 32.6158 21.797 31.8879Z" fill="#F9F4ED"/>
<path d="M23.7259 31.3645C24.0379 31.1823 24.3966 31.097 24.7564 31.1192C23.8965 32.4733 22.9139 33.7456 21.8215 34.921C21.5773 34.8439 21.3402 34.7481 21.11 34.6348C22.0727 33.6206 22.9478 32.527 23.7259 31.3645Z" fill="#051D32"/>
<path fill-rule="evenodd" clip-rule="evenodd" d="M19.507 29.3618C20.7501 28.6012 22.2947 28.544 23.7505 28.2823C25.6608 28.1456 27.1434 26.5589 27.1516 24.644V8.99498H11.8706V24.644C11.8788 26.5601 13.3614 28.1456 15.2717 28.2823C16.7275 28.5031 18.272 28.6012 19.507 29.3618ZM19.507 30.2451C19.3446 30.0664 19.1507 29.9192 18.9345 29.8117C17.7334 29.3467 16.4669 29.0698 15.1817 28.9938C12.9245 28.8069 11.1883 26.9176 11.1918 24.6522V8.2998H27.8304V24.6522C27.8339 26.9176 26.0977 28.8069 23.8405 28.9938C22.5541 29.0686 21.2876 29.3443 20.0877 29.8117C19.8692 29.9192 19.6729 30.0664 19.507 30.2451Z" fill="#F9F4ED"/>
<path d="M13.7762 1.41602H13.0974V2.79818H13.7762V1.41602Z" fill="#F9F4ED"/>
<path d="M18.5583 0.000976562H19.2371V0.712509H19.7851V0.000976562H20.4557V1.39133H18.5583V0.000976562Z" fill="#F9F4ED"/>
<path d="M14.323 2.29018V0.712891H15.0018V2.09389L15.6806 3.13257V5.28352H15.0018V3.33703L14.323 2.29018Z" fill="#F9F4ED"/>
<path d="M16.2286 1.41624H16.7766V2.09389H15.5498V0.712891H16.2286V1.41624Z" fill="#F9F4ED"/>
<path d="M17.3899 6.5089H12.5494V4.04015L11.8706 3.00148V1.41602H12.5494V2.79702L13.2201 3.83569V5.83826H17.3899V6.5089Z" fill="#F9F4ED"/>
<path d="M25.926 1.41602H25.2472V2.79818H25.926V1.41602Z" fill="#F9F4ED"/>
<path d="M24.6992 2.29018V0.712891H24.0204V2.09389L23.3416 3.13257V5.28352H24.0204V3.33703L24.6992 2.29018Z" fill="#F9F4ED"/>
<path d="M22.7936 1.41624H22.2375V2.09389H23.4643V0.712891H22.7936V1.41624Z" fill="#F9F4ED"/>
<path d="M12.5494 7.74403V7.06521H17.9461V5.83843C17.883 4.97385 18.5338 4.22142 19.3984 4.1595C20.263 4.09641 21.0154 4.74718 21.0773 5.61177C21.0831 5.68771 21.0831 5.76249 21.0773 5.83843V7.06521H26.474V7.74403H20.3985V5.83843C20.3985 5.34655 19.9989 4.94698 19.507 4.94698C19.0151 4.94698 18.6156 5.34655 18.6156 5.83843V7.74403H12.5494Z" fill="#F9F4ED"/>
<path d="M21.6252 6.5089H26.4728V4.04015L27.1516 3.00148V1.41602H26.4728V2.79702L25.8033 3.83569V5.83826H21.6252V6.5089Z" fill="#F9F4ED"/>
<path d="M18.6156 3.90934V2.33088L18.0104 1.38217V0H17.3315V1.58663L17.9449 2.52716V4.40823C18.1354 4.20143 18.3632 4.03201 18.6156 3.90934Z" fill="#F9F4ED"/>
<path d="M20.3985 3.90934V2.33088L21.0119 1.38217V0H21.6907V1.58663L21.0773 2.52716V4.40823C20.8857 4.19909 20.6544 4.02968 20.3985 3.90934Z" fill="#F9F4ED"/>
</svg>
