<svg width="88" height="40" viewBox="0 0 88 40" fill="none" xmlns="http://www.w3.org/2000/svg">
<path d="M15.5072 10.5669C11.2626 10.5669 7.19911 11.3427 3.42847 12.87L3.32104 12.913L3.32207 22.2983C3.32207 30.4975 7.50996 36.6088 15.4361 39.9699L15.5017 39.9999L15.5673 39.9699C23.4935 36.6088 27.6823 30.4974 27.6823 22.2983L27.6813 12.9119L27.577 12.8679C23.7949 11.3406 19.734 10.5669 15.5072 10.5669ZM15.5072 11.368C19.4944 11.368 23.3326 12.081 26.9147 13.4894L26.9158 22.3413C26.9158 32.1356 20.7295 36.8827 15.5038 39.1463C10.2772 36.8836 4.08755 32.1356 4.08755 22.3413L4.08653 13.4904C7.6634 12.0812 11.504 11.368 15.5072 11.368ZM6.58743 13.9623V14.0302L6.74763 14.2956L6.74226 15.7149L5.35953 15.7105L5.10471 15.5461H5.03698V16.4471H5.10481L5.35953 16.2805H6.739L6.74763 17.6975L6.58735 17.962V18.0287H7.57557V17.962L7.41528 17.6975L7.40453 16.2805H8.78294L9.03988 16.4471H9.1055V15.5461H9.03988L8.78294 15.7106H7.40453L7.41528 14.2956L7.57557 14.0301V13.9622L6.58743 13.9623ZM9.87309 17.2062C9.18784 17.2062 8.57651 17.6245 8.57651 18.4877C8.57651 19.9287 10.5795 19.801 10.5795 20.7284C10.5795 21.197 10.1788 21.4649 9.72691 21.4649C9.45387 21.4649 9.22888 21.3868 9.05273 21.2618C8.80611 21.0909 8.70288 20.8709 8.67646 20.7026H8.54206V21.8789C8.80982 21.9494 9.17994 21.9843 9.60008 21.9843C10.5822 21.9843 11.2924 21.4251 11.2924 20.5919C11.2924 19.0946 9.17642 19.2308 9.17642 18.3394C9.17642 17.9272 9.47183 17.7233 9.86995 17.7233C10.3385 17.7233 10.65 17.9813 10.8086 18.2438H10.9419V17.4739C10.6671 17.3207 10.2888 17.2062 9.87309 17.2062ZM12.0751 19.95V20.0898L12.2417 20.4694V24.1078L12.0751 24.3841V24.4519H13.0739V24.3841L12.9083 24.1078V20.6113C12.9083 20.5629 12.9204 20.5086 12.9697 20.4866C13.0595 20.4399 13.1763 20.435 13.4406 20.435C13.9232 20.435 14.4083 20.7292 14.4083 21.3853C14.4083 21.7377 14.2077 22.0285 13.9717 22.1703C13.7841 22.2848 13.5543 22.3509 13.3094 22.3755V22.7208C13.5824 22.7208 13.9603 22.6584 14.1717 22.5756C14.5487 22.4241 15.1093 22.0645 15.1093 21.2445C15.1093 20.3593 14.4433 19.95 13.6083 19.95H12.0751ZM16.6683 22.8412C15.4026 22.8412 14.5426 23.831 14.5426 25.0518C14.5426 26.1871 15.365 27.1211 16.4263 27.2462C16.6536 27.8847 16.9701 28.4056 17.3972 28.7192C17.9389 29.112 18.4572 29.1101 18.8756 29.074V28.7353C18.6052 28.6992 18.2665 28.5867 18.0692 28.4396C17.7847 28.2265 17.442 27.7669 17.1382 27.2032C18.0832 26.983 18.7939 26.107 18.7939 25.0518C18.7939 23.831 17.8424 22.8412 16.6683 22.8412ZM16.5844 23.4035C17.1398 23.4413 17.6845 23.8567 17.9435 24.5034C18.2852 25.3657 17.9875 26.3108 17.2768 26.6182C16.5695 26.9256 15.713 26.4733 15.3695 25.6119C15.0277 24.7505 15.327 23.8036 16.0361 23.4971C16.2087 23.4223 16.3968 23.3902 16.5844 23.4035ZM19.7508 26.2828V26.4237L19.9165 26.8064V30.4395L19.7508 30.718V30.7889H20.7507V30.718L20.5851 30.4395V28.917H21.3904C21.7357 29.6067 22.0956 30.2061 22.514 30.5717C22.8398 30.8579 23.2401 30.9684 23.6655 30.9728C23.7492 30.9728 23.8313 30.9678 23.915 30.9598V30.6212C23.6331 30.5692 23.3899 30.4436 23.2419 30.3115C22.6518 29.7962 22.3774 29.3091 21.9334 28.63C22.3959 28.4846 22.785 28.061 22.785 27.4365C22.785 26.5998 22.1205 26.2829 21.2829 26.2829L19.7508 26.2828ZM21.1141 26.7742C21.536 26.7742 22.0828 26.9299 22.0828 27.5817C22.0828 27.9384 21.9322 28.1634 21.6248 28.3589L20.5808 28.3664V26.9484C20.5808 26.8991 20.5946 26.8473 20.6421 26.8236C20.7328 26.7778 20.8464 26.7742 21.1141 26.7742Z" fill="#F9F4ED"/>
<path d="M15.5027 0.000268174C15.3124 -0.00589733 15.2003 0.0954017 15.1114 0.185242L13.9706 1.31951C13.7583 1.53002 13.7944 1.9019 13.9609 2.19256L14.3641 2.90757L14.2846 2.96456C14.0089 2.75845 13.6905 2.66561 13.3179 2.66561C12.4548 2.66561 11.7546 3.33529 11.7546 4.16235C11.7546 4.98764 12.4548 5.65571 13.318 5.65571C13.7487 5.65571 14.1327 5.48307 14.4146 5.21267L14.577 5.27406C14.4872 6.80222 13.2118 8.01462 11.6396 8.01462C10.2585 8.01462 9.08266 7.06312 8.76557 5.79655L8.90436 5.70407C9.21704 5.88199 9.60001 5.95131 9.98491 5.85354C10.7574 5.66153 11.2343 4.90668 11.0493 4.1677C10.8644 3.42784 10.0886 2.98657 9.31615 3.17946C8.98233 3.26226 8.71723 3.41375 8.51729 3.66125L8.43343 3.62472L8.63664 2.89787C8.67627 2.74902 8.68639 2.58978 8.6538 2.45062C8.62297 2.31146 8.55233 2.18991 8.43343 2.11944L7.15285 1.35607C7.05244 1.29089 6.92359 1.2495 6.76153 1.29265C6.60034 1.33405 6.50336 1.42758 6.44435 1.5324L5.6777 2.80541C5.63014 2.87763 5.61236 2.96279 5.61324 3.04734C5.61588 3.23671 5.71647 3.43454 5.86268 3.58603L6.38302 4.13538L6.32604 4.20639C6.0345 4.08043 5.72694 4.07196 5.39497 4.15476C4.62076 4.34677 4.1447 5.10073 4.33055 5.84059C4.51375 6.57957 5.28997 7.02261 6.06154 6.82971C6.4277 6.73934 6.74479 6.51095 6.9465 6.19228L7.11092 6.18347C7.20971 6.47288 7.25987 6.77667 7.25933 7.08249C7.25933 8.51729 6.1714 9.6779 4.82732 9.6779C3.71049 9.6779 2.7652 8.87781 2.48335 7.78563L2.55543 7.61036C2.79236 7.65352 3.04541 7.63387 3.28763 7.53082C3.9262 7.26041 4.23426 6.54523 3.97355 5.93308C3.71283 5.32093 2.98479 5.04525 2.34358 5.31477C2.06965 5.43367 1.86064 5.60014 1.72324 5.84059L1.64372 5.82122L1.71894 5.16757C1.75065 4.89893 1.64951 4.63699 1.43724 4.52249L0.429802 3.972C0.297684 3.89977 0.221234 3.89917 0.172791 3.92471L0.111592 3.96011C0.0969226 3.96802 0.0852193 3.98048 0.0782184 3.99561C0.0332983 4.0969 0.14918 4.35259 0.14918 4.35259L0.940468 6.21897L0.848003 6.37822C0.776659 6.72349 0.801043 7.02533 0.914664 7.2878C1.02476 7.54235 1.22244 7.75895 1.50606 7.9351L1.68987 7.97059L1.90495 8.47704L2.66725 9.76828L2.99625 10.4983L2.9661 10.9552L3.1371 11.3563L3.50911 11.5413C7.13971 10.0986 11.2061 9.29247 15.5017 9.28983C19.7981 9.28895 23.8671 10.0984 27.4941 11.5411L27.8683 11.3561L28.0393 10.9552V10.5499L29.3166 7.97059L29.4994 7.9351C29.7821 7.75895 29.9797 7.54227 30.0907 7.28772C30.2034 7.02524 30.2261 6.72349 30.1574 6.37822L30.0639 6.21906L30.8563 4.35259C30.8563 4.35259 30.9717 4.0969 30.925 3.99561C30.9225 3.98791 30.9184 3.98081 30.913 3.97471C30.9077 3.96861 30.9012 3.96363 30.8939 3.96011L30.8315 3.92471C30.784 3.89917 30.7075 3.89977 30.5745 3.972L29.5683 4.52249C29.356 4.63699 29.2544 4.89893 29.2844 5.16757L29.3607 5.8213L29.2823 5.84068C29.1449 5.60022 28.9354 5.43376 28.6597 5.31485C28.0203 5.04533 27.2906 5.32102 27.0308 5.93317C26.7701 6.54531 27.0783 7.26041 27.7178 7.53082C27.9591 7.63387 28.213 7.65352 28.45 7.61036L28.522 7.78563C28.241 8.87781 27.2952 9.6779 26.1792 9.6779C24.8352 9.6779 23.7462 8.51729 23.7462 7.08249C23.7462 6.76629 23.7969 6.46366 23.8955 6.18357L24.059 6.1922C24.2604 6.51071 24.577 6.73916 24.9428 6.82989C25.7144 7.02278 26.4899 6.57966 26.6749 5.84068C26.8598 5.10082 26.3831 4.34685 25.6116 4.15484C25.2769 4.07205 24.9725 4.08043 24.6783 4.20639L24.6213 4.13538L25.1427 3.58603C25.2881 3.43454 25.3876 3.23671 25.3911 3.04734C25.392 2.96279 25.3735 2.87763 25.3277 2.80541L24.5611 1.5324C24.4985 1.42758 24.4047 1.33405 24.2418 1.29265C24.0806 1.2495 23.9515 1.29089 23.8493 1.35607L22.572 2.11944C22.454 2.18991 22.3824 2.31146 22.3516 2.45062C22.3199 2.58978 22.3274 2.74902 22.3688 2.89787L22.572 3.62472L22.4871 3.66125C22.288 3.41375 22.0219 3.26226 21.6872 3.17946C20.9165 2.98657 20.1383 3.42784 19.9551 4.1677C19.7692 4.90668 20.2459 5.66153 21.0183 5.85354C21.405 5.95131 21.7875 5.88199 22.1011 5.70407L22.2376 5.79655C21.9241 7.06312 20.7467 8.01462 19.3648 8.01462C17.7943 8.01462 16.5174 6.80222 16.4284 5.27406L16.5908 5.21275C16.8735 5.48315 17.257 5.65579 17.6886 5.65579C18.55 5.65579 19.2497 4.98764 19.2497 4.16235C19.2497 3.33529 18.55 2.66561 17.6886 2.66561C17.3142 2.66561 16.9956 2.75845 16.7199 2.96456L16.6402 2.90757L17.0456 2.19256C17.2112 1.9019 17.2473 1.53002 17.0359 1.31951L15.893 0.185242C15.8049 0.0954017 15.6929 0.0046721 15.5027 0.000268174Z" fill="#F9F4ED"/>
<path d="M64.1517 20.5036H66.0912V20.4244C65.6558 20.4244 65.4381 20.2463 65.3985 20.0088L64.6069 13.5371C64.5673 13.2204 64.686 13.0621 65.1808 13.0621V12.9829H63.7559L61.282 18.9598L58.8872 12.9829H57.2446V13.0621C57.7591 13.0621 58.0164 13.2996 57.9768 13.6558L57.1654 20.1077C57.1258 20.365 56.9279 20.4442 56.5519 20.4442V20.5233H57.7987V20.4442C57.5612 20.4442 57.4821 20.3848 57.5019 20.2265L58.2935 13.9527L60.9851 20.6421L63.7559 13.9131L64.4683 20.2067C64.4683 20.3452 64.4288 20.4442 64.1517 20.4442" fill="#F9F4ED"/>
<path fill-rule="evenodd" clip-rule="evenodd" d="M49.0708 17.9308C48.3187 16.11 48.6552 14.2101 50.476 13.458C52.2967 12.7059 53.88 13.7944 54.6321 15.635C55.3842 17.4558 55.0477 19.3558 53.2269 20.1078C51.4061 20.8599 49.8228 19.7714 49.0708 17.9308ZM47.9427 16.7829C47.9427 14.6257 49.7041 12.8643 51.8613 12.8643C54.0186 12.8643 55.78 14.6257 55.78 16.7829C55.78 18.9401 54.0186 20.7016 51.8613 20.7016C49.7041 20.7016 47.9427 18.9401 47.9427 16.7829Z" fill="#F9F4ED"/>
<path fill-rule="evenodd" clip-rule="evenodd" d="M42.3022 16.5852V13.2602H43.2324C44.123 13.2602 45.0334 13.6957 45.0334 14.7248C45.0334 16.2091 44.0834 16.5654 43.4105 16.5654M43.3907 16.882C43.3907 16.882 45.825 19.7715 46.5177 20.3059C46.9136 20.6028 47.2104 20.6621 47.725 20.6621C48.2396 20.6621 48.7145 20.3851 48.7145 20.3851L48.675 20.3257C48.2198 20.4049 47.7052 20.2861 47.2302 19.8903C46.2209 19.0591 44.8355 17.4956 44.222 16.6643C44.9542 16.5258 45.924 15.8925 45.924 14.6258C45.924 13.3592 44.6969 12.9634 43.4897 12.9634H40.8772V13.0425C41.3522 13.0425 41.4512 13.2602 41.4512 13.5373V19.9695C41.4512 20.3059 41.2731 20.4049 40.8179 20.4246V20.5038H42.6189V20.4246C42.3616 20.4246 42.2824 20.2663 42.2824 20.0486V16.9018H43.3709L43.3907 16.882Z" fill="#F9F4ED"/>
<path fill-rule="evenodd" clip-rule="evenodd" d="M70.9994 17.1787H68.6443L69.8119 14.2694M71.138 17.5152L72.1869 20.1078C72.2463 20.2859 72.1869 20.4245 71.989 20.4245V20.5036H73.8889V20.4245C73.5129 20.4245 73.2358 20.2265 72.9983 19.6724L70.2671 12.9038H70.0099L67.2787 19.8901C67.1006 20.3453 66.7641 20.4442 66.4474 20.4442V20.5234H67.7735V20.4442C67.536 20.4442 67.4172 20.3849 67.4568 20.2661L68.5255 17.5349H71.138V17.5152Z" fill="#F9F4ED"/>
<path fill-rule="evenodd" clip-rule="evenodd" d="M51.4259 27.1931H49.0906L50.2582 24.3036M51.5645 27.5295L52.6134 30.1222C52.6926 30.3003 52.6134 30.4388 52.4155 30.4388V30.518H54.3154V30.4388C53.9394 30.4388 53.6623 30.2409 53.4248 29.6868L50.6937 22.938H50.4364L47.7052 29.9045C47.5271 30.3597 47.1906 30.4586 46.874 30.4586V30.5378H48.2V30.4586C47.9625 30.4586 47.8437 30.3993 47.8833 30.2805L48.952 27.5493H51.5447L51.5645 27.5295Z" fill="#F9F4ED"/>
<path fill-rule="evenodd" clip-rule="evenodd" d="M74.1067 27.1931H71.7713L72.9192 24.3036M74.2452 27.5295L75.2941 30.1222C75.3535 30.3003 75.2941 30.4388 75.0962 30.4388V30.518H76.9962V30.4388C76.6201 30.4388 76.3431 30.2409 76.1056 29.6868L73.3744 22.938H73.1171L70.3859 29.9045C70.2078 30.3597 69.8713 30.4586 69.5547 30.4586V30.5378H70.8807V30.4586C70.6432 30.4586 70.5245 30.3993 70.564 30.2805L71.6328 27.5493H74.2254L74.2452 27.5295Z" fill="#F9F4ED"/>
<path fill-rule="evenodd" clip-rule="evenodd" d="M46.5969 30.1022L46.498 29.9042C45.8646 30.2209 45.3303 30.3199 44.7563 30.3199C42.7376 30.2803 41.57 28.6772 41.57 26.4804C41.57 24.5013 42.896 23.3534 44.598 23.3138C45.1522 23.3138 45.7261 23.393 46.3198 23.6305C46.5177 23.7096 46.7552 24.6398 46.7552 24.6398H46.8938L46.6959 23.393C46.0428 23.0961 45.2907 22.9378 44.5584 22.918C42.5595 22.918 40.6398 24.0659 40.6398 26.8168C40.6398 29.5678 42.2626 30.7355 44.598 30.6959C45.1917 30.6959 45.9438 30.5376 46.5771 30.122" fill="#F9F4ED"/>
<path fill-rule="evenodd" clip-rule="evenodd" d="M56.3539 26.7774V23.2942H57.2841C58.3133 23.2942 59.0653 23.9077 59.0653 24.9368C59.0653 26.4212 57.8185 26.7774 56.9279 26.7774M57.2841 27.0743C58.7883 27.0743 59.9757 26.0847 59.9757 24.8379C59.9757 23.591 59.1841 23.0171 57.5414 23.0171H54.9488V23.0963C55.4238 23.0963 55.5227 23.314 55.5227 23.591V30.0034C55.5227 30.3398 55.3644 30.4388 54.8894 30.4586V30.5377H57.205V30.4586C56.4529 30.4586 56.3539 30.3002 56.3539 30.0825V27.1139H57.2841V27.0743Z" fill="#F9F4ED"/>
<path fill-rule="evenodd" clip-rule="evenodd" d="M61.282 22.9971V23.0762C61.757 23.0762 61.8559 23.2939 61.8559 23.571V29.9834C61.8559 30.3198 61.6976 30.4188 61.2226 30.4385V30.5177H63.3205V30.4385C62.8455 30.4385 62.6871 30.3198 62.6871 29.9834V23.571C62.6871 23.2939 62.7861 23.0762 63.2611 23.0762V22.9971" fill="#F9F4ED"/>
<path fill-rule="evenodd" clip-rule="evenodd" d="M70.2671 23.3929H67.6745V30.0625C67.6745 30.2802 67.7536 30.4385 68.5057 30.4385V30.5177H65.9724V30.4385C66.7245 30.4385 66.7839 30.2802 66.7839 30.0625V23.3929H64.4287L64.2902 23.9273H64.1912L64.2704 22.9971C65.2995 23.0169 66.1703 22.9971 67.2193 22.9971C68.3078 22.9971 69.2776 22.9971 70.4057 22.9971L70.4848 23.9273H70.3859" fill="#F9F4ED"/>
<path fill-rule="evenodd" clip-rule="evenodd" d="M81.9043 30.1815H79.094V23.4723C79.094 23.2546 79.193 23.0963 79.945 23.0963V23.0171H77.6295V23.0963C78.1044 23.0963 78.2628 23.215 78.2628 23.5515V29.9638C78.2628 30.2409 78.1638 30.4586 77.6888 30.4586V30.5377H81.9835L82.122 29.8648H82.0429" fill="#F9F4ED"/>
<path fill-rule="evenodd" clip-rule="evenodd" d="M87.4063 23.3535H84.7345V26.441H86.1594C86.4959 26.441 86.5948 26.2826 86.5948 25.8076H86.674V27.3711H86.5948C86.5948 26.8962 86.4761 26.7378 86.1594 26.7378H84.7147V30.1815H87.8021L87.9208 29.8648H88L87.8615 30.5179H83.3293V30.4388C83.8043 30.4388 83.9032 30.2211 83.9032 29.944V23.591C83.9032 23.314 83.8043 23.0963 83.3293 23.0963V23.0171H87.525L87.624 23.8285H87.5646" fill="#F9F4ED"/>
</svg>
